<svg xmlns="http://www.w3.org/2000/svg" viewBox="0 0 3926.97 1290.16">
  <defs>
    <style>
      .cls-1, .cls-2, .cls-3, .cls-4, .cls-5, .cls-6, .cls-7, .cls-8, .cls-9, .cls-10, .cls-11, .cls-12, .cls-13, .cls-14 {
        stroke-width: 0px;
      }

      .cls-2 {
        fill: #f7f7f7;
      }

      .cls-3 {
        fill: #f6f6f6;
      }

      .cls-4 {
        fill: #3a3a3a;
      }

      .cls-5 {
        fill: #393939;
      }

      .cls-6 {
        fill: #fdfdfd;
      }

      .cls-7 {
        fill: #fff;
      }

      .cls-8 {
        fill: #fefefe;
      }

      .cls-9 {
        fill: #f4f4f4;
      }

      .cls-10 {
        fill: #004760;
      }

      .cls-11 {
        fill: #00a8e2;
      }

      .cls-12 {
        fill: #010101;
      }

      .cls-13 {
        fill: #000101;
      }

      .cls-14 {
        fill: #020202;
      }
    </style>
  </defs>
  <g id="Layer_3" data-name="Layer 3">
    <g>
      <path class="cls-1" d="M2476.9,943.19c-42.77,0-89.33-31.55-130.41-59.39-12.39-8.4-24.2-16.4-34.47-22.47l-46.4,7.16c-9.06,20.08-21.58,36.01-37.33,47.44-18.04,13.1-39.44,19.74-63.62,19.74-11.57,0-23.76-1.57-36.22-4.66-7.67-1.91-17.85-6.72-27.69-11.38-3.59-1.7-8.2-3.88-11.07-5.08-2.96.87-7.74,2.53-11.18,3.73-9.51,3.32-18.49,6.45-25.52,7.29-4.01.48-8.3.72-12.76.72-47.81,0-119.72-29.05-153.88-62.18-4.79-4.65-8.31-10.05-11.42-14.83-1.32-2.03-3.03-4.65-4.59-6.68-5.58,2.1-13.29,5.34-17.6,7.45-.65,1.48-1.43,3.34-2.06,4.87-3.26,7.86-7.33,17.63-13.22,25.16-21.11,27-48.8,40.68-82.29,40.68-33.31,0-70.9-13.4-114.55-40.91-19.62,23.24-46.59,35.42-78.92,35.42-25.89,0-54.59-7.6-85.31-22.59-20.52-10.01-41.25-23.11-59.48-37.52-21.89,14.04-47.94,28.43-77.44,28.43-8.54,0-16.15-1.77-23.52-3.48-6.81-1.58-13.23-3.07-19.99-3.07-.62,0-1.25.01-1.89.04-23.58.99-110.92,15.7-132.77,23.17-7.44,2.54-13.62,6.19-20.16,10.04-13.08,7.71-27.9,16.45-52.65,16.45-2.39,0-4.88-.08-7.38-.25-19.51-1.28-99.15-31.26-99.94-31.56-21.66-8.29-54.54-26.34-72.82-43.49-4.66-4.37-8.09-9.55-11.4-14.56-1.39-2.1-3.36-5.08-5.11-7.27-8.74,3.61-22.87,9.92-27.76,12.5-2.85,3.3-5.24,7.8-7.96,12.91-6.46,12.13-15.3,28.74-37.28,39.58-15.76,7.78-29.99,11.56-43.48,11.56s-23.81-3.59-33.07-6.76c-7.3-2.5-13.69-4.68-21.08-5.06-.39.27-.8.55-1.16.8-3.23,2.26-7.66,5.36-13.6,6.93-15.08,3.99-28.95,5.92-42.4,5.92-35.35,0-63.29-13.51-91.72-31.34-22.33,27.61-54.8,42.08-94.9,42.08-40.21,0-81.9-14.38-112.4-28.03-23.68,15.85-46.42,23.29-70.86,23.29-15.23,0-30.95-2.93-48.08-8.95-88.37-31.09-152.28-95.67-189.95-191.95-29.04-74.23-41.96-165.45-38.4-271.12,2.28-67.56,17.04-169.91,51.67-254.54C110.77,86.34,170.95,32.9,243.45,32.9c36.84,0,76.64,13.96,118.43,41.51,15.47-7.2,37.22-15.78,53.84-16.3.47-.01.95-.02,1.43-.02,10.76,0,22.89,3.68,34.62,7.24,8.33,2.53,17.78,5.4,22.54,5.4h.02c3.25-1.46,11.2-6.54,16.59-9.98,10.32-6.59,20.99-13.41,29.57-16.64,22.47-8.45,43.12-12.56,63.14-12.56,35.63,0,69.06,13.11,105.21,41.26,4.94,3.84,7.83,8.48,10.15,12.2.9,1.45,2.27,3.64,2.89,4.15,3.25,2.47,20.89,13.81,34.97,22.4,6.69-23.63,18.28-42.24,34.61-55.48,18.89-15.32,43.66-23.09,73.62-23.09,60.24,0,134.11,31.93,186.73,63.81,21.27-13.48,41.5-20.75,65.8-23.86,56.61-7.25,123.96-16.74,194.29-32.23,6.03-1.33,12.44-3.69,19.23-6.19,11.99-4.41,25.58-9.42,40.88-9.95.77-.03,1.53-.04,2.3-.04,13.65,0,26.09,4.03,37.06,7.59,6.64,2.15,13.5,4.38,17.31,4.38,8.43,0,15.24-2.23,23.14-4.82,9-2.94,19.2-6.28,32.19-6.28,12.09,0,24.81,2.94,38.88,8.99,23.78,10.23,34.39,26.54,43.74,40.93,3.8,5.85,7.4,11.38,11.76,16.34,1.88,2.14,3.19,3.14,3.9,3.59,3.48-1.97,9.9-10.44,13.1-14.66,3.37-4.44,6.85-9.04,10.6-12.85,23.29-23.69,52.66-36.21,84.92-36.21,27.9,0,57.11,9.6,83.19,27.21,2.05-1.18,4.16-2.55,6.41-4.03,6.44-4.21,13.75-8.98,23.62-11.84,12.19-3.52,25.69-5.31,40.12-5.31,31.76,0,64.11,8.46,91.56,16.74,8.35,2.52,22.54,8.63,38.97,15.71,13.56,5.84,35.58,15.32,43.42,17.44,1.19-1.16,3.08-3.81,4.4-5.66,2.87-4.03,6.45-9.04,11.55-13.41,22.6-19.36,44-27.99,69.39-27.99,11.47,0,23.95,1.7,40.46,5.52,5.7,1.32,11.44,3.87,17,6.34,2.9,1.29,7.07,3.14,9.37,3.84,2.98-1.02,8.91-3.89,12.63-5.7,6.66-3.23,13.55-6.57,19.5-8.27,21.43-6.13,39.97-9.11,56.67-9.11,31.47,0,58.89,10.06,89.67,33.28,23.75-17.3,48.57-25.74,75.5-25.74,19.71,0,40.45,4.59,63.12,13.99,28.59-20.91,55.21-31.1,81.12-31.1,50.23,0,88.63,39.55,116.47,74,17.02,21.06,28.89,38.16,37.34,53.81,9.97,18.45,15.55,35.65,17.06,52.58,3.08,34.73-10.57,69.39-44.26,112.38-3.68,4.7-8.07,7.39-10.69,8.99-.16.1-.34.21-.51.31l-1.82,2.26c-22.78,28.31-33.99,44.26-19.44,69.44,5.65,9.78,12.25,18.43,18.64,26.8,16,20.96,32.54,42.63,35.16,81.06,1.34,19.65-6.15,37.67-12.77,53.58-5.28,12.69-10.26,24.67-9.6,34.47.7,10.38,10.59,22.65,21.06,35.65,10.35,12.85,22.08,27.41,28.3,44.54,10.99,30.23,9.23,65.61-4.93,99.62-13.56,32.54-37.34,59.97-65.25,75.25-5.4,2.95-10.79,4.21-15.12,5.21-2.63.61-5.35,1.24-6.61,1.98-9.54,5.63-23.77,15.74-38.84,26.43-49.31,35-86.16,59.88-111.46,61.21-1.45.08-2.94.12-4.42.12ZM2388.72,776.56c2.19,2.57,8.68,8.7,26.89,19.54,15.64,9.3,33.55,18.34,47.95,25.6,2.52,1.27,4.93,2.49,7.18,3.63,1.56-1.45,3.19-2.98,4.9-4.58,41.84-39.09,81.88-74.59,111.83-79.47,2.11-.34,4.26-.52,6.37-.52,5.41,0,9.82,1.13,12.93,2.02,4.61-5.5,10.9-19.94,12.99-28.81-2.54-4.88-10.81-16.97-26.99-34.5-14.87-16.1-25.7-25.17-30.98-28.81-25.23,8.84-48.3,27.23-70.67,45.05l-10.18,8.11-25.81-13.15v-93.83l5.43-5.09c34.83-32.63,63.9-52.29,88.86-60.11,7.24-2.27,13.35-2.98,18.26-3.55,3.21-.37,6.53-.76,7.46-1.41.43-.29,2.73-2.22,6.03-11.13,2.96-7.98-2.29-21.31-14.77-37.53-10.71-13.92-24.6-27.26-35.71-37.46l-75.57,33.47v-162.98l4.09-4.81c21.24-24.98,49.73-44.75,84.66-58.76,1.53-.61,3.02-1.22,4.47-1.82,10.32-4.24,20.99-8.62,33.86-8.62,3.49,0,6.96.31,10.46.95l15.13-24.5c-2.51-7.08-10.97-22.55-25.46-41.62-15.38-20.24-28.65-32.86-34.32-36.41-4.7,1.98-14.07,9.03-19.92,13.43-13.85,10.42-29.56,22.23-45.77,24.73-2.93.45-5.95.68-8.98.68-17.1,0-32.2-7.12-45.52-13.4-9.51-4.48-18.5-8.72-24.93-8.72-2.12,0-7.47,0-14.95,12.17l.76,612.22ZM2093.85,225.8c-3.29,76.14-1.39,155.46.45,232.18,2.01,83.48,4.08,169.8-.49,252.92-.52,9.44-2.54,18.6-4.5,27.46-3.39,15.33-6.32,28.57-.71,38.21,2.12,3.65,14.34,14.91,33.84,27.5,21.67,13.99,35.42,18.89,38.69,19.07h.2c2.54,0,3.02-.56,3.18-.75.57-.66,3.38-4.67,3.17-18.64-.16-10.97-2.14-23.69-3.73-33.91-1.2-7.73-2.24-14.41-2.45-19.64-.99-25.35-.51-51-.04-75.81.42-22.36.85-45.49.18-67.91l-1.58-52.79,32.33,41.77c9.04,11.68,22.49,25.6,35.22,25.6,25.26,0,51.8-55.74,60.52-74.06,25.54-53.65,45.53-118.04,53.48-172.25,7.25-49.47,8.62-117.45-26.09-160.37-4.76-5.88-11.01-10.82-17.63-16.05-5.35-4.23-10.88-8.6-16.03-13.79-5-5.04-9.33-11.32-13.51-17.4-3.48-5.05-7.42-10.78-10.26-13.28-10.92-9.63-18.48-10.74-23.23-10.74-9.6,0-20.42,5.51-31.88,11.35-14.94,7.61-31.88,16.24-52.24,16.24-14.01,0-27.99-6.01-40.33-11.31-8.16-3.51-17.42-7.48-22.3-7.48-.08,0-.16,0-.22,0-.79,1.19-3.12,5.72-3.88,18.57-.35,5.83,1.85,13.29,4.18,21.18,3.01,10.19,6.42,21.74,5.65,34.16ZM1082.59,811.33c3.56,5.32,5.88,7.25,6.8,7.88,2.18-.74,6.73-3.83,9.84-5.93,6.16-4.18,13.83-9.38,23.23-12.67,27.79-9.74,151.27-31.77,178.54-31.86h.23c11.84,0,20.65,2.83,27.73,5.1,4.25,1.36,7.61,2.44,10.25,2.44,1.3,0,5.27,0,14.24-7.21,3.52-2.83,8.19-8.05,9.45-10.22,1.93-7.09,1.83-24.45-4.65-51.1-5.29-21.75-13.3-42.71-19.92-52.15-5.53-7.89-8.92-10.95-10.45-12.07-1.66.92-4.27,2.78-6.29,4.23-5.99,4.28-13.44,9.61-23.65,13.12-22.23,7.64-73.16,17.3-95.42,20.56-.43.06-.94.17-1.49.27-2.56.49-6.06,1.16-9.86,1.16-11.7,0-17.37-6.38-19.72-10.19l-5.12-8.32,225.96-431.87,120.81,359.48v2.8c.04,22.08-9.75,51.49-20.12,82.62-9.26,27.82-20.79,62.45-18.24,77.45,4.37,25.73,50.24,46.44,85.04,53.1,11-15.5,8.92-38.3,6.74-62.28-1.22-13.37-2.48-27.2-1.38-40.2,4.55-53.7,35.03-144.83,57.28-211.37,4.49-13.43,8.74-26.12,12.26-36.99,1.73-5.35,4.01-12.53,6.64-20.84,26.34-83.14,56.07-173.87,75.41-198.08,4.85-6.07,10.93-8.87,14.96-10.72.5-.23,1.1-.51,1.6-.75,3.67-6.85,5-30.93,2.08-40.25-4.76-9.09-39.49-38.93-49.82-43.82-9.38-4.44-14.53-5.1-16.76-5.1-1.88,0-2.83,0-4.73,3.15-2.91,4.82-5.14,13.24-7.3,21.38-1.96,7.39-3.98,15.02-6.96,22.42l-2.36,5.88c-31.99,79.5-62.2,154.59-83.63,235.3l-13.03,49.07-19.44-46.89c-26.29-63.4-45.91-135.35-58.32-213.85-.84-5.31-1.27-12.4-1.77-20.6-.89-14.69-2.01-32.98-5.78-46.96-2.63-9.74-6.02-14.83-8.02-14.83-.18,0-.36.01-.57.03-7.46.73-23.13,15.08-32.49,23.65-6.74,6.18-13.11,12.01-19.07,16.17l-16.64,11.62-8.71-18.34c-2.48-5.21-4.42-10.35-6.14-14.87-6.65-17.52-8.14-18.55-16.79-18.55-.97,0-2,.04-3.08.12-2.54.19-6.93,2.19-11.18,4.12-5.31,2.42-11.33,5.15-18.24,6.71-74.94,16.93-139.24,29.63-191.11,37.76-5.44.85-11.21,1.02-17.31,1.19-27.09.78-30.03,3.98-30.91,12.88.15,4.95,6.15,24.46,18.75,51.31,11.81,25.14,22.1,41.14,26.67,45.99.02,0,.04,0,.06,0,3.99,0,10.22-3.76,16.25-7.4,5.65-3.41,12.05-7.27,19.3-9.92,27.11-9.9,66.17-16.82,93.68-20l32.22-3.72-229.2,438.55-10.45.08c-8.99,0-15.6-5.6-19.65-16.66-1.36-3.72-2.74-8.59-4.22-14.89-2.45-10.46-4.61-22.48-5.9-29.67-.38-2.11-.67-3.76-.87-4.75-27.16-137.99-40.04-281.42-52.5-420.14l-1.87-20.75c-4.63-3.88-19.92-13.19-55.07-25.84-30.38-10.93-55.87-17.31-62.6-17.71-.71-.04-1.41-.09-2.11-.13-1.9-.12-3.69-.24-5.22-.24-.57,0-1.06.02-1.48.05-1.79,7.6-1.44,25.42-1.28,33.56.17,8.39.31,15.64-.29,21.14-6.47,59.58-22.98,123-38.96,184.34-14.68,56.38-29.86,114.68-36.9,168.95l-.25,1.92-.67,1.82c-5.89,15.98-17.39,24.44-25.79,30.62-10.79,7.94-14.43,10.62-11.39,26.26.3,1.53,1.57,3.84,2.91,6.29,2.61,4.76,6.19,11.27,6.75,19.63.32,4.79-1.27,13.79-4.73,26.75-5.68,21.27-8.94,24.76-11.1,27.07-3.49,3.74-8.16,5.8-13.13,5.81l-8.69-.12-125.43-167.1,6.77-10.12c7.41-11.07,15.53-22.57,24.13-34.75,46.93-66.44,105.33-149.13,86.59-223.07-2.09-8.24-16.27-33.09-38.42-62.91-24.87-33.47-41.95-49.38-46.88-51.55-7.65-3.37-14.7-5.01-21.56-5.01-15.92,0-30.14,9.31-45.2,19.16-17.07,11.17-36.41,23.82-60.8,23.82-3.09,0-6.24-.21-9.35-.62-9.54-1.26-19.13-4.67-28.41-7.98-8.9-3.17-18.11-6.45-24.01-6.45-2.1,0-2.41.36-2.61.6-.5.59-3.05,4.14-3.97,15.54-2.06,25.53-3.33,55.36-3.25,76.04.01.64.02,1.27,0,1.9l-34.35-.05v-1.41c-.5-19.82-18.7-49.85-46.41-76.56-27.1-26.13-57.95-43.69-76.77-43.69-.63,0-1.24.02-1.83.06-15.56,1.1-30.73,10.85-45.1,28.99-13.65,17.24-26.3,41.59-37.58,72.36-21.63,58.99-32.2,125.41-35.04,155.36-4.92,51.94-9.42,152.6,15.77,243.24,24.96,89.83,72.24,146.14,140.52,167.37,2.33.72,4.55,1.08,6.81,1.08,20.31,0,41.05-29.92,54.78-49.72l2.29-3.31c4.32-6.2,8.08-13.09,12.07-20.39,6.06-11.08,12.32-22.54,21.25-32.89l30.18-34.98v120.41c0,3.07-.76,5.63-1.68,7.69,10.38,7.43,42.41,19,68.28,19,3.41,0,5.96-.23,7.82-.51l-8.13-253.02,157.21,193.54.97,2.44c18.69,46.94,28.17,47.48,28.57,47.48.08,0,8.22-.73,23.26-26.79l9.66-16.74,15.49,11.56c15.73,11.74,38.34,24.65,51.04,28.42l36.34-120.78,4.89-3.42c39.66-27.72,85.72-42.4,126.35-55.36l3.79-1.21,3.94.58c12.48,1.85,15.89,14.11,17.17,18.72,1.17,4.22,2.39,9.99,3.71,17.63,2.33,13.45,4.75,31.35,7.1,48.65,3.1,22.84,7.77,57.33,10.55,64.11,2.66,5.36,12.74,14.8,32.52,23.95,16.89,7.81,36.01,12.86,48.69,12.86,2.26,0,4.22-.16,5.82-.47l11.17-2.15,6.34,9.45ZM1922.27,628.35c14.86,2.43,17.94,18.95,20.42,32.23,2.12,11.35,4.18,26.32,6.36,42.17,3.35,24.31,9.57,69.57,14.92,77.94,1.7,2.41,12.3,11.01,32.57,20.55,15.24,7.18,30.23,12.13,39.76,13.23,7.22-30.32-1.46-60.42-10.6-92.12-3.75-13-7.62-26.44-10.53-40.27-35.22-167.72-52.04-340.79-64.96-490.33-2.86-2.71-12.71-10.37-41.83-22.14-22.34-9.03-44.52-15.78-52.47-17.5-12.7-2.74-22.4-4.13-28.84-4.13-1.97,0-3.34.13-4.23.27-.51,3.57-.18,10.92.08,16.51.47,10.38,1.06,23.29-.59,38.22-6.57,59.43-23.12,122.75-39.12,183.99-14.98,57.33-30.48,116.61-37.48,171.77l-.55,4.35-2.57,3.55c-7.25,10.03-15.54,16.59-22.2,21.86-11.42,9.03-14.86,11.76-12.55,26.06.35,2.18,1.16,3.79,2.82,6.92,3.3,6.25,7.81,14.82,6.8,29.67-1,14.65-8.44,36.54-16.33,59.71-4.77,14.03-9.71,28.53-12.95,40.76-2.79,10.53-3.5,16.37-3.62,19.39,4.66,4.37,15.26,12.55,30.73,21.6,16.64,9.73,28.58,14.46,34.33,15.85,1.11-1.53,2.23-3.34,2.63-4.3,3.43-8.68,7.06-26.46,10.56-43.64,7.46-36.6,13.09-61.55,22.97-74.42l1.6-2.09,2.16-1.51c36.63-25.7,78.27-39.49,124.96-53.64l3.81-1.16,3.93.64Z"></path>
      <path class="cls-7" d="M2548.6,40.67c37.51,0,69.63,26.19,103.11,67.62,60.14,74.42,71.61,118.74,9.98,197.37-3.16,4.04-8.07,5.4-10.1,7.93-22.17,27.67-45.75,54.13-23.71,92.27,20.25,35.04,48.26,52.46,51.54,100.43,2.09,30.6-24.26,59.8-22.37,88.03,1.93,28.7,38.69,52.81,50.36,84.91,19.95,54.91-11.58,126.17-62.29,153.93-6.88,3.76-15.36,3.43-22.21,7.47-33.46,19.75-110.48,83.6-142.48,85.29-1.16.06-2.34.09-3.51.09-52.06,0-118.56-58.77-161.55-82.58l-61.91,9.55c-16.27,43.44-48.1,65.5-88.76,65.5-10.18,0-20.91-1.38-32.08-4.16-11.45-2.84-36.56-17.05-41.76-17.4-.09,0-.19,0-.3,0-6.02,0-29.47,10.39-39.57,11.59-3.4.41-6.99.6-10.72.6-45.12,0-112.12-28.44-141.92-57.34-8.75-8.49-13.46-23.44-24.38-28.08-.04,0-.09,0-.14,0-4.17,0-31.82,11.59-33.85,14.01-3.47,4.16-8.45,22.11-16.02,31.79-19.38,24.77-43.42,34.09-68.76,34.09-40.96,0-85.32-24.34-118.86-47.08-18.48,30.19-45.32,41.59-74.61,41.59-50.72,0-108.8-34.2-143.61-64.22-23.17,15.28-49.4,32.55-78.62,32.55-.02,0-.04,0-.06,0-13.69-.01-26.83-6.55-43.46-6.55-.86,0-1.73.02-2.61.05-25.13,1.05-114.43,16.15-137.61,24.08-24.9,8.52-35.65,25.57-67.25,25.57-2,0-4.08-.07-6.26-.21-13.75-.9-78.38-24.14-94.93-30.47-20.56-7.87-51.26-25.02-67.21-39.98-8.58-8.05-14.24-24.88-25.83-28.43,0,0-.01,0-.02,0-2.45,0-38.87,15.94-41.16,18.22-14.17,14.14-14.99,37.23-41.86,50.49-14.77,7.29-26.18,9.78-35.88,9.78-21.16,0-34.23-11.88-56.43-11.88-.06,0-.11,0-.16,0-5.42.01-10.26,6.66-16.71,8.37-13.86,3.66-26.35,5.35-38.01,5.35-34.78,0-62.15-15.04-96.32-37.58-21.25,35.75-54.42,48.32-90.3,48.32-38.76,0-80.69-14.66-114.22-30.61-23.13,17.25-45.08,25.87-69.05,25.87-13.32,0-27.26-2.66-42.38-7.98C67.78,824.12,29.03,617,34.91,442.56,39.61,302.9,95.08,50.08,243.45,50.08c33.96,0,72.78,13.24,116.99,44.11,14.66-7.39,39.56-18.41,55.82-18.91.3,0,.6-.01.9-.01,16.11,0,42.24,12.64,57.16,12.64,1.26,0,2.44-.09,3.53-.29,8.1-1.46,34.82-22.21,48.69-27.42,20.55-7.73,39.32-11.46,57.1-11.46,33.34,0,63.18,13.13,94.66,37.64,5.26,4.09,7.24,11.96,13.2,16.48,5.97,4.53,53.44,34.82,57.44,34.82.03,0,.06,0,.09,0,8.74-65.31,47.93-87.49,96.06-87.49,63.14,0,141.67,38.14,187.09,67.08,21.36-15.14,41.33-23.9,67.62-27.27,66.02-8.45,129.93-17.98,195.8-32.49,18.51-4.08,36.52-15.04,57.01-15.74.57-.02,1.14-.03,1.71-.03,20.14,0,40.1,11.97,54.37,11.97h0c22.02,0,34.53-11.1,55.32-11.1,8.78,0,19.03,1.97,32.1,7.6,27.78,11.95,32.99,34.18,49.39,52.83,6.09,6.93,11.63,9.66,16.73,9.66,14.6,0,25.67-22.35,36.02-32.88,21.26-21.62,46.72-31.07,72.67-31.07,28.01,0,56.57,11.01,81.04,29.62,13.8-3.93,22.33-14.71,36.97-18.95,11.32-3.27,23.23-4.64,35.35-4.64,29.32,0,59.9,7.96,86.6,16.01,17.9,5.4,77.14,34.17,87.87,34.17.11,0,.22,0,.32,0,13.25-.82,16.41-15.02,26.29-23.49,20.32-17.4,37.94-23.86,58.22-23.86,11.11,0,23.01,1.94,36.59,5.08,9.35,2.16,23.09,10.84,30.52,10.84.03,0,.06,0,.1,0,7.28-.07,26.1-11.87,36.49-14.84,19.37-5.54,36.28-8.44,51.95-8.44,31.7,0,58.27,11.91,89.65,38.02,24.68-21.19,49.5-30.48,75.52-30.48,20.87,0,42.52,5.98,65.48,16.61,29.5-23.38,55.19-33.72,78.76-33.72M1130.68,308.61c14.33,0,26.8-13.01,41.45-18.36,25.56-9.33,63.14-16,89.76-19.07l-209.4,400.67s0,0,0,0c-5.12,0-12.29-44.52-13.79-52.1-28.6-145.35-41.2-295.99-54.51-443.5-5.67-19.36-111.83-53.49-133.36-54.77-2.84-.17-5.62-.41-8.35-.41-4.01,0-7.93.51-11.85,2.5-12.52,6.22-6.59,52.07-8.27,67.56-12.25,112.86-60.97,238.42-75.81,352.94-10.47,28.38-46.33,22.79-37.93,66.09,1.73,8.92,8.8,15.23,9.38,23.8.4,5.89-8.84,41.29-11.83,41.29,0,0,0,0,0,0l-113.05-150.61c49.44-73.89,137.36-175.88,113.1-271.59-6.62-26.1-71.81-115.73-95.03-125.96-10.38-4.57-19.79-6.46-28.49-6.46-41.47,0-66.89,42.98-106.01,42.98-2.32,0-4.68-.15-7.1-.47-17.19-2.27-38.53-14.58-54.66-14.58-12.39,0-21.71,7.27-23.7,31.94-1.91,23.74-3.4,54.59-3.31,77.63-1.15-53.57-89.81-137.18-140.34-137.18-1.03,0-2.04.03-3.03.1-88.66,6.25-127.07,203.2-133.61,272.22-13.8,145.65,1.22,376.7,168.29,428.63,4.07,1.27,8.04,1.85,11.9,1.85,30.7,0,54.75-36.8,71.17-60.39,11.61-16.68,18.95-36.49,32.23-51.87v74.21c0,1.55-4.61,6.11-3.44,9.72.89,15.98,53.78,34.15,87.22,34.15,12.14,0,21.72-2.4,25.31-8.16l-6.81-212.15,123.41,151.94c12.62,31.7,26.63,58.3,44.53,58.3,11.04,0,23.55-10.11,38.14-35.38,11.9,8.88,48.28,32.92,67.29,32.92,2.71,0,5.06-.49,6.95-1.58l38.15-126.8c36.51-25.52,79.62-39.65,121.73-53.07,7.55,1.12,17.58,123.07,25.53,139.5,11.43,23.61,65.19,46.61,96.72,46.61,3.29,0,6.34-.25,9.07-.78,7.76,11.57,14.35,15.62,20.71,15.62,11.83,0,22.85-14.01,39.11-19.7,25.28-8.86,146.72-30.8,172.92-30.89.06,0,.12,0,.18,0,16.79,0,26.28,7.54,37.98,7.54,6.91,0,14.59-2.63,25.01-11,4.61-3.71,13.27-12.58,14.95-18.03,8.25-26.77-10.6-95.62-26.78-118.69-10.38-14.8-17.69-19.79-24.25-19.79-10.59,0-19.24,13-35.78,18.69-20.3,6.98-69.97,16.54-92.33,19.81-2.2.32-5.8,1.25-8.87,1.25-2.21,0-4.14-.48-5.09-2.01l202.76-387.53,107.09,318.65c.06,41.36-44.24,126.9-38.13,162.93,6.9,40.62,72.38,64.02,108.48,68.67,32.86-30.1,12.75-81.44,15.98-119.47,5.29-62.38,48.14-180.85,68.77-244.52,13.48-41.6,57.33-186.2,79.13-213.49,4.25-5.32,11.87-5.98,15.56-10.09,9.57-10.64,10.19-45.23,5.81-58.19-4.29-12.69-45.7-47.39-58.63-53.51-9.96-4.72-17.82-6.76-24.11-6.76-25.5,0-25.19,33.51-34.93,57.72-32.21,80.08-64.41,159.4-86.66,243.19-27.72-66.85-45.9-138.35-57.22-209.96-3.49-22.09.36-96.88-32.54-96.89-.73,0-1.47.04-2.23.11-19.32,1.88-43.93,31.81-59.73,42.84-10.18-21.43-10.96-43.24-38.45-43.24-1.38,0-2.83.06-4.36.17-10.19.76-20.45,8.62-31.93,11.21-60.14,13.58-129.31,28.04-189.99,37.55-20.32,3.19-59.45-5.21-62.69,29.71-1.72,18.5,39.65,107.75,55.4,114.67,2.47.79,4.87,1.14,7.22,1.14M2473.37,157.12c-25.43,0-48.98-22.12-70.46-22.12-11.29,0-22.01,6.11-32.13,24.77l.77,621.14c6.14,20.06,81.38,53.83,101.94,65.24,24.97-22.48,84.47-82.65,116.76-87.92,1.27-.21,2.47-.3,3.61-.3,6.36,0,10.76,2.76,14.97,2.76.2,0,.41,0,.61-.02,13.24-.88,26.4-35.31,27.96-47.66-.39-14.52-60.36-79.41-74.6-80.69-31.41,9.02-58.76,31.14-83.91,51.18l-6.58-3.35v-75.86c21.91-20.52,53.38-47.21,82.26-56.26,20.67-6.48,31.81,2.94,42.72-26.51,12.42-33.51-39.85-79.91-63.3-101.2l-61.68,27.31v-130.27c20.76-24.41,48.32-42.05,77.97-53.95,11.68-4.69,20.97-9.2,31.94-9.2,4.21,0,8.66.66,13.59,2.24l8.65-4.85,21.23-34.37c2.29-19.58-57.77-98.32-76.12-99.37-.21-.01-.43-.02-.65-.02-16.64,0-45.91,35.21-69.18,38.8-2.13.33-4.25.48-6.36.48M2150.75,153.5c-20.22,0-45.16-18.79-62.62-18.79-11.44,0-19.66,8.05-21.26,34.72-1.07,17.91,11.04,36.81,9.82,55.44-6.93,159.65,8.69,326.27-.03,485.09-1.37,24.94-16.16,52.46-2.91,75.25,9.66,16.6,67.87,54.8,87.06,55.1.17,0,.35,0,.52,0,38.79,0,18.16-69.71,17.34-90.79-1.86-47.69,1.57-95.87.14-143.57,17.87,23.08,34.1,32.26,48.8,32.26,32.57,0,57.57-45.08,76.02-83.85,43.24-90.83,94.93-264.62,25.24-350.81-10.21-12.62-24.2-20.44-34.82-31.14-8.35-8.42-16.27-24.12-24.6-31.46-12.51-11.04-23.84-15.04-34.59-15.04-28.24,0-52.54,27.59-84.11,27.59M1752.48,826.09c1.59,0,2.94-.22,4.02-.7,4.14-1.82,9.96-10.41,11.73-14.9,9.83-24.85,17.37-95.93,31.19-113.93,35.87-25.16,78.61-38.7,120.08-51.26,9.34,1.53,16.04,124.44,30.31,145.1,10.26,14.86,64.41,41.47,90.12,41.47,4.05,0,7.39-.66,9.75-2.13,18.42-52.2-6.91-99.85-17.69-151.19-34.03-162.02-50.8-327.42-65.01-492.36-6.27-19.15-86.9-46.43-107.44-50.86-14.14-3.05-24.67-4.52-32.46-4.52-33.26,0-16.99,26.65-21.81,70.3-12.55,113.56-61.93,240.1-76.57,355.48-17.5,24.21-43.68,24.28-37.79,60.73,2.02,12.53,10.58,15.93,9.44,32.69-1.97,29.01-38.52,105.36-32.21,128.34,9.78,13.98,64.82,47.76,84.36,47.76M387.92,258.12c.01.51.01,1.02,0,1.53,0-.51,0-1.01,0-1.53M2548.6,6.32h0c-27.22,0-54.67,9.49-83.44,28.91-21.41-7.93-41.44-11.81-60.8-11.81-17.53,0-34.66,3.27-50.92,9.72-8.2,3.25-16.31,7.37-24.25,12.31-10.73-7.31-21.16-13.11-31.49-17.55-18.81-8.08-37.94-12.01-58.5-12.01-18.32,0-38.4,3.2-61.39,9.77-7.39,2.11-14.95,5.78-22.27,9.33-1.58.77-3.53,1.71-5.37,2.57-.77-.34-1.51-.67-2.17-.96-6.01-2.67-12.81-5.7-20.11-7.38-17.83-4.12-31.5-5.96-44.33-5.96-29.38,0-54.98,10.21-80.56,32.12-4.57,3.91-8.08,8.04-10.88,11.71-9.33-3.69-21.84-9.07-30.53-12.82-16.91-7.28-31.52-13.57-40.81-16.37-28.65-8.64-62.53-17.47-96.52-17.47-16.05,0-31.16,2.01-44.89,5.99-10.62,3.07-18.91,7.94-25.29,12.04-26.41-15.62-55.29-24.06-83.17-24.06-36.97,0-70.57,14.29-97.17,41.34-4.06,4.13-7.56,8.62-10.91,13.02-.59-.9-1.19-1.82-1.8-2.76-9.62-14.8-22.8-35.07-51.36-47.35-16.26-6.99-31.2-10.39-45.67-10.39-15.73,0-27.82,3.96-37.53,7.14-7.59,2.48-12.2,3.91-17.49,3.96-2.28-.28-8.3-2.24-12.32-3.54-11.58-3.76-26-8.43-42.36-8.43-.96,0-1.93.02-2.89.05-18.06.62-33.68,6.37-46.23,10.99-6.22,2.29-12.1,4.46-16.99,5.53-69.67,15.34-136.54,24.76-192.78,31.96-23.09,2.96-43.41,9.57-63.65,20.93-18.33-10.61-44.03-24.11-73.86-35.92-42.05-16.66-80.01-25.1-112.84-25.1s-62.41,9.06-84.44,26.92c-13.89,11.26-24.81,25.66-32.68,43.04-5.81-3.69-10.91-7.02-13.89-9.04-.17-.28-.35-.56-.5-.81-2.72-4.36-6.82-10.95-14.17-16.67-39.32-30.62-76.11-44.89-115.77-44.89-22.12,0-44.75,4.47-69.19,13.66-10.27,3.86-21.71,11.17-32.77,18.24-3.17,2.02-7.4,4.73-10.63,6.66-4.07-.94-9.98-2.74-14.28-4.04-12.93-3.93-26.3-7.99-39.61-7.99-.66,0-1.32.01-1.96.03-16.09.5-35.13,6.8-51.87,13.99-41.78-26.03-82.03-39.21-119.87-39.21-55.81,0-134.07,28.66-189.94,165.22-16.23,39.66-29.23,85.09-38.65,135.01C6.85,358.38,1.91,401.76.57,441.41c-1.66,49.2.29,96.2,5.78,139.68,6.43,50.87,17.8,97.39,33.79,138.27,18.49,47.26,43.48,87.81,74.29,120.53,34.62,36.77,77,64.15,125.96,81.37,18.98,6.68,36.57,9.92,53.78,9.92,24.79,0,48.61-6.93,72.34-21.1,31.17,13.16,71.45,25.84,110.93,25.84s73.32-12.76,98.17-37.25c26.33,15.18,54.34,26.5,88.45,26.5,14.95,0,30.26-2.12,46.79-6.49,6.04-1.6,10.91-4.16,14.6-6.47,3.18.7,6.7,1.87,11.3,3.45,10.01,3.42,22.46,7.68,38.63,7.68s32.9-4.36,51.08-13.33c26.95-13.29,37.72-33.52,44.84-46.91,1.42-2.67,2.88-5.4,4.15-7.43,2.77-1.32,6.46-3.01,10.29-4.71,2.93,4.24,6.44,8.85,10.89,13.02,20.09,18.84,54.67,37.91,78.43,47,8.16,3.12,28.9,10.7,49.83,17.74,36.66,12.34,48.16,14.46,55.12,14.92,2.88.19,5.74.29,8.51.29,29.43,0,47.89-10.88,61.37-18.83,6.02-3.55,11.21-6.61,16.99-8.59,18.44-6.3,104.52-21.29,127.93-22.26.38-.02.78-.02,1.17-.02,4.79,0,10.04,1.22,16.11,2.63,7.92,1.84,16.89,3.92,27.32,3.93h.08c29.46,0,54.79-11.73,76.46-24.76,40.17,29.54,94.61,56.43,145.78,56.43,21,0,40.27-4.5,57.26-13.38,8.9-4.65,17.1-10.45,24.54-17.36,41.51,24.34,78.23,36.23,111.66,36.23,38.5,0,71.63-16.35,95.82-47.28,6.28-8.03,10.67-17.58,13.98-25.41,2.59,3.65,5.65,7.52,9.42,11.18,37.47,36.33,113.41,67.03,165.83,67.03,5.13,0,10.1-.28,14.79-.84,8.27-.99,16.91-3.86,29.15-8.12,1.35-.47,2.94-1.03,4.51-1.56,1.64.77,3.32,1.56,4.72,2.22,12.63,5.97,22.24,10.37,30.9,12.52,13.82,3.43,27.4,5.17,40.36,5.17,49.23,0,89.27-24.78,112.42-68.74l31.36-4.84c8.61,5.35,18.3,11.92,28.4,18.76,43.13,29.22,92.01,62.35,140.05,62.35,1.78,0,3.57-.05,5.32-.14,29.99-1.58,67.18-26.51,120.5-64.36,14.19-10.07,27.63-19.61,36.57-25.01.76-.2,1.92-.47,2.83-.68,5.07-1.18,12.02-2.79,19.48-6.88,16.1-8.81,30.76-20.88,43.56-35.86,12.14-14.2,21.99-30.3,29.3-47.85,15.83-37.99,17.68-77.8,5.22-112.09-7.2-19.81-19.88-35.56-31.07-49.45-5.46-6.78-10.62-13.18-14-18.73-3.06-5.02-3.28-7.08-3.29-7.3-.39-5.78,4.24-16.91,8.32-26.72,6.98-16.78,15.66-37.66,14.04-61.34-2.98-43.57-21.93-68.4-38.65-90.31-6.34-8.3-12.32-16.14-17.42-24.97-5.61-9.71-4.5-14.84-2.89-19.26,3.26-8.97,11.8-19.58,20.83-30.81,3.53-2.26,8.58-5.9,13.17-11.76,36.59-46.69,51.35-85.08,47.85-124.49-3.83-43.14-30.21-81.08-58.15-115.66-30.24-37.43-72.32-80.38-129.83-80.38h0ZM1103.87,199.09c4.16-.42,9.34-.57,12.71-.67,6.37-.18,12.96-.37,19.48-1.39,52.25-8.19,116.92-20.97,192.24-37.98,8.62-1.95,15.8-5.21,21.56-7.83,1.61-.73,3.64-1.66,5.12-2.26.91,2.17,1.92,4.83,2.76,7.03,1.83,4.83,3.91,10.31,6.68,16.14l17.41,36.67,5.45-3.81-28.9,55.24-202.76,387.53-9.05,17.3,10.23,16.63c7.18,11.67,19.7,18.36,34.35,18.36,5.43,0,10.22-.92,13.09-1.46.32-.06.62-.12.9-.17,22.91-3.36,75.18-13.32,98.38-21.29,8.64-2.97,15.75-7.05,21.35-10.74,3.82,6.02,10.88,21.92,16.48,44.59,5.35,21.65,5.78,35.08,5.34,40.77-1.33,1.47-3.03,3.15-4.01,3.93-1.99,1.6-3.42,2.55-4.33,3.09-1.23-.35-2.84-.87-4.15-1.29-7.35-2.36-18.45-5.92-32.98-5.92h-.21s-.05,0-.05,0h-.03c-20.25.06-71.62,8.9-92.76,12.69-16.34,2.93-71.21,13.05-91.41,20.13-9.47,3.32-17.28,8.06-23.43,12.14l-9.17-13.67-22.35,4.3c-.08.02-.86.16-2.58.16-7.42,0-22.2-2.71-39.44-10.35-16-7.09-23.78-13.88-26.05-16.58-2.51-9.43-6.53-39.11-9.25-59.12-2.37-17.46-4.82-35.51-7.2-49.27-1.44-8.32-2.74-14.46-4.08-19.3-1.14-4.09-2.34-7.39-3.79-10.38-5.55-11.42-15.54-18.98-27.42-20.74l-7.87-1.16-7.58,2.42c-39.73,12.67-89.17,28.43-130.97,57.64l-9.78,6.84-3.44,11.43-29.06,96.6c-1.53-.8-3.17-1.7-4.92-2.69-10.97-6.19-20.85-13.03-24.96-16.09l-30.98-23.11-19.32,33.47c-2.78,4.81-5.18,8.49-7.2,11.28-.38-.65-.77-1.34-1.18-2.07-3.79-6.81-7.91-15.85-12.61-27.66l-1.94-4.88-3.31-4.07-123.41-151.94-64.28-79.13,3.27,101.9,5.92,184.21c-7.81-.92-16.7-2.79-25.27-5.38-5.88-1.77-10.59-3.57-14.23-5.16v-164.94l-60.37,69.96c-10.12,11.73-17.13,24.56-23.32,35.87-3.76,6.88-7.31,13.38-11.1,18.82-.76,1.09-1.53,2.2-2.31,3.33-7.61,10.97-16.23,23.41-25.44,32.47-7.38,7.26-12.7,9.85-15.22,9.85-.5,0-1.06-.1-1.71-.3-33.01-10.26-59.82-28.87-81.96-56.9-20.15-25.5-36-58.7-47.11-98.67-24.45-87.97-20.03-186.26-15.22-237.02,2.76-29.13,13.04-93.72,34.07-151.07,10.65-29.05,22.4-51.8,34.92-67.61,11.25-14.2,22.29-21.78,32.84-22.52.19-.01.39-.02.62-.02,11.88,0,38.65,13.63,64.84,38.88,26.51,25.56,40.72,51.7,41.14,64.47,0,.42,0,.84,0,1.26l68.71.08c0-.74,0-1.5,0-2.25-.07-19.61,1.1-47.62,3.01-72.12,2.81.93,5.65,1.95,7.89,2.74,9.65,3.44,20.58,7.33,31.92,8.83,3.85.51,7.75.76,11.59.76,29.51,0,52.08-14.77,70.21-26.63,13.41-8.78,25-16.36,35.79-16.35,4.2,0,8.71,1.04,13.79,3.18,4.69,3.23,20.31,18.51,42.34,48.43,20.26,27.51,32.31,49.04,34.12,55.02,7.14,28.3,1.79,61.07-16.35,100.15-17.45,37.6-44.12,75.36-67.65,108.67-8.67,12.27-16.85,23.86-24.38,35.11l-13.55,20.25,14.62,19.48,113.05,150.61,10.31,13.73h17.17c9.65,0,19.01-4.1,25.69-11.25,5.3-5.66,9.47-13.1,15.15-34.37,5.95-22.27,5.47-29.33,5.27-32.34-.82-12.14-5.83-21.27-8.83-26.73-.43-.78-.97-1.77-1.31-2.44-.3-1.81-.4-3.08-.42-3.92,1.36-1.16,3.59-2.8,5.34-4.09,9.58-7.05,24.04-17.7,31.72-38.51l1.34-3.63.5-3.84c6.89-53.19,21.94-110.96,36.48-166.83,16.13-61.94,32.81-125.99,39.41-186.82.72-6.59.56-14.35.38-23.33-.07-3.59-.18-8.94-.14-14.19,9.8,2.28,26.75,7,47.11,14.21,25.22,8.92,39.92,16.08,47.23,20.31.38,4.21.76,8.42,1.14,12.64,12.5,139.15,25.43,283.04,52.76,421.91.15.76.47,2.56.81,4.46,1.32,7.35,3.53,19.65,6.09,30.56,1.64,6.98,3.21,12.51,4.82,16.88,1.49,4.06,3.13,7.49,5.02,10.49,6.91,10.92,18.4,17.44,30.75,17.44h20.81l9.65-18.44,209.4-400.67,30.04-57.48-64.43,7.44c-13.82,1.6-61.72,7.83-97.6,20.93-8.81,3.22-16.28,7.73-22.29,11.35-.47.28-.97.59-1.5.9-4.38-7.05-10.37-17.8-17.18-32.31-8.39-17.89-13.24-31.22-15.51-38.82h0ZM1398.54,197.15l16.6-11.59c6.89-4.81,13.67-11.02,20.85-17.59,4.66-4.27,9.47-8.67,13.99-12.37.36,1.73.72,3.7,1.07,5.92,1.68,10.65,2.41,22.49,3.04,32.94.53,8.65.98,16.11,1.95,22.24,12.62,79.84,32.62,153.1,59.42,217.75l38.89,93.79,26.05-98.13c21.16-79.69,51.17-154.3,82.95-233.28l2.37-5.9c3.37-8.38,5.63-16.91,7.63-24.43.73-2.77,1.65-6.21,2.58-9.32.65.28,1.34.6,2.09.94,2.27,1.23,10.86,7.11,22.48,17.15,10.37,8.95,16.24,15.25,18.77,18.3.34,2.56.64,6.82.45,12.07-.14,3.76-.5,6.79-.88,9.06-4.7,2.56-10.48,6.49-15.52,12.8-7.42,9.29-18.92,28.38-42.2,94.05-13.71,38.68-27.22,81.34-36.17,109.56-2.62,8.28-4.89,15.43-6.61,20.73-3.5,10.8-7.73,23.45-12.21,36.84-22.53,67.36-53.38,159.62-58.11,215.37-1.23,14.51.1,29.1,1.38,43.21,1.6,17.56,2.52,30.99.47,40.72-10.4-2.89-22.02-7.1-32.72-12.77-17.48-9.25-24.65-18.28-25.49-23.21-.1-.58-.84-6.19,3.52-23.51,3.43-13.64,8.85-29.91,14.09-45.65,10.82-32.5,21.04-63.2,21-88.08v-5.59s-1.79-5.3-1.79-5.3l-107.09-318.65-22.87-68.06h0ZM2473.37,191.48c3.9,0,7.8-.3,11.6-.88,20.47-3.16,38-16.34,53.47-27.98,2.38-1.79,5.31-3.99,8.09-5.99,5.47,5.35,13.18,13.82,22.15,25.62,9.8,12.9,16.16,23.29,19.71,30.01l-4.7,7.61c-.49,0-.97-.01-1.46-.01-16.26,0-29.08,5.26-40.38,9.9-1.41.58-2.86,1.17-4.35,1.77-37.55,15.06-68.29,36.46-91.35,63.58l-8.18,9.62v195.69l48.27-21.37,41.05-18.18c7.36,7.04,15.23,15.03,21.97,23.16,13.66,16.49,15.35,24.56,15.56,26.31-.11.29-.22.56-.32.82-5.2.61-12.05,1.53-20.18,4.08-27.86,8.73-58.19,29.06-95.46,63.97l-10.87,10.18v111.8l18.76,9.56,6.58,3.35,19.71,10.04,17.3-13.78,1.54-1.23c18.54-14.78,37.6-29.97,57.13-38.84,5.17,4.47,12.45,11.36,21.18,20.82,10.18,11.02,17.04,19.79,20.9,25.31-.88,2.4-1.92,4.95-3,7.31-1.34-.1-2.74-.16-4.2-.16-3.04,0-6.12.25-9.14.74-33.76,5.51-72.96,39.34-116.92,80.27-12.29-6.21-26.84-13.64-39.92-21.21-11.66-6.76-18.3-11.43-21.98-14.34l-.74-599.18c4.02,1.22,10.67,4.36,15.37,6.57,14.21,6.7,31.9,15.04,52.85,15.04h0ZM2150.75,187.86h0c24.48,0,44.19-10.04,60.03-18.11,9.14-4.66,18.6-9.47,24.08-9.47,3.01,0,6.98,2.15,11.79,6.38,1.6,1.57,5.18,6.76,7.55,10.21,4.4,6.39,9.38,13.63,15.47,19.76,5.88,5.92,12.09,10.83,17.57,15.16,6.1,4.82,11.37,8.98,14.92,13.38,30.8,38.09,29.21,101.01,22.45,147.08-7.71,52.61-27.15,115.18-52,167.36-7.54,15.85-17.63,35.86-28.74,50.04-10.66,13.61-16.21,14.22-16.26,14.22-1.81,0-9.67-3.48-21.63-18.94l-64.66-83.53,3.16,105.59c.66,22.01.25,43.9-.19,67.08-.47,25.05-.95,50.96.05,76.8.24,6.23,1.35,13.36,2.64,21.61,1.33,8.52,2.83,18.18,3.35,26.91.02.38.04.75.06,1.11-5.16-2.65-11.59-6.3-18.99-11.1-16.16-10.47-25.58-18.95-28.22-22-1.76-4.34.81-15.94,2.89-25.34,2.01-9.08,4.29-19.38,4.88-30.22,4.6-83.8,2.52-170.46.51-254.28-1.83-76.38-3.73-155.36-.47-230.88.92-15.37-3.1-28.96-6.33-39.91-1.24-4.2-2.71-9.18-3.28-12.58.78.33,1.54.66,2.24.96,13.86,5.95,29.56,12.7,47.11,12.7h0ZM1724.41,607.51c1.45-1.43,4.4-3.76,6.66-5.55,7.1-5.62,16.83-13.31,25.47-25.27l5.13-7.1,1.1-8.69c6.86-54.05,22.21-112.79,37.05-169.59,16.16-61.83,32.87-125.77,39.58-186.45,1.65-14.95,1.24-28.19.79-38.31,3.33.55,7.32,1.31,12.08,2.34,6.61,1.43,25.76,7.22,45.87,15.12,19.75,7.76,30.34,13.52,35.61,16.85,12.87,148.28,29.78,318.94,64.6,484.73,3.03,14.45,7,28.2,10.83,41.5,6.87,23.83,13.08,45.37,12.58,65.98-4.43-1.55-9.5-3.55-15.1-6.08-14.69-6.65-24.45-13.11-28.24-16.2-.97-2.87-2.88-9.65-5.42-23.98-2.49-14.07-4.75-30.52-6.94-46.42-2.21-16.06-4.3-31.23-6.49-42.99-1.39-7.45-2.73-13.03-4.22-17.56-1.35-4.13-2.92-7.65-4.8-10.77-5.82-9.67-14.88-15.95-25.53-17.69l-7.87-1.29-7.63,2.31c-48.14,14.58-91.14,28.86-129.85,56.01l-4.31,3.02-3.21,4.18c-12.16,15.83-18,41.33-26.18,81.45-2.02,9.93-4.22,20.7-6.29,29.11-4.47-2.14-9.92-4.99-16.29-8.74-8.83-5.19-15.74-9.95-20.51-13.55.6-2.85,1.5-6.6,2.87-11.45,3.08-10.92,7.43-23.7,11.63-36.06,8.62-25.32,16.06-47.18,17.21-64.08,1.34-19.72-5.22-32.16-8.75-38.85-.38-.72-.87-1.66-1.14-2.21-.27-1.8-.32-3.01-.32-3.75h0Z"></path>
    </g>
    <path class="cls-7" d="M391.23,180.5c4.58-56.79,47.97-21.37,78.36-17.36,51.83,6.84,78.76-63.72,141.59-36.05,23.22,10.23,88.41,99.85,95.03,125.96,24.26,95.72-63.66,197.7-113.1,271.59l113.05,150.61c2.99.04,12.24-35.4,11.84-41.29-.58-8.57-7.65-14.88-9.38-23.8-8.4-43.3,27.46-37.71,37.93-66.09,14.84-114.52,63.56-240.08,75.81-352.94,1.68-15.49-4.24-61.34,8.27-67.56,6.58-3.35,13.18-2.51,20.2-2.1,21.53,1.28,127.7,35.41,133.36,54.77,13.31,147.51,25.91,298.15,54.51,443.5,1.49,7.58,8.67,52.14,13.79,52.1l209.4-400.67c-26.63,3.08-64.21,9.74-89.76,19.07-17.05,6.23-31.15,22.84-48.67,17.22-15.75-6.93-57.12-96.17-55.4-114.67,3.24-34.92,42.36-26.52,62.69-29.71,60.68-9.51,129.85-23.96,189.99-37.55,11.48-2.59,21.74-10.45,31.93-11.21,31.79-2.37,32.12,20.55,42.81,43.07,15.8-11.03,40.42-40.96,59.73-42.84,35.31-3.44,31.2,74.19,34.77,96.78,11.32,71.61,29.5,143.1,57.22,209.96,22.24-83.79,54.45-163.11,86.66-243.19,12.14-30.18,8.66-74.81,59.04-50.96,12.93,6.12,54.34,40.82,58.63,53.51,4.38,12.96,3.75,47.55-5.81,58.19-3.69,4.11-11.31,4.76-15.56,10.09-21.8,27.29-65.65,171.89-79.13,213.49-20.62,63.68-63.48,182.14-68.77,244.52-3.22,38.03,16.89,89.37-15.98,119.47-36.1-4.64-101.58-28.05-108.48-68.67-6.12-36.03,38.19-121.57,38.13-162.93l-107.09-318.65-202.76,387.53c2.25,3.66,10.17,1.32,13.95.76,22.35-3.27,72.03-12.83,92.33-19.81,26.78-9.21,32.88-37.61,60.03,1.1,16.18,23.07,35.03,91.92,26.78,118.69-1.68,5.46-10.34,14.33-14.95,18.03-28.1,22.59-36.32,3.38-63.17,3.47-26.19.08-147.64,22.03-172.92,30.89-24.99,8.76-37.62,37.17-59.82,4.08-28.93,5.57-93.18-19.76-105.8-45.83-7.95-16.43-17.98-138.39-25.53-139.5-42.1,13.42-85.21,27.55-121.73,53.07l-38.15,126.8c-15.08,8.74-60.64-21.19-74.23-31.34-38.24,66.25-62.26,28.33-82.67-22.92l-123.41-151.94,6.81,212.15c-13.48,21.65-111.31-4.2-112.53-25.98-1.17-3.61,3.44-8.17,3.44-9.72v-74.21c-13.27,15.38-20.61,35.19-32.23,51.87-18.49,26.56-46.65,69.86-83.08,58.54-167.07-51.93-182.09-282.99-168.29-428.63,6.54-69.02,44.96-265.98,133.61-272.22,50.39-3.55,143.94,84.03,143.38,138.61.08,10.67,2.88,19.4,3.3,29.68.18,4.36-.39,8.86,0,13.19.47,5.3-.77,11.49,0,16.49.67,4.38,1.26,8.99,6.56,9.89.19-3.27-.13-6.61.04-9.89,1.29-25.8,3.85-112.77-3.3-131.92-.88-2.36-.79-5.01-3.3-6.6ZM496.77,320.67v120.38c27.23-10.62,48.91-48.26,64.03-72.84,12.1-19.68,91.32-161.91,16.17-122.33-30.21,15.91-57.72,49.52-80.19,74.8ZM394.53,602.65v-178.1c-9.33,9.73-4.46,27.84-23.9,25.68-13.98-1.55-84.81-30.65-89.81-42.22-7.67-17.79,5.64-34.26,7.79-51.45,3.59-28.67,3.59-75.67-.58-104.24-.54-3.69-1.09-14.99-7.24-12.43s-23.84,33.85-27.61,41.67c-44.94,93.31-50.31,277.05-28.61,377.26,3.83,17.71,8.06,38.42,19.85,52.53,12.73,1.55,61.57-76.89,66.74-91.47,4.16-11.74,5.7-43.13,17.46-48.74,14.35-6.84,51.85,25.96,65.9,31.51ZM892.54,345.4c-18.35,60.52-29.12,126.12-42.86,187.97l66.19-21.74c-7.55-51.93-14.6-103.85-16.74-156.34-.31-7.65.26-15.42-.04-23.07h-3.22c-.97,4.38-2.04,8.89-3.34,13.18Z"></path>
    <path class="cls-11" d="M2472.31,447.64l61.68-27.31c23.46,21.29,75.72,67.69,63.3,101.2-10.91,29.45-22.06,20.03-42.72,26.51-28.88,9.05-60.35,35.74-82.26,56.26v75.86l6.58,3.35c25.15-20.04,52.49-42.16,83.91-51.18,14.24,1.28,74.21,66.17,74.6,80.69-1.57,12.35-14.72,46.78-27.96,47.66-5.16.34-10.45-3.87-19.19-2.45-32.29,5.27-91.79,65.43-116.76,87.92-20.55-11.4-95.8-45.17-101.94-65.24l-.77-621.14c30.97-57.09,67.54,3.25,108.95-3.13,23.58-3.64,53.31-39.73,69.83-38.78,18.36,1.05,78.42,79.8,76.12,99.37l-21.23,34.37-8.65,4.85c-17.77-5.68-29.36.48-45.53,6.96-29.66,11.9-57.22,29.54-77.97,53.95v130.27Z"></path>
    <path class="cls-1" d="M394.53,602.65c-14.05-5.55-51.55-38.35-65.9-31.51-11.76,5.61-13.3,37-17.46,48.74-5.17,14.59-54.02,93.03-66.74,91.47-11.79-14.11-16.02-34.82-19.85-52.53-21.69-100.21-16.32-283.96,28.61-377.26,3.77-7.82,21.52-39.14,27.61-41.67s6.7,8.75,7.24,12.43c4.16,28.57,4.16,75.56.58,104.24-2.15,17.19-15.46,33.66-7.79,51.45,4.99,11.58,75.82,40.67,89.81,42.22,19.44,2.16,14.57-15.96,23.9-25.68v178.1Z"></path>
    <path class="cls-12" d="M899.13,355.3c2.14,52.49,9.19,104.41,16.74,156.34l-66.19,21.74c13.74-61.84,24.51-127.45,42.86-187.97l6.6,9.89Z"></path>
    <path class="cls-11" d="M2049.67,829.74c-17.32,10.8-87.99-22.14-99.87-39.34-14.27-20.66-20.97-143.57-30.31-145.1-41.47,12.56-84.21,26.1-120.08,51.26-13.82,18-21.36,89.08-31.19,113.93-1.78,4.49-7.6,13.08-11.73,14.9-14.31,6.32-77.8-31.95-88.37-47.06-6.31-22.98,30.24-99.33,32.21-128.34,1.14-16.76-7.42-20.16-9.44-32.69-5.88-36.44,20.3-36.51,37.79-60.73,14.64-115.38,64.02-241.92,76.57-355.48,5.95-53.87-20.22-81.86,54.27-65.77,20.55,4.44,101.17,31.72,107.44,50.86,14.21,164.95,30.99,330.35,65.01,492.36,10.78,51.34,36.11,98.99,17.69,151.19ZM1875.36,355.3c-18.28,60.25-28.18,123.47-42.87,184.66l65.71-21.9c-7.46-51.84-14.61-103.71-16.24-156.16-.2-6.57.19-13.21-.04-19.77h-3.22c-.97,4.38-2.04,8.89-3.34,13.18Z"></path>
    <path class="cls-13" d="M1881.96,361.89c1.62,52.46,8.78,104.32,16.24,156.16l-65.71,21.9c14.69-61.18,24.6-124.41,42.87-184.66l6.6,6.6Z"></path>
    <path class="cls-11" d="M2178.82,605.95c1.43,47.7-2,95.88-.14,143.57.82,21.17,21.62,91.4-17.86,90.78-19.19-.3-77.4-38.5-87.06-55.1-13.26-22.79,1.54-50.3,2.91-75.25,8.72-158.82-6.89-325.44.03-485.09,1.22-18.63-10.89-37.52-9.82-55.44,4.03-67.39,50.42-15.93,83.88-15.93,43.6,0,73.31-52.59,118.7-12.55,8.33,7.35,16.25,23.05,24.6,31.46,10.62,10.7,24.62,18.52,34.82,31.14,69.69,86.19,18,259.98-25.24,350.81-26.78,56.27-67.36,125.82-124.82,51.59ZM2178.78,307.47v199.53c31.94-15.84,48.09-61.58,59.41-93.95,17.82-50.96,34.19-112.48,22.57-166.12-20.46-12.79-72.59,43.5-81.98,60.53Z"></path>
    <path class="cls-1" d="M2178.78,307.47c9.39-17.04,61.52-73.32,81.98-60.53,11.62,53.64-4.75,115.16-22.57,166.12-11.32,32.37-27.47,78.11-59.41,93.95v-199.53Z"></path>
    <g>
      <path class="cls-1" d="M1539.07,1272.99c-5.47,0-11.11-.8-17.23-2.44-6.63-1.78-11.84-5.51-16.03-8.5-1.24-.89-3.01-2.15-4.05-2.75-.08,0-.18,0-.28,0-2.84,0-7.28.61-11.97,1.26-6.74.93-14.38,1.99-22.2,1.99-2.15,0-4.25-.08-6.23-.25-11.78-.97-25.64-5.95-37.87-10.35-4.13-1.48-9.38-3.37-12.81-4.38-.07.05-.13.09-.19.13-3.35,2.34-7.94,5.55-13.94,7.1-22.04,5.69-64.36,6.13-76.81,6.13s-55.92-.45-78.37-6.3c-3.95-1.03-7.3-2.94-10.07-4.85-2.32,1.86-5.28,3.73-8.98,4.83-22.35,6.64-99.78,7.16-122.98,7.16-33.83,0-61.62-.9-74.34-2.41-24.5-2.9-41.23-13.95-49.92-32.92h-1.76c-7.03,17.86-24.88,29.99-49.83,32.92-21.49,2.53-62.03,4.03-108.46,4.03s-87.89-1.51-109.88-4.03c-9.76-1.12-19.65-5.76-28.42-10.41-10.68,4.74-22.76,9.59-33.97,10.57-3.35.29-6.69.44-9.95.44-16.06,0-28.07-3.54-37.73-6.38-4.67-1.37-8.81-2.59-12.48-3.11-1.26.46-2.92,1.09-4.26,1.61-7.37,2.83-16.55,6.35-24.41,7.22-4,.44-8.02.66-12.29.66-9.77,0-18.71-1.13-27.35-2.23-7.47-.95-14.53-1.84-21.19-1.84h-.27c-7.55.03-15.41.95-23.73,1.93-9.2,1.08-18.72,2.2-28.69,2.2-12.9,0-24.38-1.94-35.1-5.94-3.13-1.17-6.35-3.06-9.84-5.47-1.91,1.63-4.09,3.13-6.59,4.23-12.75,5.57-51.67,8.39-115.66,8.39-28.38,0-54.19-.68-65.76-1.72-14.54-1.32-53.17-4.82-59.58-49.71-4.71-32.99-5.52-167.72-.03-202.48,3.92-24.79,22.35-41.83,49.3-45.58,15.18-2.12,58.96-2.28,72.02-2.28,30.59,0,103.52.68,120.08,6.96,2.13.81,4.02,1.88,5.71,3.06,2.6-1.55,5.29-2.82,8.15-3.61,25.78-7.11,107.39-8.17,153.75-8.17,54.93,0,109.27,1.46,132.14,3.55,8.08.74,17.55,3.68,25.91,6.29,3.29,1.02,7.93,2.47,10.63,3.1.93-.43,2.07-.99,3.01-1.45,5.66-2.78,13.4-6.6,22.61-7.75,23.9-2.99,67.73-3.31,85.47-3.31,37.64,0,72.15,1.26,90.08,3.29,25.73,2.92,38.13,17.5,47.15,31.36,8.89-14.22,20.81-28.2,47.88-31.36,14.29-1.67,49.42-2.27,77.52-2.27,31.08,0,105.38.69,123.93,7.12,3.38,1.17,6.15,3,8.4,4.88,9.74-4.71,19.15-8.77,27.66-9.74,10.62-1.21,30.53-1.93,53.26-1.93,18.65,0,63.98.54,82.07,5.51,5.78,1.59,10.66,4.79,14.58,7.36.26.17.54.36.84.55,2.36-.9,5.35-2.11,7.79-3.11,11.02-4.48,23.51-9.55,33.38-10.8,6.93-.88,13.98-1.32,20.93-1.32,24.03,0,48.35,5.3,72.46,15.77,11.2-9,29.25-13.54,53.95-13.54,10.51,0,22.06.92,30.91,2.46,6.6,1.15,13.52,4.51,20.25,8.3,2.91-1.91,6.28-3.76,10.01-4.78,23.28-6.42,86.25-7.37,121.71-7.37,38.24,0,76.37,1.11,94.87,2.75,8.37.74,17.34,3.62,25.26,6.16,2.67.86,6.38,2.05,8.76,2.66.78-.39,1.69-.86,2.44-1.25,4.82-2.5,11.43-5.92,19.04-7.05,7.06-1.05,15.8-1.62,24.6-1.62,19.28,0,45.49,2.54,60.87,14.62,6.55,5.14,10.84,11.44,14.36,17.52,9.48-15.31,22.98-27.86,48.8-30.88,21.89-2.56,62.82-4.09,109.49-4.09s89.26,1.52,112.09,4.07c16.09,1.8,25.5,6.71,33.13,13.11,12.42-10.54,28.81-12.31,35.73-13.06,17.29-1.87,58.28-3.17,99.69-3.17,28.38,0,78.96.62,98.79,4.79,16.41,3.45,29.76,15.38,37.58,33.59,6.28,14.61,8.71,32.46,6.86,50.26-1.84,17.7-7.63,33.35-16.76,45.26-9.03,11.78-21.14,19.33-34.83,21.88-.43,13.29.33,26.76,1.07,39.91,1.9,33.95,3.7,66.02-16.34,87.21-12.48,13.2-31.17,19.62-57.11,19.62-8.01,0-16.96-.62-26.6-1.85-7.24-.92-15.17-4.22-21.55-6.87-.71-.3-1.52-.63-2.3-.95-.69.32-1.41.66-2.04.96-5.47,2.61-12.28,5.85-19.68,6.91-6.71.96-13.34,1.45-19.71,1.45-20.96,0-38.6-5.35-51.55-15.39-9.91,8.2-21.93,12.58-37.95,14.27-24.16,2.55-66.17,4.08-112.37,4.08-46.03,0-87.94-1.52-112.09-4.07-25.95-2.74-41.48-12.26-51.13-32.09l-2.06-.12c-10.66,20.09-26.17,29.4-52.1,32.21-8.3.9-15.7,1.34-22.62,1.34-26.25,0-45.13-6.66-57.71-20.37-3.79-4.13-6.93-8.81-9.43-14.08-5.83,14.33-17.86,26.91-42.2,31.52-15.32,2.9-58.16,3.05-66.59,3.05-9.31,0-32.12-.14-42.78-1.43-8.22-1-15.75-4.21-21.81-6.8-2.01-.86-4.91-2.09-6.41-2.56-3.16.49-10.61,3.05-15.66,4.78-8.73,3-17.75,6.09-25.42,7.01-5.15.62-10.39.93-15.58.93-23.25,0-44.2-6.17-65.03-13.69-2.27,1.75-4.46,3.58-6.73,5.47-10.38,8.66-22.14,18.47-41.36,18.47ZM1539.38,1194.03l5.78-4.92-13.65-16.45,7.03-10.63c18.71-28.3,20.82-63.58,5.51-92.07-14-26.05-39.32-40.99-69.47-40.99-3.21,0-6.51.17-9.81.51-29.35,2.99-53.64,21.59-64.98,49.75-11.59,28.79-6.84,59.71,12.7,82.74,15.75,18.56,35.69,27.58,60.94,27.58,11.93,0,25.15-2.06,39.3-6.12l7.72-2.21,18.93,12.81ZM1596.35,1161.23c.49,1.98,4.27,8.08,13.39,15.39,9.35,7.5,17.82,11.15,20.96,11.69,7.39,1.27,14.42,1.92,20.91,1.92,33.53,0,51.57-16.59,55.17-50.72,1.4-13.32,2.5-84.2,1.13-108.17-1.34-.12-2.96-.19-4.87-.19-3.21,0-6.16.21-8.62.51-.58,12.39.28,36.03.88,52.84,1.23,34.2,1.82,55.78-.45,67.11-3.78,18.87-21.77,31.54-44.75,31.54s-41.02-12.68-44.8-31.55c-2.27-11.33-1.68-32.9-.45-67.09.57-15.82,1.36-37.69.97-50.54l-9.47-.71v127.97ZM2492.05,1185.56v-145.12h46.17v-5.22h-150.63l-2.02,117.97-28.37-27.1c-7.26-6.94-16.5-20.7-30.97-42.59-10.65-16.1-30.08-45.48-38.12-52.01-.38-.02-.84-.03-1.37-.03-.36,0-.72,0-1.1.02v154.08h8.52v-131.25l93.85,128.94,12.8,1.13c1.84-22.34.86-50.07-.08-76.99-.63-17.82-1.22-34.66-1.03-49.97l.23-18.75,83.59,8.36v138.54h8.52ZM2241.4,1185.56v-5.22h-60.59l-4.97-4.72c-7.28-6.92-11.36-17.74-11.19-29.69.17-11.7,4.38-22.1,11.55-28.53l4.9-4.39h51.61l-.98-8.52h-50.5l-4.85-4.24c-7.4-6.47-11.65-16.59-11.65-27.78s4.25-21.31,11.65-27.78l4.85-4.24h58.08l-.98-8.52h-81.3v153.63h84.38ZM2109.47,1185.56v-154.19c-1.78-.21-3.91-.35-6.33-.35-4.16,0-7.5.4-9.73.82l-60.58,97.67-61.52-97.04-15.47-.26v153.35h8.52v-142.27l67.6,102.43c6.18-9.7,13.37-22.45,17.28-29.38,5.69-10.09,9.33-16.5,12.16-20.55,4.59-12.03,15.5-12.99,18.83-12.99,2.26,0,4.65.31,7.5.99l13.23,3.12v98.66h8.52ZM1822.54,1185.56v-59.37h60.98c5.31-3.08,16-9.9,18.8-12.05,15.8-15.51,14.95-37.14,8.85-52.29-5.83-14.47-19.43-29.92-40.11-29.92h-57.03v153.63h8.52ZM1763.18,1185.56v-153.63h-8.52v153.63h8.52ZM1360.81,1185.56v-5.22h-68.52l-10.1-67.34h72.83c.31-2.71.32-5.81.02-8.52h-70.08v-64.04h73.76l-.98-8.52h-81.3v153.63h84.38ZM1182.72,1185.56v-5.22h-72.56v-67.34h65.96v-8.52h-65.96v-64.04h72.56v-8.52h-81.08v153.63h81.08ZM1050.79,1185.56v-154.12c-2.12-.24-4.7-.41-7.7-.41-3.91,0-6.98.29-8.89.58-4.98,6.65-15.53,25.6-22.1,37.39-5.39,9.68-10.48,18.82-14.77,25.88-5.81,9.55-11.83,19.43-23.36,19.43h-9.45l-51.39-81.07-15.98-.63v152.95h8.52v-142.88l67.81,104.04,68.79-108.87v147.71h8.52ZM856.21,1185.56v-5.22h-75.86v-67.34h65.96v-8.52h-65.96v-64.04h72.56v-8.52h-81.08v153.63h84.38ZM719.37,1185.56l-30.74-57.37,15.51-8c20.88-10.76,25.16-33.27,22.49-49.28-2.51-15.04-12.42-32.16-32.7-35.69h-212.37v5.22h46.21v145.12h11.82v-145.12h80.32l.21,16.97c.26,21.17.11,42.65-.04,63.42-.15,20.88-.3,42.47-.03,63.6,0,.38,0,.76,0,1.13h11.89v-56.04l13.54-2.94c3.18-.69,6.37-1.04,9.47-1.04,30.46,0,44.06,30.35,53.99,52.5,1.17,2.6,2.3,5.14,3.41,7.51h7.02ZM445.03,1185.56l-43.19-77.23,42.3-73.1h-13.21l-39.93,62.19-37.17-65.49h-136.08v153.63h138.26l41.14-65.08,39.06,65.08h8.81Z"></path>
      <path class="cls-7" d="M2189.62,974.5c43.26,0,86.75,1.35,110.18,3.97,20.4,2.28,24.7,9.66,37.86,23.09,4.22-17,19.3-21.36,34.76-23.03,16.89-1.82,57.59-3.07,97.84-3.07s80.16,1.25,95.25,4.42c45.24,9.51,42.53,117.98-14.18,117.98-1.78,0-3.61-.11-5.49-.33-7.92,70.88,27.95,146.1-56.33,146.1-7.23,0-15.33-.55-24.43-1.71-8.67-1.1-22.71-8.82-26.11-8.82-.04,0-.07,0-.11,0-4.71.26-15.17,7.65-23.94,8.9-5.56.79-11.41,1.27-17.29,1.27-20.41,0-41.18-5.76-51.68-23.99-10.18,15.5-21.02,20.99-39.63,22.96-25.07,2.65-67.81,3.98-110.56,3.98s-85.12-1.32-110.29-3.98c-22.91-2.42-33.82-9.57-41.08-31.5l-24.72-1.5c-8.43,22.26-19.35,30.42-43.16,33-7.4.8-14.33,1.24-20.77,1.24-39.99,0-61-16.82-56.71-67.14l-22.62,7.03c1.12,28.79-.83,51.35-33.2,57.48-9.71,1.84-38.14,2.75-63.39,2.75-17.54,0-33.54-.44-40.7-1.31-11.06-1.34-22.8-9.43-29.63-9.55-.07,0-.14,0-.21,0-9.31,0-31.37,10.53-43.57,11.99-4.61.55-9.12.81-13.54.81-23.59,0-44.9-7.27-67.48-15.72-17.89,11.06-26.29,25.97-45.64,25.97-3.79,0-7.99-.57-12.77-1.85-7.61-2.04-14.56-10.76-21.59-11.66-.99-.13-2.07-.18-3.22-.18-8.78,0-21.92,3.26-34.17,3.26-1.63,0-3.24-.06-4.82-.19-16.93-1.39-44.46-14.94-53.76-15.44-.09,0-.18,0-.27,0-4.84,0-10.19,6.81-16.49,8.44-14.46,3.73-43.43,5.59-72.51,5.59s-59.36-1.92-74.04-5.75c-5.09-1.33-10.64-8.21-14.77-8.48-.13,0-.26-.01-.38-.01-5.29,0-8.2,7.16-13.12,8.62-15.25,4.53-70.13,6.45-118.09,6.45-31.5,0-60-.83-72.32-2.29-21-2.49-34.75-11.93-39.69-33.07l-27.89.06c-.5,20.93-18.88,30.76-37.96,33-22.33,2.62-64.33,3.92-106.46,3.92s-85.28-1.32-107.92-3.92c-11.91-1.37-28.06-12.23-29.68-12.23h0c-1.94.02-22.01,11.1-36.17,12.35-2.96.26-5.77.38-8.45.38-23.35,0-36.74-8.88-51.58-9.7-.03,0-.06,0-.08,0-3.09,0-19.6,8.09-29.1,9.15-3.52.39-6.99.55-10.39.55-17.04,0-32.74-4.08-48.55-4.08-.11,0-.23,0-.34,0-17.29.06-34.66,4.13-52.36,4.13-9.59,0-19.27-1.19-29.1-4.86-5.26-1.96-16.45-11.66-17.53-11.66,0,0,0,0,0,0-2.54.07-7.39,8.86-11.77,10.78-11.93,5.21-63.98,6.96-108.78,6.96-28.25,0-53.62-.69-64.21-1.65-23.86-2.16-40.43-9.13-44.13-35.03-4.61-32.27-5.05-165.84-.06-197.37,2.94-18.56,16.86-28.77,34.71-31.25,9.69-1.35,37.99-2.12,69.64-2.12,47.76,0,103.18,1.74,114,5.84,4.17,1.58,8.68,8.5,10.61,8.55,0,0,0,0,0,0,1.21,0,8.85-7.21,13.91-8.61,20.16-5.56,85.59-7.56,149.17-7.56,55.18,0,108.97,1.5,130.59,3.47,12.01,1.1,32.02,9.74,39.15,9.74.13,0,.26,0,.38,0,5.34-.26,15.16-8.21,26.33-9.61,17.29-2.16,50.12-3.18,83.33-3.18s69.85,1.11,88.15,3.18c29.5,3.34,33.72,26.19,49.48,46.09,15.85-21.7,18.52-42.48,49.47-46.1,11.43-1.34,41.9-2.15,75.52-2.15,49.37,0,105.55,1.75,118.31,6.17,4.35,1.51,8.02,8.23,11.13,8.81.02,0,.05,0,.08,0,2.16,0,21.41-11.59,32.42-12.84,9.99-1.14,29.87-1.82,51.32-1.82,30.79,0,64.82,1.41,77.52,4.9,6.65,1.83,14.17,9.52,18.78,9.52.08,0,.15,0,.22,0,5.57-.32,31.11-13.37,44.29-15.04,6.32-.8,12.58-1.19,18.77-1.19,27.16,0,53.01,7.44,77.44,19.94,5.06-13.96,28.22-17.71,48.98-17.71,11.02,0,21.36,1.06,27.96,2.21,8.54,1.49,22.55,11.42,23.88,11.42,0,0,0,0,0,0,1.99,0,8.79-6.86,13.88-8.27,18.1-4.99,68.87-6.76,117.15-6.76,38.83,0,76.05,1.15,93.35,2.68,12.19,1.08,29.74,9.21,36.74,9.24,0,0,.01,0,.02,0,4.95,0,13.81-7.51,22.78-8.84,5.86-.87,13.66-1.44,22.08-1.44,18.41,0,39.78,2.72,50.27,10.95,12.09,9.49,14.61,28.24,27.89,36.36,11.13-24.19,18.54-42.74,47.88-46.17,22.86-2.67,65.07-3.97,107.49-3.97M1473.44,1206.73c14.3,0,29.12-2.51,44.04-6.79l23.09,15.63,28.65-24.38-16.34-19.69c45.27-68.45,3.28-159.71-78.29-159.71-3.77,0-7.62.19-11.56.6-77.18,7.87-113.59,101.84-63.63,160.7,20.55,24.21,46.3,33.64,74.04,33.64M2032.67,1097.18l-51.82-81.73-42.2-.71v187.99h42.87v-102.24l47.88,72.55c.17.04.35.06.53.06,10.16,0,38.59-58.55,46.24-68.46,1.73-2.23.7-4.67,4.03-4.67.86,0,2,.16,3.55.53v102.24h42.88v-183.04c-3.92-4.07-13.82-5.84-23.51-5.84-8.79,0-17.41,1.46-21.24,3.97l-49.23,79.36M973.98,1097.13l-51.16-80.7-42.84-1.69v187.99h42.88v-102.24l45.9,70.43,8.33,2.26,48.01-75.98v105.54h42.88v-183.04c-3.34-4.15-14.58-5.84-24.88-5.84-7.82,0-15.1.97-17.97,2.57-9.56,5.32-45.35,80.71-51.15,80.71M1650.11,1165.96c-12.79,0-25.59-5.92-27.96-17.74-4.41-22.05,5.23-120.67-1.54-130.38l-41.43-3.09v146.76c0,16.9,32.21,40.9,48.62,43.73,8.31,1.43,16.28,2.17,23.82,2.17,39.55,0,67.42-20.19,72.25-66.1,1.66-15.79,3.22-111.2-.05-121.14-1.47-4.47-10.86-6.2-20.78-6.2-9.52,0-19.52,1.59-23.49,3.88-6.78,9.72,2.88,108.32-1.54,130.38-2.37,11.84-15.14,17.74-27.91,17.74M2272.31,1014.92c-1.31,0-2.59-.05-3.84-.17v187.99h42.88v-95.64l67.39,92.57,34.86,3.07c4.53-.38,3.05-4.84,3.45-8.06,4.83-38.87-.66-95.68-.15-137.06l49.47,4.95v140.17h42.88v-145.12h46.17v-39.58h-184.69l-1.63,95.63c-15.8-15.1-60.1-95.58-75.95-98.83-2.01-.41-4.15-.55-6.37-.55-4.71,0-9.75.63-14.44.63M2139.84,1202.74h118.73v-39.58h-70.91c-7.99-7.59-7.59-26.17,0-32.98h64.31l-4.95-42.87h-59.37c-7.69-6.72-7.69-22.96,0-29.68h70.91l-4.95-42.88h-108.84l-4.95,4.95v183.04M1796.85,1202.74h42.87v-59.37h47.82c1.55,0,23.6-13.88,26.35-16.53,39.72-38.21,10.87-112.1-42.84-112.1h-74.21v187.99M1737.48,1202.74h42.88v-187.99h-42.88v187.99M1259.26,1202.74h118.73v-39.58h-70.91l-4.95-32.98h64.31c8.09-9.53,7.85-33.98,0-42.87h-64.31v-29.68h75.86l-4.95-42.88h-108.84l-4.95,4.95v183.04M1084.46,1202.74h115.43v-39.58h-72.56v-32.98h65.96v-42.87h-65.96v-29.68h72.56v-42.88h-115.43v187.99M754.66,1202.74h118.73v-39.58h-75.86v-32.98h65.96v-42.87h-65.96v-29.68h72.56v-42.88h-115.43v187.99M200.58,1202.74h164.9l31.3-49.51,29.72,49.51h47.82l-52.72-94.26,42.79-73.94.03,23.09h46.17v145.12h46.17v-145.12h46.17c.52,42.28-.61,84.71-.06,127.03.07,5.61-2.09,14.6,3.36,18.08h42.87v-59.37c2.03-.44,3.97-.65,5.83-.65,25.74,0,35.22,40.19,46.94,60.01h46.17l-36.05-67.28c50.75-26.17,39.78-109.15-16.72-117.41h-273.74l-29.64,46.16-28.08-49.46h-158.31l-4.95,4.95v183.04M498.55,906.91l-20.1,34.74c-39.74,1.35-66.6,3.91-80.19,7.66-1.11.31-2.2.65-3.25,1.03-6.15-2.33-15.92-4.94-53.74-6.64-20.43-.91-46.13-1.42-72.39-1.42-17.09,0-58.55.24-74.39,2.45-34.32,4.78-58.81,27.74-63.9,59.91-3.71,23.44-4.02,80.42-3.99,103.83.06,37.11,1.13,83.85,3.98,103.77,3.13,21.92,12.88,38.67,28.97,49.81,15.51,10.73,33.72,13.46,46.07,14.58,12.04,1.09,38.46,1.79,67.31,1.79,18.01,0,44.52-.27,68.57-1.57,35.01-1.89,46.61-5.06,53.86-8.21,1.2.57,2.42,1.09,3.66,1.55,12.67,4.72,26.11,7.02,41.1,7.02,10.98,0,21.46-1.23,30.7-2.32,7.82-.92,15.2-1.79,21.79-1.81h.21c5.58,0,12.12.83,19.03,1.71,8.75,1.11,18.66,2.37,29.52,2.37,4.91,0,9.55-.25,14.18-.76,9.16-1.02,18.2-4.25,28.2-8.08,1.87.49,4.01,1.12,6.21,1.76,10.15,2.99,24.05,7.08,42.58,7.08,3.76,0,7.61-.17,11.45-.51,10.95-.96,21.85-4.61,31.86-8.73,8.3,3.98,17.41,7.42,27.07,8.53,22.6,2.59,64.41,4.14,111.83,4.14s88.35-1.55,110.47-4.15c16.51-1.94,31.28-7.56,42.73-16.26,2.18-1.66,4.23-3.42,6.15-5.27,1.71,1.67,3.51,3.26,5.4,4.76,11.42,9.08,25.96,14.73,43.22,16.77,19.78,2.34,63.45,2.52,76.36,2.52,26.18,0,52.1-.56,72.97-1.57,35.66-1.72,48.07-4.28,54.9-6.3,1.57-.47,3.06-1.01,4.46-1.61,1.68.68,3.47,1.29,5.37,1.79,23.76,6.19,65.75,6.86,82.7,6.86s57.75-.65,81.1-6.68c4.76-1.23,8.84-3.09,12.2-4.98,1.59.56,3.2,1.14,4.64,1.66,13.23,4.76,28.23,10.15,42.27,11.3,2.44.2,5.01.3,7.64.3,9,0,17.62-1.19,24.55-2.15,1.59-.22,3.46-.48,5.16-.69,4.73,3.36,11.51,7.88,20.36,10.25,7.59,2.04,14.68,3.03,21.68,3.03,24.79,0,40.2-12.33,51.48-21.73,19.38,6.54,39.28,11.48,61.64,11.48,5.87,0,11.8-.35,17.63-1.05,9.47-1.14,19.38-4.53,28.95-7.82,2.67-.91,6.18-2.12,8.99-3,.26.11.51.22.76.32,6.68,2.85,15.83,6.76,26.48,8.05,11.17,1.36,32.89,1.56,44.85,1.56s53.38-.24,69.79-3.35c18.07-3.42,30.65-10.69,39.42-19.02,8.22,7.74,18.28,13.52,29.98,17.21,10.73,3.39,22.75,5.03,36.75,5.03,7.54,0,15.55-.47,24.47-1.44,11.77-1.28,29.18-4.32,44.45-15.94,2.26-1.72,4.41-3.57,6.44-5.55,2.33,2.35,4.81,4.51,7.45,6.47,14.69,10.92,31.75,13.81,43.3,15.03,25.09,2.65,66.6,4.17,113.9,4.17s89.44-1.56,114.17-4.17c14.58-1.54,26.09-4.92,36.24-10.64.03-.02.06-.04.1-.05,14.27,7.81,31.65,11.91,51.37,11.91,7.18,0,14.63-.54,22.15-1.62,7.56-1.08,14.25-3.65,19.73-6.11,6.36,2.55,13.66,5.14,21.24,6.1,10.35,1.32,20.03,1.98,28.76,1.98,14.66,0,27.19-1.8,38.31-5.5,12.44-4.14,22.97-10.7,31.28-19.49,25.12-26.57,23.03-63.89,21.01-99.98-.48-8.64-.98-17.42-1.12-26.1,12.11-4.9,22.82-13.12,31.36-24.26,11.06-14.42,18.05-33.07,20.22-53.93,2.15-20.68-.75-41.57-8.16-58.83-10.09-23.5-27.79-38.99-49.84-43.63-20.28-4.26-66.83-5.16-102.32-5.16s-80.62,1.01-101.53,3.27c-8.69.94-21.57,2.94-33.72,9.42-7.94-4.46-17.93-7.96-31.39-9.47-23.43-2.62-66.04-4.18-114-4.18-22.71,0-79.04.41-111.48,4.2-18.84,2.2-34.12,8.9-46.49,20.41-1.28-1.19-2.63-2.36-4.07-3.49-9.33-7.33-21.41-12.33-36.94-15.29-12.98-2.48-25.95-3-34.54-3-9.62,0-19.25.64-27.11,1.81-8.3,1.23-15.32,4.23-20.64,6.86-.65-.21-1.27-.41-1.84-.59-8.34-2.67-18.72-6-28.99-6.92-18.96-1.69-57.69-2.82-96.39-2.82-26.86,0-51.63.54-71.64,1.55-34.37,1.75-47.64,4.51-54.64,6.44-1.94.54-3.78,1.19-5.52,1.92-5.52-2.63-11.26-4.76-17.22-5.8-9.91-1.73-22.25-2.72-33.86-2.72-15.4,0-28.92,1.7-40.18,5.05-5.95,1.77-11.09,3.94-15.53,6.39-23.48-9.08-47.18-13.67-70.71-13.67-7.67,0-15.44.49-23.09,1.46-11.11,1.41-22.98,5.96-37.31,11.78-3.56-2-7.78-3.98-12.56-5.3-19.39-5.33-62.6-6.12-86.62-6.12s-43.98.76-55.21,2.04c-8.19.93-16.32,3.74-24.51,7.32-1.26-.59-2.59-1.13-3.99-1.62-7.07-2.45-18.65-4.95-55.12-6.6-20.79-.94-47.22-1.46-74.44-1.46-28.59,0-64.48.63-79.51,2.38-21.52,2.52-35.81,10.97-45.97,20.88-10.18-9.99-24.28-18.52-45.13-20.89-18.8-2.13-53.2-3.4-92.02-3.4-18.06,0-62.74.34-87.6,3.45-10.34,1.29-18.88,4.95-25.12,7.95-1.36-.41-2.74-.84-3.9-1.2-9.17-2.85-19.57-6.09-29.45-6.99-23.33-2.13-78.31-3.62-133.71-3.62-21.31,0-40.64.19-57.97.57l-.05-34.18h0ZM1473.44,1172.37c-20.18,0-35.38-6.84-47.84-21.52-7.83-9.22-12.6-19.86-14.19-31.63-1.51-11.18-.01-22.78,4.33-33.57,8.91-22.14,27.9-36.75,50.79-39.08,2.73-.28,5.44-.42,8.07-.42,12.29,0,23.37,3,32.94,8.92,8.84,5.47,16.23,13.43,21.39,23.02,5.8,10.79,8.6,23.15,8.08,35.75-.55,13.5-4.97,26.88-12.79,38.71l-7.93,11.99-8.29,2.38c-12.61,3.62-24.24,5.45-34.57,5.45h0ZM1831.2,1049.1h39.85c12.13,0,20.45,9.9,24.18,19.17,3.91,9.71,4.77,23.25-4.17,32.81-2.61,1.83-8.01,5.3-12.3,7.94h-47.57v-59.91h0ZM234.93,1049.1h108.9l18.2,32.07,18.76,33.05-13.05,20.65-21.18,33.51h-111.62v-119.28h0ZM637.24,1052.4h55.01c12.99,3.01,16.52,15.79,17.45,21.34,1.72,10.31-.76,24.66-13.42,31.19l-17.04,8.79c-8.89-4.13-17.38-5.34-24.29-5.34-4.32,0-8.73.48-13.1,1.43l-4.51.98c.11-17.65.19-35.69-.03-53.57l-.06-4.8h0ZM2091.77,1067.08l.53-.85v.97l-.53-.12h0Z"></path>
    </g>
    <path class="cls-7" d="M602.94,1057.62h-46.17v145.12h-46.17v-145.12h-46.17l-.04-23.09-42.79,73.94,52.72,94.26h-47.82l-29.72-49.51-31.3,49.51h-164.9v-183.04l4.95-4.95h158.31l28.08,49.46,29.64-46.16,181.41-.02c.1,13.15-.18,26.44-.02,39.59ZM319.31,1057.62h-75.86v29.68h64.31c7.85,8.89,8.09,33.34,0,42.87h-64.31l4.95,32.98h70.91l3.32,24.77,45.99-79.14-45.99-82.53-3.31,31.37Z"></path>
    <path class="cls-7" d="M1067.97,1202.74h-42.87v-105.54l-48.01,75.98-8.33-2.26-45.9-70.43v102.24h-42.87v-187.99l42.84,1.69,51.16,80.7c5.8,0,41.59-75.39,51.15-80.71,6.65-3.7,36.96-4.04,42.84,3.27v183.04Z"></path>
    <path class="cls-7" d="M1938.66,1014.75l42.2.71,51.82,81.73,49.23-79.36c8.05-5.28,37.27-5.9,44.75,1.87v183.04h-42.87v-102.24c-7.6-1.79-5.42,1.34-7.59,4.15-7.79,10.08-37.1,70.57-46.77,68.4l-47.88-72.55v102.24h-42.87v-187.99Z"></path>
    <path class="cls-7" d="M2413.58,1202.74l-34.86-3.07-67.38-92.57v95.64h-42.87v-187.99c7.81.79,17.2-1.43,24.65.09,15.85,3.25,60.15,83.74,75.95,98.83l1.63-95.63,42.89-.02-.02,184.71Z"></path>
    <path class="cls-7" d="M695.29,1018.04c56.5,8.26,67.48,91.25,16.72,117.41l36.05,67.28h-46.17c-12.56-21.26-22.56-65.91-52.77-59.37v59.37h-42.87l-.02-184.71c27.6,2.9,62.48-3.87,89.07.02ZM649.12,1103.79c36.45,6.77,74.54-9.84,40.57-45.52l-40.57-.65v46.17Z"></path>
    <path class="cls-8" d="M1579.17,1014.75l41.44,3.09c6.77,9.71-2.87,108.33,1.54,130.38,4.73,23.62,51.12,23.7,55.87,0,4.42-22.06-5.24-120.66,1.54-130.38,8.1-4.67,41.38-6.44,44.27,2.32,3.27,9.94,1.71,105.36.05,121.14-5.76,54.66-44.18,72.87-96.08,63.93-16.41-2.82-48.62-26.82-48.62-43.73v-146.76Z"></path>
    <path class="cls-8" d="M2258.58,1057.62h-70.91c-7.69,6.72-7.69,22.96,0,29.68h59.37l4.95,42.87h-64.31c-7.59,6.81-7.99,25.39,0,32.98h70.91v39.58h-118.73v-183.04l4.95-4.95h108.84l4.95,42.87Z"></path>
    <path class="cls-8" d="M1377.99,1057.62h-75.86v29.68h64.31c7.85,8.89,8.09,33.34,0,42.87h-64.31l4.95,32.98h70.91v39.58h-118.73v-183.04l4.95-4.95h108.84l4.95,42.87Z"></path>
    <polygon class="cls-7" points="870.09 1014.75 870.09 1057.62 797.53 1057.62 797.53 1087.3 863.49 1087.3 863.49 1130.18 797.53 1130.18 797.53 1163.16 873.39 1163.16 873.39 1202.74 754.66 1202.74 754.66 1014.75 870.09 1014.75"></polygon>
    <polygon class="cls-7" points="1199.89 1014.75 1199.89 1057.62 1127.34 1057.62 1127.34 1087.3 1193.3 1087.3 1193.3 1130.18 1127.34 1130.18 1127.34 1163.16 1199.89 1163.16 1199.89 1202.74 1084.46 1202.74 1084.46 1014.75 1199.89 1014.75"></polygon>
    <path class="cls-7" d="M1839.72,1143.37v59.37h-42.87v-187.99h74.21c53.71,0,82.56,73.89,42.84,112.1-2.75,2.64-24.79,16.53-26.35,16.53h-47.82ZM1839.72,1103.79c36.3,7.27,69.79-12.79,37.28-45.52l-37.28-.65v46.17Z"></path>
    <path class="cls-8" d="M2555.4,1018.04v39.58h-46.17v145.12h-42.87v-140.17l-49.47-4.95c.16-13.16-.12-26.44-.02-39.59l138.54.02Z"></path>
    <rect class="cls-8" x="1737.48" y="1014.75" width="42.87" height="187.99"></rect>
    <path class="cls-7" d="M695.29,1018.04c-26.58-3.89-61.46,2.88-89.07-.02l.02,184.71c-5.45-3.49-3.29-12.47-3.36-18.08-.54-42.32.58-84.75.07-127.03-.16-13.16.12-26.44.02-39.59l-181.41.02h273.74Z"></path>
    <path class="cls-7" d="M2555.4,1018.04l-138.54-.02c-.1,13.16.18,26.44.02,39.59-.51,41.38,4.98,98.19.15,137.06-.4,3.21,1.09,7.68-3.45,8.06l.02-184.71-42.89.02h184.69Z"></path>
    <path class="cls-12" d="M319.31,1057.62l3.31-31.37,45.99,82.53-45.99,79.14-3.32-24.77h-70.91l-4.95-32.98h64.31c8.09-9.54,7.85-33.98,0-42.87h-64.31v-29.68h75.86Z"></path>
    <path class="cls-7" d="M1463.03,1012.39c89.06-9.08,137.2,87.5,89.84,159.12l16.34,19.69-28.65,24.38-23.09-15.63c-43.86,12.58-86.93,9.83-118.08-26.86-49.96-58.85-13.55-152.83,63.63-160.7ZM1523.07,1136.76c37.58-101.23-122.85-112.9-101.44-9,5.25,25.46,37.57,40.15,61.88,38.68l-22.43-31.35,27.88-24.41,34.1,26.08Z"></path>
    <path class="cls-12" d="M1523.07,1136.76l-34.1-26.08-27.88,24.41,22.43,31.35c-24.31,1.47-56.63-13.22-61.88-38.68-21.41-103.91,139.01-92.23,101.44,9Z"></path>
    <path class="cls-14" d="M649.12,1103.79v-46.17l40.57.65c33.96,35.68-4.12,52.29-40.57,45.52Z"></path>
    <path class="cls-14" d="M1839.72,1103.79v-46.17l37.28.65c32.51,32.73-.97,52.79-37.28,45.52Z"></path>
    <path class="cls-10" d="M1881.96,361.89l-6.6-6.6c1.3-4.28,2.38-8.8,3.34-13.17h3.22c.22,6.55-.17,13.2.04,19.76Z"></path>
    <path class="cls-1" d="M899.13,355.3l-6.6-9.89c1.3-4.28,2.38-8.8,3.34-13.17h3.22c.3,7.64-.28,15.41.04,23.06Z"></path>
    <path class="cls-7" d="M391.23,302.53c-.39-4.33.18-8.83,0-13.19h3.3c-.09,4.4,1.62,10.79-3.3,13.19Z"></path>
    <path class="cls-7" d="M397.83,319.02h-6.6c-.77-5,.47-11.19,0-16.49,4.92-2.4,3.2-8.79,3.3-13.19.72-34-.53-68.23,0-102.24,7.15,19.16,4.59,106.12,3.3,131.92Z"></path>
    <path class="cls-12" d="M496.77,320.67c22.48-25.28,49.99-58.89,80.19-74.8,75.16-39.58-4.07,102.66-16.17,122.33-15.12,24.58-36.8,62.22-64.03,72.84v-120.38Z"></path>
    <path class="cls-9" d="M397.83,319.02c-.16,3.28.16,6.62-.04,9.89-5.3-.9-5.89-5.51-6.56-9.89h6.6Z"></path>
    <path class="cls-7" d="M394.53,187.09c-.53,34.01.72,68.24,0,102.24h-3.3c-.42-10.28-3.22-19.01-3.3-29.68-.17-23.19,1.34-54.89,3.3-79.15,2.51,1.59,2.42,4.23,3.3,6.6Z"></path>
  </g>
  <g id="Layer_2" data-name="Layer 2">
    <g>
      <path class="cls-1" d="M3354.76,1264.19c-40.01,0-80.4-12.27-120.04-36.48-25.57-15.62-50.37-34.94-75.63-58.95v29.18l-23.97-17.88c-42.93-32.03-73.55-67.84-92.73-108.64-4.8,4.61-10.77,7.14-17.4,7.14-5.77,0-14.42-2.04-22.81-11.74-10.74-12.43-19.97-26.55-26.7-40.83-17.78-37.75-27.89-80.75-30.88-131.3-8.09-1.44-16.46-2.94-24.75-5.04-60.91-15.51-94-53.59-111.03-82.81-24.27-41.61-31.65-92.56-19.76-136.28.86-3.16,1.89-6.39,3.16-9.89,14.45-40.52,44.75-63.79,83.12-63.79,11.19,0,22.88,2.02,34.75,6.02,5.01,1.68,9.79,3.64,14.42,5.71-3.74-36.58-4.21-71.59-1.37-104.39,3.69-42.66,13.06-82.94,27.87-119.72,15.32-38.04,36.89-73.46,64.12-105.26,27.87-32.55,62.49-62.27,102.89-88.33l23.13-14.92v26.23c13.69-16.13,29.14-29.7,43.73-41.57,61.77-50.27,130.84-91.37,205.31-122.15,8.66-3.58,17.25-6.01,26.34-8.59,4-1.13,8.14-2.31,12.27-3.58l19.43-6v20.34c0,34.17,8.5,65.08,26.57,96.01l26.05-27.04,10.8,10.81c31.71,31.73,66.94,66.99,84.88,114.9,4.12-5.46,24.31-32.21,24.31-32.21l12.05,15.13c52.69,66.16,87.91,130.48,107.66,196.64,18.76,62.84,22.99,127.79,12.65,193.47,9.68-4.89,19.68-9.59,30.26-13.27,12.07-4.2,23.68-6.32,34.5-6.32,39.34,0,61.93,27.64,73.95,50.83,15.83,30.53,22.47,64.29,19.23,97.62-3.28,33.64-16.39,64.38-37.92,88.89-24.62,28.03-57.8,46.09-101.45,55.19,9.61,42.55,2.33,81.64-21.73,116.39l-17.8,25.72-6.13-20.61c-6.27,20.34-17.13,39.6-36.38,56.23l-20.24,17.48-2.76-16.67c-4.69,11.27-9.62,22.61-14.99,33.8-16.09,33.55-34.26,58.82-57.18,79.51l-20.09,18.13s-5.85-32.94-6.39-35.95c-29,26.39-60.9,53.33-97.74,74.99-38.18,22.46-77.08,33.84-115.63,33.85Z"></path>
      <path class="cls-7" d="M3433.25,40.67c0,46.11,14.81,84.73,39.14,120.14,9.31-9.66,18.45-19.15,28.67-29.75,40.35,40.38,78.17,79.33,89.29,137.44,10.11-13.4,20.02-26.56,30.84-40.88,96.51,121.18,146.37,253.71,111.55,408.05l.05-.03c18.17-8.76,36.19-19.59,55.63-26.34,10.58-3.68,20.43-5.49,29.57-5.49,25.89,0,46.03,14.57,60.63,42.73,29.5,56.91,23.02,124.54-16.65,169.7-24.94,28.4-57.51,43.04-93.82,50.53-4.83,1-9.68,1.87-15.08,2.91,13.59,42.57,10.33,82.42-15.34,119.51-5.05-16.98-9.9-33.33-14.76-49.68-.99.07-1.97.12-2.96.18-1.74,39.8-6.05,78.62-40.06,108.01-2.66-16.05-5.06-30.47-7.09-42.64-10.96,26.31-21.53,54.82-34.62,82.12-13.07,27.26-29.3,52.83-53.7,74.86-2.29-12.89-4.2-23.65-6.37-35.9-5.16,4.6-9.64,8.51-14.02,12.52-31.61,29.05-64.17,56.88-101.37,78.76-36.14,21.25-72.14,31.78-108.02,31.78s-74.93-11.51-112.22-34.28c-28.68-17.52-54.39-38.71-78.39-62.09-6.54-6.35-12.85-12.92-20.06-20.19v35.42c-49.63-37.02-86.23-81.73-102.34-142.04-.27,1.96-.5,3.91-.82,5.85-1.05,6.28-1.49,12.77-3.34,18.8-2.56,8.35-7.22,12.91-12.59,12.91-3.65,0-7.61-2.1-11.46-6.56-9.68-11.2-18.17-24.02-24.47-37.41-19.47-41.35-27.55-85.56-29.75-130.99-.1-2.19-.23-4.4-.37-6.55-12.02-2.32-23.85-4.03-35.38-6.95-102.24-26.04-139.65-128.4-120.01-200.61.8-2.94,1.76-5.87,2.79-8.74,12.4-34.76,37.44-53.87,69.01-53.87,9.46,0,19.5,1.71,29.97,5.24,13.27,4.46,25.71,11.45,37.42,16.76-25.74-179.23,23.78-327.4,183.42-430.36v49.88c-.28.08-.3.13-.22.13.09,0,.32-.07.37-.21,14.68-33.73,40.28-58.43,68.04-81.01,61.26-49.86,128.58-89.76,201.58-119.93,11.6-4.8,24-7.59,37.31-11.7M3463.25,0l-38.86,12.01c-3.96,1.22-8.01,2.37-11.93,3.48-9.11,2.58-18.52,5.24-27.99,9.16-75.81,31.33-146.14,73.18-209.05,124.38-6.33,5.15-12.81,10.6-19.26,16.44v-17l-46.26,29.84c-41.62,26.84-77.34,57.52-106.16,91.18-28.29,33.04-50.72,69.85-66.64,109.41-15.36,38.16-25.09,79.89-28.9,124.03-2.3,26.57-2.49,54.53-.6,83.53-10.94-3.03-21.76-4.57-32.26-4.57-22.28,0-43.06,6.98-60.09,20.2-16.57,12.86-29.08,30.89-37.18,53.6-1.38,3.84-2.52,7.42-3.48,10.93-12.93,47.53-4.97,102.77,21.27,147.79,12.54,21.5,28.71,39.99,48.09,54.98,21,16.25,45.29,27.96,72.19,34.81,4.84,1.23,9.61,2.25,14.32,3.16,3.91,47.47,14.25,88.51,31.45,125.04,7.29,15.49,17.29,30.79,28.91,44.24,9.45,10.93,21.58,16.94,34.16,16.94,3.52,0,7.25-.5,10.99-1.59,5.98,10.97,12.75,21.55,20.29,31.69,18.34,24.65,41.2,47.04,69.87,68.43l47.94,35.76v-25.54c17.47,14.66,34.94,27.29,52.81,38.2,42.03,25.67,85.05,38.68,127.86,38.68s82.71-12.08,123.23-35.92c29.57-17.39,55.88-37.92,80.06-58.87l6.43,36.17,40.17-36.26c24.42-22.04,43.69-48.79,60.65-84.16.04-.08.08-.17.12-.25l34.14-29.49c9.07-7.84,16.81-16.46,23.29-25.98l3.94,13.27,35.6-51.43c23.79-34.37,32.74-72.48,26.76-113.62,40-10.61,71.3-29.21,95.35-56.6,23.61-26.89,37.99-60.54,41.58-97.33,3.53-36.22-3.67-72.86-20.84-105.97-25.25-48.7-61.39-58.93-87.26-58.93-12.51,0-25.77,2.41-39.43,7.16-2.37.82-4.7,1.69-7.01,2.59,2.04-20.44,2.71-40.75,1.99-60.78-1.34-37.59-7.6-75.32-18.59-112.14-10.4-34.82-25.37-69.94-44.5-104.39-17.87-32.18-40.01-64.91-65.8-97.3l-24.1-30.26-20.65,27.36c-20.17-38.68-50.17-68.7-77.62-96.17l-21.61-21.63-21.21,22.01-.96,1c-10.33-22.7-15.25-45.73-15.25-70.57V0h0Z"></path>
    </g>
    <path class="cls-1" d="M3732.74,635.67c18.17-8.76,36.19-19.59,55.63-26.34,40.53-14.09,70.45-.87,90.21,37.24,29.5,56.91,23.02,124.54-16.65,169.7-24.94,28.4-57.51,43.04-93.82,50.53-4.83,1-9.68,1.87-15.08,2.91,13.59,42.57,10.33,82.42-15.34,119.51-5.05-16.98-9.89-33.33-14.76-49.68-.99.07-1.97.12-2.96.18-1.74,39.8-6.05,78.62-40.06,108.01-2.66-16.05-5.06-30.47-7.09-42.64-10.96,26.31-21.53,54.82-34.62,82.12-13.07,27.26-29.3,52.83-53.7,74.86-2.29-12.89-4.2-23.65-6.37-35.9-5.16,4.6-9.64,8.51-14.02,12.52-31.61,29.05-64.17,56.88-101.37,78.76-73.94,43.49-147.3,42.04-220.25-2.51-28.68-17.52-54.39-38.71-78.39-62.09-6.54-6.35-12.85-12.92-20.06-20.19v35.42c-49.63-37.02-86.23-81.73-102.34-142.04-.27,1.96-.5,3.91-.82,5.85-1.05,6.28-1.49,12.77-3.34,18.8-4.3,14.02-14.54,17.35-24.05,6.35-9.68-11.2-18.17-24.02-24.47-37.41-19.47-41.35-27.55-85.56-29.75-130.99-.1-2.19-.23-4.4-.37-6.55-12.02-2.32-23.85-4.03-35.38-6.95-102.24-26.04-139.65-128.4-120.01-200.61.8-2.94,1.76-5.87,2.79-8.74,16.11-45.18,53.57-63.92,98.98-48.64,13.27,4.46,25.71,11.45,37.42,16.76-25.74-179.23,23.78-327.4,183.42-430.36v49.88c-.62.18.05.18.15-.08,14.68-33.73,40.28-58.43,68.04-81.01,61.26-49.86,128.58-89.76,201.58-119.93,11.6-4.8,24-7.59,37.31-11.7,0,46.12,14.81,84.73,39.15,120.14,9.31-9.66,18.45-19.15,28.67-29.75,40.35,40.38,78.17,79.33,89.29,137.44,10.11-13.4,20.02-26.56,30.84-40.88,96.51,121.18,146.37,253.71,111.55,408.05l.05-.03ZM3152.64,998.04c-1.39-.7-2.77-1.39-5.11-2.57.48,4.91.64,8.78,1.29,12.55,7.19,42.15,30.17,74.36,63.95,99.13,46.25,33.91,99,44.16,155.09,39.56,48.76-3.99,91.96-21.39,126.7-56.81,53.87-54.96,57.68-131.91,8.61-188.49-11.72-13.52-26.53-24.35-40.2-36.67,13.64-13.47,23.8-29.33,12.07-51.88,4.76,2.04,7.99,3.41,11.22,4.81,25.59,11.05,51.55,21.09,79.36,24.87,32.89,4.48,62.45-.85,82.57-30.74,13.4-19.89,20.66-42.35,26.39-65.39.08-.3-.57-.8-.79-1.05-3.48.48-6.85.95-11.17,1.54,10.46-18.85,13.49-37.22,6.18-56.56-7.12-18.82-21.03-32.18-37.81-44.84,9.19-1.52,16.75-2.79,26.07-4.33-25.91-16.23-53.59-20.59-80.61-27.75,9.48-3.38,18.87-5.7,28.28-7.92,9.41-2.22,18.84-4.35,28.26-6.52-44.38-15.59-88.34-14.24-132.93,1.96,2.47-6.18,4.35-10.85,6.55-16.36-24.35,3.44-45.81,10.58-65.8,22.13-28.36,16.36-49.88,39.78-68.63,66.14-6.77,9.51-13.74,18.9-20.78,28.23-4.71,6.27-9.09,5.53-13.97-.4-26.04-31.66-40.21-67.93-40.7-108.81-.18-15.59,3.28-31.22,5.05-46.7-17.02,28.16-22.92,58.65-14.24,92.95-40.7-35.74-72.94-51.88-105.32-52.9,2.06,5.16,3.98,10,6.27,15.73-51.66-19.59-106.27-14.31-132.81-2.41,17.25,4.11,34.4,8.21,51.55,12.29-.08,1.12-.15,2.24-.23,3.36-24.87,7.96-51.43,11.43-75.37,27.09,9.29,1.52,16.97,2.79,25.99,4.28-34.82,26.56-54.07,56.95-32.33,101.16-4.65-.55-7.76-.94-13.64-1.64,7.05,18.4,12.4,35.94,20.29,52.23,18.35,37.91,47.6,52.07,89.05,45.25,29.63-4.86,57.31-15.71,84.94-26.83,2.12-.85,4.36-1.44,7.86-2.57-11.77,21.75-1.87,37.31,10.96,50.81-13.32,11.57-26.91,21.85-38.69,33.91-23.73,24.32-38.13,53.3-38.16,88.03,0,3.34,3.29,6.7,5.05,10.05-.1.7-.18,1.4-.28,2.11l-.03-.02ZM3466.78,242.5c-.8.17-1.62.35-2.42.52-41.94-38.74-57.63-87.97-56.68-144.2-21.08,36.87-30.75,76.22-29.5,118.86-5.73-9.78-11.47-19.56-17.2-29.33-.7.32-1.4.62-2.11.94-2.19,37.42,5.93,72.84,20.11,107.06.79-.1,1.55-.18,2.34-.28,4.21-34.77,8.42-69.53,12.64-104.3,6.13,49.12,23.38,93.38,51.7,133.26.72-.2,1.42-.4,2.14-.62.95-19.72,1.91-39.45,2.86-59.17.99-.12,1.96-.25,2.94-.37,13.44,16.76,22.21,35.87,27.65,56.73,5.47,20.94,5.27,42.07,2.54,63.55,23.05-23.22,26.68-53.03,29.57-83.24,10,33.71,7.02,66.86-5.63,99.63.84.22,1.65.43,2.49.65,13.67-20.11,27.33-40.21,42.4-62.38,8.59,33.48-.15,61.96-11.53,90.53,19.27-15.16,38.53-30.3,57.8-45.46-7.61,35.48-28.16,61.44-55.42,83.19,26.83-12.92,53.64-25.86,80.46-38.78.5.69,1,1.37,1.49,2.07-9.59,19.86-25.12,34.47-43.42,46.85,19.51-3.53,38.69-7.71,59.45-1.09-13.1,5.1-24.95,8.96-36.12,14.29-11.22,5.37-21.73,12.18-32.54,18.37,35.33-3.78,65.17-2.24,80.16,5.73-35.74,2.34-66.19,15.61-93.77,41.13,43.11-11.7,72.17-14.01,89.24-7.5-6.4,2.96-12.85,5.93-19.29,8.91.12.82.25,1.64.37,2.46,37.56,2.51,60.16,25.77,78.47,55.71,17.57-99.2,4.46-192.52-49.14-279.13-3.89,12.9-5.95,26.26-16.48,38.73-3.01-29.38-8.04-55.74-21.31-79.88-2.86,20.63.75,41.79-6.59,61.53-1.25.2-2.51.38-3.76.59-4.61-13.05-9.24-26.11-14.26-40.32-4.23,5.06-7.74,9.29-11.25,13.51-3.31,3.96-6.64,7.92-9.96,11.88-.87-.37-1.74-.74-2.61-1.1,10.53-69.98-20.04-123.44-67.76-170.04,6.32,17.27,12.62,34.53,19.17,52.43-13.97-9.86-26.89-18.97-39.8-28.08-.7.69-1.42,1.37-2.12,2.06,18.59,18.29,22.2,40.72,19.04,65.15-7.57-19.84-19.04-36.92-33.43-52.02-.77.28-1.54.55-2.31.84.47,10.06.94,20.11,1.4,30.17l-.02-.03ZM3821.81,692.93c.3.75.6,1.5.92,2.26-2.37,1.02-4.83,1.86-7.1,3.06-13.67,7.35-28.2,13.54-40.68,22.55-14.61,10.53-15.53,21.54-6.62,37.19,2.47,4.35,5.38,8.49,7.49,13.02,4.03,8.61,1.94,13.52-6.82,17.03-9.81,3.93-19.76,7.54-29.47,11.68-4.56,1.96-9.61,4.03-12.77,7.55-2.71,3.03-4.23,8.29-3.91,12.37.18,2.24,5.06,5.27,8.22,5.87,9.26,1.75,18.7,3.31,28.1,3.48,34.38.64,63.46-10.71,80.65-42.07,19.89-36.3,20.37-74.21,2.42-111.44-14.99-31.11-42.49-36.75-69.25-15.04-22.77,18.47-37.27,43.19-49.96,69.08-.1.2.47.72.65.97,30.29-19.24,59.62-40.88,98.13-37.56h0ZM2971.99,738.45c-11.83-24.52-25.41-47.95-46.01-66.42-29.05-26.02-59.02-19.54-75.06,15.98-.33.75-.55,1.57-.87,2.36-11.55,28.82-12.18,58.15-2.44,87.37,8.96,26.86,26.51,46.08,54.12,54.82,21.9,6.92,43.98,5.23,65.97.37,1.89-.42,4.01-2.89,4.71-4.88,2.31-6.57-.6-11.8-6.3-14.68-9.64-4.85-19.42-9.78-29.65-13.12-25.36-8.29-21.44-14.34-10.83-31.82,11-18.12,9.09-30.3-8.57-41.99-11.95-7.91-25.46-13.47-38.28-20.09-1.97-1.02-3.96-2.01-5.95-3.01,39.25-4.96,68.53,16.23,99.17,35.12ZM3619.84,962.77c-8.69-14.71-17.52-29.15-31.26-42.09,5.98,19.41,12.32,36.65,16.48,54.41,4.13,17.6,6.05,35.7,8.94,53.59-.97.23-1.92.45-2.89.69-8.02-18.52-16.85-36.5-32.46-50.29,16.2,42.67,26.61,86.1,21.56,132.29,37.64-55.59,47.97-116.93,40.23-184.03,23.43,22.31,39.46,46.98,48.64,78.71,17.95-37.56,17.62-73.61,8.62-111.4,8.46,4.63,16.51,9.43,22.77,15.96,6.54,6.84,11.32,15.33,16.66,22.82,2.56-43.94-23.17-95.19-58.12-106.4,4.66,8.98,9.63,18.59,14.61,28.2l-2.02,1.14c-5.63-2.91-11.27-5.82-18.6-9.61,3.74,17.4,6.97,32.36,10.2,47.32-.67.3-1.34.6-2.01.9-9.13-12.05-19.41-22.43-36.22-26.58,8.26,19.02,15.85,36.49,23.43,53.94-.72.3-1.42.62-2.14.92-9.03-7.69-17.68-15.91-27.21-22.93-9.73-7.17-20.29-13.24-34.6-15.03,7.45,26.31,15.38,51.06,15.39,77.47l-.02.02ZM3344.33,675.22c3.28-21.66,1.87-43.99,10.23-67.28,3.96,16.38,7.37,30.44,10.76,44.49l2.66.13c6.03-24.82,17.23-46.8,35.27-65.07-4.81,1.15-8.83,3.24-13.1,4.21-3.78.85-7.84.43-11.78.59.77-3.61.9-7.54,2.47-10.76,2.66-5.48,6.23-10.51,9.43-15.75,2.96-4.85,5.9-9.69,8.84-14.52-.62-.72-1.24-1.42-1.84-2.14-12.62,7.49-25.24,14.98-38.89,23.08v-45.3c-23.17,48.66-37.87,96.49-14.04,148.29v.02ZM3565.87,1034.53c-28.41,92.9-96.81,148.46-177.99,192.42,2.59-.13,4.95-.62,7.19-1.44,30.39-11.17,59.67-24.65,86.5-42.94,32.02-21.83,58.82-48.39,74.76-84.47,8.91-20.16,13.4-41.05,9.54-63.55v-.02ZM3304.85,483.07c-44.29,30.3-58.85,78.22-33.96,116.4-5.21-43.46,13.24-79.18,33.96-116.4ZM3339.2,234.11c-6.97-33.33-2.84-66.66.92-101.74-21.43,25.31-21.61,74.16-.92,101.74ZM3464.34,412.1c-8.46,27.26-16.83,54.54-41.49,74.9,31.86-7.14,47.77-36.67,41.49-74.9ZM3429.44,371.55c.9,28.08,2.16,56.23-13.39,82.29,27.03-14.59,31.66-54.86,13.39-82.29ZM3377.09,468.04c28.73-17.82,30.94-58.9,12.49-82.74,1.45,27.71,2.69,55.48-12.49,82.74ZM3365.43,354.52c-24.2,13.15-29.63,45.78-7.29,69.65-7.87-24.32-5.18-46.55,7.29-69.65ZM3534.18,501.82c-30.74-10.26-54.02,9.36-59.1,37.52,14.59-21.81,34.98-32.61,59.1-37.52ZM3243.9,577.49c-.74-10.3-2.94-21.86-1.99-33.16.94-11.23,5.05-22.2,7.74-33.18-24.5,14.01-22.68,48.02-5.75,66.34ZM3477.86,481.85c27.55-8.07,41.82-35.38,33.98-62.68-6.85,23.02-14.02,45.21-33.98,62.68Z"></path>
    <path class="cls-8" d="M3152.92,995.93c-1.75-3.34-5.05-6.7-5.05-10.05.05-34.73,14.42-63.72,38.16-88.03,11.78-12.07,25.37-22.35,38.69-33.91-12.82-13.51-22.71-29.07-10.96-50.81-3.49,1.14-5.72,1.72-7.86,2.57-27.63,11.12-55.31,21.96-84.94,26.83-41.45,6.82-70.69-7.34-89.05-45.25-7.89-16.3-13.24-33.83-20.29-52.23,5.88.7,8.99,1.07,13.64,1.64-21.76-44.19-2.49-74.6,32.33-101.16-9.03-1.49-16.71-2.74-25.99-4.28,23.94-15.66,50.49-19.14,75.37-27.09.08-1.12.15-2.24.23-3.36-17.15-4.1-34.28-8.17-51.55-12.29,26.54-11.88,81.15-17.18,132.81,2.41-2.29-5.73-4.21-10.56-6.27-15.73,32.39,1,64.62,17.17,105.32,52.9-8.66-34.3-2.77-64.79,14.24-92.95-1.77,15.48-5.23,31.11-5.05,46.7.48,40.88,14.66,77.15,40.7,108.81,4.9,5.95,9.26,6.67,13.97.4,7.04-9.33,14.01-18.72,20.78-28.23,18.75-26.34,40.27-49.78,68.63-66.14,19.99-11.53,41.45-18.67,65.8-22.13-2.21,5.52-4.08,10.18-6.55,16.36,44.59-16.2,88.55-17.53,132.93-1.96-9.43,2.17-18.85,4.3-28.26,6.52-9.41,2.22-18.8,4.55-28.28,7.92,27.03,7.15,54.72,11.52,80.61,27.75-9.33,1.55-16.88,2.81-26.07,4.33,16.78,12.67,30.69,26.01,37.81,44.84,7.3,19.34,4.28,37.72-6.18,56.56,4.31-.6,7.69-1.05,11.17-1.54.2.27.85.75.79,1.05-5.73,23.03-12.99,45.5-26.39,65.39-20.12,29.89-49.68,35.22-82.57,30.74-27.83-3.79-53.77-13.82-79.36-24.87-3.23-1.39-6.45-2.77-11.22-4.81,11.73,22.56,1.57,38.41-12.07,51.88,13.66,12.32,28.46,23.15,40.2,36.67,49.07,56.58,45.26,133.53-8.61,188.49-34.73,35.42-77.94,52.83-126.7,56.81-56.08,4.6-108.83-5.65-155.09-39.56-33.8-24.77-56.76-57-63.95-99.13-.65-3.78-.8-7.64-1.29-12.55,2.34,1.17,3.73,1.87,5.11,2.57,18.47,16.4,39.28,29.25,61.83,39.06,75.42,32.83,151.13,29.15,226.71.65,29.08-10.96,56.49-25.16,78.83-47.4,4.25-4.23,8.09-9.43,10.35-14.91,4.2-10.21-2.32-17.78-12.89-14.84-8.74,2.44-17.13,6.47-25.34,10.48-23.73,11.6-46.83,24.57-71,35.17-56.85,24.94-115.9,34.78-177.66,22.78-31.97-6.22-61.76-18.25-90.54-33.11l.03.03ZM3093.12,677.94c32.04,7.24,65.57,9.73,91.61,35.77-2.52.6-3.29,1-3.99.92-34.11-4.36-68.11-9.29-102.59-1.86-10.5,2.26-18.67,6.59-20.41,15.38-3.36,17.03,9.84,34.01,27.09,35.13,2.21.15,5.25.92,6.35,2.49,15.24,21.76,37.62,27.16,62.21,27.5,29.27.4,57.4-6.37,85.33-14.12,11.37-3.16,22.61-6.77,34.2-10.26.84,3.14,1.45,5.55,2.11,7.94,5.47,20.29,13.87,23.67,32.06,12.89.95-.57,1.86-1.24,2.84-1.75,8.59-4.53,17.12-9.16,25.81-13.47,5.42-2.69,10.21-1.5,15.56,1.74,11.13,6.75,22.51,13.4,34.5,18.35,12.18,5.03,17.42,1.29,19.99-11.47.48-2.46.82-4.98,1.6-7.34,1.82-5.47,5.21-8.54,11.38-6.47,3.16,1.05,6.3,2.17,9.38,3.41,27.78,11.06,56.09,20.06,86.26,21.16,25.87.95,51.05-2.21,70.77-20.99,6.45-6.15,12.34-10.28,21.33-11.72,11.62-1.86,19.42-13.34,19.17-25.09-.23-10.76-7.09-20.74-16.53-22.63-9.98-1.99-20.09-4.04-30.2-4.31-14.12-.37-28.31.55-42.44,1.55-12.25.87-24.45,2.61-36.67,3.96,23.83-26.54,56.88-29.35,88.54-36.89-5.98-2.09-12.02-3.93-18.12-4.16-62.98-2.44-115.85,26.31-169.43,55.86,2.96-12.39,5.7-23.87,8.44-35.37-11.75,14.64-25.81,25.96-41.65,34.7-31.39,17.33-20.93,17.45-52.67-.17-16.48-9.14-30.85-21.06-42.05-36.59,3.01,12.2,6,24.4,9.31,37.81-11.55-6.45-21.58-12.44-31.92-17.77-36.29-18.69-73.63-34.38-114.81-38.36-14.36-1.39-28.6-.82-42.3,4.23h-.03ZM3275.87,1072.89c24.84,24.85,54.94,28.88,87.53,23.02,25.27-4.55,49.78-20.34,51.26-33.9-45.4,16.26-91.7,18.07-138.8,10.88h0ZM3398.74,868.3c.03-.25.07-.5.1-.75,6.1.35,12.22.4,18.27,1.14,4.83.58,6.94-1.5,6.82-5.85-.08-3.53-.17-7.4-1.64-10.46-6.87-14.42-18.75-23.03-33.98-26.96-2.67-.69-6.4-.23-8.71,1.2-7.74,4.83-15.58,9.76-22.3,15.85-3.46,3.13-6.9,9.16-6.18,13.12.6,3.26,7.07,6.84,11.45,7.72,11.92,2.41,24.09,3.44,36.17,5.03v-.03ZM3272.19,869.92c14.64-2.74,29.8-4.81,44.51-8.62,9.44-2.46,11.23-9.13,6.44-16.6-14.21-22.11-32.66-25.05-52.42-8.04-3.94,3.41-8.31,7.29-10.18,11.9-2.26,5.5-3.09,12.17-2.24,17.98.25,1.67,8.47,2.17,13.89,3.39v-.02ZM3341.58,892.66c-8.46,24.9-7.92,91.43.64,108.09,6.99-36.79,6.52-72.44-.64-108.09Z"></path>
    <path class="cls-4" d="M3466.78,242.5c-.47-10.06-.94-20.11-1.4-30.17.77-.28,1.54-.55,2.31-.84,14.39,15.09,25.86,32.19,33.43,52.02,3.16-24.44-.45-46.87-19.04-65.15.7-.69,1.42-1.37,2.12-2.06,12.9,9.11,25.82,18.22,39.8,28.08-6.54-17.9-12.85-35.17-19.17-52.43,47.72,46.62,78.29,100.05,67.76,170.04.87.37,1.74.74,2.61,1.1,3.33-3.96,6.65-7.92,9.96-11.88,3.53-4.21,7.02-8.44,11.25-13.51,5.03,14.21,9.64,27.26,14.26,40.32,1.25-.2,2.51-.38,3.76-.59,7.34-19.74,3.71-40.9,6.59-61.53,13.27,24.12,18.3,50.49,21.31,79.88,10.53-12.47,12.59-25.82,16.48-38.73,53.59,86.61,66.69,179.93,49.14,279.13-18.32-29.94-40.92-53.22-78.47-55.71-.12-.82-.25-1.64-.37-2.46,6.44-2.98,12.87-5.95,19.29-8.91-17.07-6.49-46.13-4.2-89.24,7.5,27.58-25.52,58.03-38.81,93.77-41.13-14.99-7.97-44.83-9.53-80.16-5.73,10.81-6.18,21.33-13.02,32.54-18.37,11.17-5.33,23.02-9.18,36.12-14.29-20.78-6.62-39.96-2.44-59.45,1.09,18.3-12.39,33.81-27.01,43.42-46.85-.5-.69-1-1.37-1.49-2.07-26.83,12.92-53.64,25.86-80.46,38.78,27.26-21.75,47.82-47.7,55.42-83.19-19.27,15.16-38.53,30.3-57.8,45.46,11.38-28.56,20.12-57.05,11.53-90.53-15.08,22.16-28.73,42.27-42.4,62.38-.84-.22-1.65-.43-2.49-.65,12.65-32.78,15.63-65.92,5.63-99.63-2.89,30.2-6.52,60.02-29.57,83.24,2.72-21.48,2.91-42.61-2.54-63.55-5.43-20.86-14.21-39.96-27.65-56.73-.99.12-1.96.25-2.94.37l-2.86,59.17c-.72.2-1.42.4-2.14.62-28.31-39.88-45.55-84.14-51.7-133.26-4.21,34.77-8.42,69.53-12.64,104.3-.79.1-1.55.18-2.34.28-14.17-34.21-22.3-69.62-20.11-107.06.7-.32,1.4-.62,2.11-.94,5.73,9.78,11.47,19.56,17.2,29.33-1.25-42.64,8.42-81.98,29.5-118.86-.94,56.23,14.74,105.47,56.68,144.2.8-.17,1.62-.35,2.42-.52l.02.03Z"></path>
    <path class="cls-8" d="M3821.81,692.93c-38.51-3.34-67.83,18.32-98.13,37.56-.18-.27-.75-.79-.65-.97,12.69-25.89,27.19-50.61,49.96-69.08,26.76-21.71,54.26-16.06,69.25,15.04,17.95,37.22,17.47,75.13-2.42,111.44-17.18,31.36-46.25,42.71-80.65,42.07-9.39-.17-18.84-1.72-28.1-3.48-3.16-.6-8.04-3.63-8.22-5.87-.33-4.08,1.2-9.34,3.91-12.37,3.14-3.53,8.21-5.62,12.77-7.55,9.71-4.15,19.66-7.77,29.47-11.68,8.76-3.49,10.85-8.41,6.82-17.03-2.11-4.51-5.01-8.66-7.49-13.02-8.91-15.64-7.99-26.66,6.62-37.19,12.49-9.01,27.01-15.19,40.68-22.55,2.26-1.22,4.73-2.06,7.1-3.06-.3-.75-.6-1.5-.92-2.26h0Z"></path>
    <path class="cls-8" d="M2972,738.45c-30.65-18.89-59.94-40.08-99.17-35.12,1.99,1,3.98,1.99,5.95,3.01,12.82,6.6,26.31,12.18,38.28,20.09,17.67,11.68,19.59,23.85,8.57,41.99-10.61,17.48-14.52,23.53,10.83,31.82,10.23,3.34,19.99,8.27,29.65,13.12,5.7,2.87,8.61,8.11,6.3,14.68-.7,1.99-2.82,4.46-4.71,4.88-21.98,4.85-44.08,6.55-65.97-.37-27.61-8.74-45.16-27.96-54.12-54.82-9.74-29.22-9.11-58.55,2.44-87.37.32-.77.52-1.59.87-2.36,16.05-35.52,46.01-42,75.06-15.98,20.61,18.45,34.18,41.9,46.01,66.42Z"></path>
    <path class="cls-4" d="M3619.85,962.77c0-26.39-7.94-51.16-15.39-77.47,14.31,1.79,24.87,7.86,34.6,15.03,9.53,7.04,18.17,15.24,27.21,22.93.72-.3,1.42-.62,2.14-.92-7.59-17.47-15.16-34.92-23.43-53.94,16.81,4.15,27.11,14.51,36.22,26.58.67-.3,1.34-.6,2.01-.9-3.23-14.96-6.45-29.92-10.2-47.32,7.35,3.79,12.99,6.7,18.6,9.61l2.02-1.14c-4.98-9.61-9.96-19.2-14.61-28.2,34.97,11.22,60.67,62.48,58.12,106.4-5.35-7.49-10.13-16-16.66-22.82-6.25-6.54-14.31-11.33-22.77-15.96,8.99,37.79,9.33,73.86-8.62,111.4-9.18-31.72-25.21-56.39-48.64-78.71,7.72,67.09-2.59,128.42-40.23,184.03,5.05-46.2-5.37-89.61-21.56-132.29,15.61,13.79,24.45,31.77,32.46,50.29.97-.23,1.92-.45,2.89-.69-2.89-17.88-4.81-35.99-8.94-53.59-4.16-17.75-10.5-35-16.48-54.41,13.74,12.94,22.56,27.38,31.26,42.09l.02-.02Z"></path>
    <path class="cls-1" d="M3152.92,995.93c28.78,14.86,58.57,26.89,90.54,33.11,61.76,12,120.83,2.16,177.66-22.78,24.15-10.6,47.27-23.57,71-35.17,8.21-4.01,16.6-8.04,25.34-10.48,10.56-2.96,17.08,4.63,12.89,14.84-2.26,5.48-6.1,10.7-10.35,14.91-22.33,22.26-49.76,36.44-78.83,47.4-75.58,28.5-151.3,32.18-226.71-.65-22.55-9.81-43.36-22.66-61.83-39.06.1-.7.18-1.4.28-2.11v-.02Z"></path>
    <path class="cls-4" d="M3344.35,675.22c-23.83-51.8-9.13-99.63,14.04-148.29v45.3c13.66-8.11,26.28-15.59,38.89-23.08.62.72,1.24,1.42,1.84,2.14-2.94,4.85-5.9,9.69-8.84,14.52-3.19,5.23-6.75,10.26-9.43,15.75-1.57,3.23-1.7,7.15-2.47,10.76,3.94-.15,8.01.27,11.78-.59,4.28-.97,8.29-3.06,13.1-4.21-18.03,18.27-29.23,40.25-35.27,65.07l-2.66-.13c-3.39-14.06-6.8-28.1-10.76-44.49-8.36,23.27-6.97,45.61-10.23,67.28v-.02Z"></path>
    <path class="cls-4" d="M3565.87,1034.53c3.86,22.5-.64,43.39-9.54,63.55-15.95,36.09-42.74,62.65-74.76,84.47-26.84,18.29-56.11,31.77-86.5,42.94-2.24.82-4.6,1.3-7.19,1.44,81.18-43.96,149.59-99.52,177.99-192.42v.02Z"></path>
    <path class="cls-4" d="M3304.87,483.05c-20.73,37.22-39.18,72.94-33.96,116.4-24.89-38.18-10.33-86.1,33.96-116.4h0Z"></path>
    <path class="cls-4" d="M3339.2,234.09c-20.69-27.56-20.51-76.42.92-101.74-3.76,35.07-7.89,68.41-.92,101.74Z"></path>
    <path class="cls-4" d="M3464.36,412.08c6.27,38.21-9.64,67.76-41.49,74.9,24.65-20.34,33.03-47.62,41.49-74.9Z"></path>
    <path class="cls-4" d="M3429.46,371.53c18.25,27.45,13.64,67.69-13.39,82.29,15.54-26.07,14.29-54.2,13.39-82.29Z"></path>
    <path class="cls-4" d="M3377.11,468.03c15.19-27.26,13.96-55.01,12.49-82.74,18.45,23.83,16.25,64.9-12.49,82.74Z"></path>
    <path class="cls-5" d="M3365.46,354.52c-12.47,23.1-15.16,45.33-7.29,69.65-22.33-23.87-16.91-56.49,7.29-69.65h0Z"></path>
    <path class="cls-5" d="M3534.21,501.82c-24.12,4.91-44.51,15.73-59.1,37.52,5.08-28.16,28.36-47.8,59.1-37.52Z"></path>
    <path class="cls-5" d="M3243.93,577.49c-16.93-18.32-18.74-52.33,5.75-66.34-2.69,10.98-6.8,21.95-7.74,33.18-.95,11.3,1.25,22.85,1.99,33.16Z"></path>
    <path class="cls-4" d="M3477.88,481.83c19.97-17.47,27.13-39.65,33.98-62.68,7.84,27.29-6.44,54.61-33.98,62.68Z"></path>
    <path class="cls-1" d="M3093.12,677.94c13.71-5.05,27.95-5.62,42.3-4.23,41.18,3.99,78.52,19.69,114.81,38.36,10.36,5.33,20.37,11.32,31.92,17.77-3.31-13.42-6.3-25.62-9.31-37.81,11.2,15.53,25.57,27.45,42.05,36.59,31.74,17.6,21.28,17.5,52.67.17,15.85-8.74,29.9-20.06,41.65-34.7-2.74,11.48-5.48,22.98-8.44,35.37,53.59-29.55,106.47-58.3,169.43-55.86,6.1.23,12.13,2.07,18.12,4.16-31.66,7.54-64.7,10.35-88.54,36.89,12.22-1.35,24.4-3.09,36.67-3.96,14.12-1,28.31-1.92,42.44-1.55,10.11.27,20.22,2.32,30.2,4.31,9.44,1.89,16.3,11.87,16.53,22.63.25,11.75-7.55,23.23-19.17,25.09-8.99,1.44-14.86,5.57-21.33,11.72-19.72,18.79-44.89,21.95-70.77,20.99-30.17-1.1-58.5-10.1-86.26-21.16-3.09-1.24-6.23-2.36-9.38-3.41-6.17-2.07-9.56,1.02-11.38,6.47-.79,2.36-1.1,4.88-1.6,7.34-2.56,12.75-7.81,16.51-19.99,11.47-11.98-4.96-23.37-11.62-34.5-18.35-5.33-3.24-10.13-4.43-15.56-1.74-8.69,4.33-17.22,8.96-25.81,13.47-.99.52-1.89,1.19-2.84,1.75-18.19,10.8-26.59,7.42-32.06-12.89-.65-2.41-1.27-4.81-2.11-7.94-11.58,3.49-22.83,7.1-34.2,10.26-27.93,7.76-56.04,14.52-85.33,14.12-24.59-.33-46.97-5.72-62.21-27.5-1.1-1.57-4.15-2.34-6.35-2.49-17.27-1.12-30.45-18.1-27.09-35.13,1.74-8.79,9.91-13.1,20.41-15.38,34.47-7.44,68.46-2.49,102.59,1.86.7.08,1.49-.32,3.99-.92-26.04-26.04-59.57-28.53-91.61-35.77h.03ZM3174.56,734.9c-9.53,0-17.82-.75-25.91.18-10.93,1.25-13.66,8.27-7.79,17.87,6.59,10.78,23.82,17.42,37.24,14.02-7.42-9.63-11.72-19.74-3.54-32.07ZM3519.83,770.72c6.32-.84,10.75-1.09,15.01-2.04,11.93-2.62,21.9-7.96,26.53-20.29,2.39-6.35.27-11.17-6.12-11.83-9.01-.94-18.2-.23-27.85-.23,7.34,15.16,6.4,19.76-7.57,34.41v-.02ZM3460.18,751.89c-.22.69-.45,1.35-.67,2.04,8.83,3.94,17.63,7.87,27.56,12.3-2.62-7.89-4.53-13.62-6.65-19.99-6.45,1.81-13.34,3.73-20.24,5.63v.02ZM3241.86,750.32c-.05-.69-.1-1.37-.13-2.06-7.09-1.7-14.19-3.41-20.86-5.03-1.14,6.47-2.11,12-3.24,18.5,8.42-3.98,16.35-7.71,24.25-11.42h-.02Z"></path>
    <path class="cls-12" d="M3275.87,1072.87c47.12,7.2,93.4,5.38,138.8-10.88-1.49,13.56-25.99,29.35-51.26,33.9-32.61,5.87-62.7,1.84-87.53-23.02Z"></path>
    <path class="cls-1" d="M3398.74,868.3c-12.07-1.59-24.25-2.62-36.17-5.03-4.38-.89-10.85-4.46-11.45-7.72-.74-3.94,2.72-10,6.18-13.12,6.74-6.07,14.56-11.01,22.3-15.85,2.31-1.44,6.03-1.89,8.71-1.2,15.23,3.91,27.11,12.54,33.98,26.96,1.45,3.06,1.54,6.94,1.64,10.46.12,4.36-1.99,6.44-6.82,5.85-6.05-.74-12.17-.79-18.27-1.14-.03.25-.07.5-.1.75v.03Z"></path>
    <path class="cls-1" d="M3272.21,869.91c-5.42-1.24-13.64-1.72-13.89-3.39-.85-5.82,0-12.49,2.24-17.98,1.89-4.6,6.23-8.49,10.18-11.9,19.76-17.02,38.21-14.07,52.42,8.04,4.8,7.47,3.01,14.16-6.44,16.6-14.71,3.81-29.89,5.88-44.51,8.62v.02Z"></path>
    <path class="cls-14" d="M3341.58,892.64c7.15,35.65,7.62,71.3.64,108.09-8.56-16.66-9.09-83.19-.64-108.09Z"></path>
    <path class="cls-6" d="M3174.55,734.89c-8.19,12.32-3.89,22.45,3.54,32.07-13.42,3.39-30.65-3.24-37.24-14.02-5.87-9.59-3.14-16.61,7.79-17.87,8.09-.94,16.38-.18,25.91-.18Z"></path>
    <path class="cls-6" d="M3519.82,770.71c13.97-14.64,14.91-19.24,7.57-34.41,9.66,0,18.84-.7,27.85.23,6.38.67,8.49,5.48,6.12,11.83-4.63,12.34-14.59,17.67-26.53,20.29-4.28.94-8.69,1.2-15.01,2.04v.02Z"></path>
    <path class="cls-3" d="M3460.16,751.89c6.9-1.92,13.79-3.84,20.24-5.63,2.12,6.37,4.03,12.1,6.65,19.99-9.93-4.43-18.74-8.37-27.56-12.3.22-.69.45-1.35.67-2.04v-.02Z"></path>
    <path class="cls-2" d="M3241.82,750.32c-7.91,3.73-15.81,7.45-24.25,11.42,1.14-6.5,2.11-12.03,3.24-18.5,6.67,1.6,13.77,3.31,20.86,5.03.05.69.08,1.37.13,2.06h.02Z"></path>
  </g>
</svg>