<svg id="Layer_1" data-name="Layer 1" xmlns="http://www.w3.org/2000/svg" xmlns:xlink="http://www.w3.org/1999/xlink" viewBox="0 0 190 55.92"><defs><style>.cls-1{fill:none;}.cls-2{clip-path:url(#clip-path);}.cls-3{fill:#3f3e3e;}.cls-4{fill:#99e047;}</style><clipPath id="clip-path" transform="translate(0 -0.08)"><rect class="cls-1" y="0.1" width="190" height="55.8"/></clipPath></defs><title>00-Akrobat-Logo-SLOGAN</title><g class="cls-2"><path class="cls-3" d="M25,25.8a47.72,47.72,0,0,1-12.8-1.4h-.1c-.4-.1-.8-.3-1.2-.4-3.4,2.5-7,5.2-10.9,8.1H30c1.5-2.3,3.1-4.5,4.7-6.6-3.5.2-6.7.3-9.7.3M63.6,11.9c.2-.1.3-.2.5-.3C63.2,7,60.6.6,52.3.1c-4.4-.2-9,1.3-14.5,4.5-1.2.7-2.5,1.5-3.8,2.3-.5.3-.9.6-1.4.9a.1.1,0,0,0-.1.1c-.1,0-.1.1-.2.1-1.3.9-2.6,1.8-4,2.8-3.1,2.3-6.6,4.8-10.4,7.7h-.1l-1.1.9c-.1.1-.1.1-.2.1h0l-2.1,1.7,10.9,1.1s11-1,11.2-1a8.81,8.81,0,0,0,1.7-.2,17.56,17.56,0,0,1,2.3-3h0c5.4-6,10.2-10.1,12.9-9.6s4,3.2,4.6,5.8c.6-.2,1.2-.4,1.7-.6l3.9-1.8m5.8,12.8,9.2-5.4H69.9l-5.6,3.9.6-3.7a66.71,66.71,0,0,1-7.1,2.3L56.4,32.1h6.5l.6-3.8,1.9-1.1,5.2,4.9h7.6ZM93,24a1.79,1.79,0,0,1-.7.5,7,7,0,0,1-2.4.3H87.6l.2-2.6h2.7c1.6,0,2.4.4,2.6,1.1a.88.88,0,0,1-.1.7m2.9,2a5.62,5.62,0,0,0,2.7-1.4,2,2,0,0,0,.4-2,4,4,0,0,0-2.7-2.7,7.34,7.34,0,0,0-2-.5,25.46,25.46,0,0,0-3.1-.1H82L80.9,32H87l.4-4.3h2.2a5.48,5.48,0,0,1,2.1.3,1.44,1.44,0,0,1,.9,1.1c0,.2.1.6.1,1.2,0,.4.1.8.1,1a3,3,0,0,0,.4.8h6.2a1.6,1.6,0,0,1-.5-1c-.1-.4-.1-.8-.2-1.3a8.81,8.81,0,0,0-.2-1.5A3.61,3.61,0,0,0,95.9,26m18.7-.3a3.24,3.24,0,0,1-.9,2.4,3.6,3.6,0,0,1-2,1.1,4.57,4.57,0,0,1-2.6-.1,2.51,2.51,0,0,1-1.6-1.4,4.55,4.55,0,0,1-.5-2,4.14,4.14,0,0,1,.5-1.9,3.91,3.91,0,0,1,2.5-1.7,4.24,4.24,0,0,1,2.5.1,2.77,2.77,0,0,1,1.6,1.4,3.28,3.28,0,0,1,.5,2.1m5.3,3.2a5,5,0,0,0,.7-4.6,6.9,6.9,0,0,0-4.6-4.5,13.09,13.09,0,0,0-6-.8,15.7,15.7,0,0,0-4.7.9,7.61,7.61,0,0,0-3.9,3,5,5,0,0,0-.5,4.1,6.72,6.72,0,0,0,4.2,4.2,16.67,16.67,0,0,0,10.6.3,7.1,7.1,0,0,0,4.2-2.6m14.6-.7a.92.92,0,0,1-.6.4,5.25,5.25,0,0,1-2,.3h-3.4l.2-2.3h3.2a6.66,6.66,0,0,1,1.6.1q1,.3,1.2.9a.73.73,0,0,1-.2.6m.1-5.1c0,.2,0,.4-.2.5s-.4.3-.6.4a8.75,8.75,0,0,1-2,.2h-2.9l.2-2h3.2a6.27,6.27,0,0,1,1.6.2,1.2,1.2,0,0,1,.7.7m5.7,4.9c-.3-1.2-1.3-2-2.9-2.5a4.54,4.54,0,0,0,2.2-1.2,1.7,1.7,0,0,0,.4-1.8,3,3,0,0,0-1.1-1.7,4.64,4.64,0,0,0-2.3-1.2,17.44,17.44,0,0,0-3.8-.3h-9.2L122.5,32h9.8a22.18,22.18,0,0,0,4.1-.3,7.28,7.28,0,0,0,2.5-.9,2.28,2.28,0,0,0,1.4-2.8m13.4-.5h-4l2.1-3.9Zm8.2,4.5-7-12.8h-5.8L141.3,32h5.8l1.1-1.8h6.7l1,1.8Zm14.5-12.7H159.5l-.3,3.2h5.6L164,32h6.2l.8-9.5h5.2Z" transform="translate(0 -0.08)"/></g><g class="cls-2"><path class="cls-4" d="M65.9,12.5a8,8,0,0,1-1.6.8c-1.3.6-2.7,1.3-4.1,1.8-.7.2-1.4.5-2.1.7a102.07,102.07,0,0,1-16.8,3.9l-1.8.3c-.2,0-.4.1-.6.1-10.1,1.4-19,2.1-23.9.9h-.1c-2.3-.6-3.7-1.4-3.8-2.6-.5-3.3,8.6-7.6,21.3-10.2.1,0,.1-.1.2-.1a.1.1,0,0,0,.1-.1A11.32,11.32,0,0,1,34,7C18.5,9.9,7.3,14.9,8,19.3c.2,1.5,1.9,2.7,4.6,3.5h.1c5,1.5,13.6,1.7,23.5.8.3,0,.7-.1,1-.1,15.6-1.6,24.1-4.3,27.9-6Z" transform="translate(0 -0.08)"/></g><g class="cls-2"><path class="cls-4" d="M190,42.1h0a.1.1,0,0,0-.1-.1,4.33,4.33,0,0,0-.5.1c-.1,0-.3.1-.4.1-.3.1-.5.1-.8.2h-.3c0-.1-.1-.2-.2-.3a1.07,1.07,0,0,0-.5-.3.37.37,0,0,0-.3.1c-.1,0-.1.1-.2,0s-.1-.1-.2,0a.1.1,0,0,0-.1.1,1.79,1.79,0,0,0-.5.7c-.1.2-.2.3-.4.3a.37.37,0,0,0-.3.1c-.1,0-.2.1-.3.2s-.1.2,0,.2.1.1.2.1h.3s.1,0,0,.1a.1.1,0,0,1-.1.1c0,.1-.1.2-.1.3s-.1.2-.1.3-.1.1-.1.2a.52.52,0,0,1-.2.4l-.1.1c-.1.1-.2.3-.3.4s-.1.2-.2.3-.3.4-.4.6-.3.5-.5.7a.1.1,0,0,1-.1.1c-.1.1-.1.2-.2.3a1.38,1.38,0,0,0-.3.4c-.1.2-.3.3-.4.4s-.4.3-.5.5a2.65,2.65,0,0,1-.6.5h0c-.2.1-.2.1-.3-.1v-.1c0-.1.1-.2,0-.4s0-.2.1-.3l.1-.1c-.1-.1,0-.2,0-.3h0a.37.37,0,0,1,.1-.3c.1-.1.1-.1.1-.2v-.3a.37.37,0,0,0,.1-.3c0-.1,0-.1.1-.2s.1-.1.1-.2.1-.3.2-.4a.35.35,0,0,0,.1-.2c0-.1.1-.1,0-.2s0-.2.1-.3.1-.1.2-.2.1-.1,0-.2v-.2a.35.35,0,0,0,.1-.2c0-.1.1-.1.1-.2.2-.1.2-.3.4-.5h0c.1-.1.1-.2.2-.3l.3-.5c0-.1.1-.1.1-.2s.1-.1.1-.2.1-.2.2-.3l.3-.3a1.38,1.38,0,0,0,.3-.4c0-.1.1-.1.1-.2l.3-.3c.2-.2.4-.3.5-.5s.2-.2.3-.2.2-.1.3-.2l.1-.1v-.3c-.1-.1-.1-.1,0-.2v-.1h-.1a.75.75,0,0,0-.5-.1h-.2c-.1,0-.1,0-.2.1s-.4,0-.5.2h0a1.76,1.76,0,0,0-.5.4c-.1.1-.1.1-.1.2a5.55,5.55,0,0,0-.6.8c-.1.1-.1.3-.3.4a2828450.43,2828450.43,0,0,1-.2.2l-.3.6c-.1.2-.3.4-.3.6v.1c-.1.1-.1.2-.2.3s-.1.2-.1.3l-.1.1c-.1.2-.2.3-.2.5s-.1.3-.2.5a1.42,1.42,0,0,0-.2.6c-.2.5-.3,1-.5,1.4,0,.1-.1.3-.1.4s-.1.5-.1.7v.2a1.7,1.7,0,0,1-.1.7h0v.9c0,.1.1.2.2.1s.2,0,.2.1V50c0,.1.1.1.2.1s.1,0,.2.1.2.2.4.2h.3c.1,0,.3,0,.3-.2l.1-.1c.1,0,.2-.1,0-.1v-.1a.78.78,0,0,1,.4-.4c.1,0,.1-.1.2-.1s.1-.1.2-.1.1,0,.1-.1.1-.2.2-.3.2-.2.2-.3a.1.1,0,0,1,.1-.1c.1-.1.1-.2.2-.2v-.2h-.1c-.1.1-.2.1-.2.2h0s-.1.1-.1,0,0-.1,0-.1c.2-.2.3-.4.5-.6s.2-.2.4-.2.2,0,.2-.1v-.1c0-.1,0-.1.1-.2s.1-.1.1-.2a.22.22,0,0,1,.2-.2.1.1,0,0,0,.1-.1.35.35,0,0,1,.1-.2.1.1,0,0,1,.1-.1h0v.1c-.1.1-.1.3-.2.4s-.1.3-.1.4a2,2,0,0,1-.4.8V48c.1.1,0,.1-.1.2s-.1.2-.2.4-.1.3-.1.5a.31.31,0,0,1-.1.2c-.1.1-.1.1-.2,0s-.1,0-.1.1a.37.37,0,0,1-.1.3v.1c0,.1,0,.1.1.1h.1l.1.1a1,1,0,0,0,.4.5.66.66,0,0,0,.6-.1s.1-.1,0-.1-.2-.1-.3-.1h.2l.1-.1a.37.37,0,0,1,.1-.3l.1-.1v-.1c0-.1,0-.1.1-.1s.1-.1,0-.2v-.1a.6.6,0,0,0,.1-.4v-.1c.1-.1.1-.1.1-.2v-.3c-.1,0,0-.1,0-.1a.37.37,0,0,0,.1-.3l.1-.1a.1.1,0,0,0,.1-.1h-.2a.35.35,0,0,0,.2-.1c.1,0,.1-.1,0-.1s-.1-.1,0-.1l.1-.1a.1.1,0,0,0,.1-.1V47a.1.1,0,0,0,.1-.1v-.1c-.1,0-.1,0,0-.1s.1-.1.1-.2.1-.1,0-.1,0-.1.1-.1.2-.2.2-.3v-.1h-.1c-.1-.1-.1-.1,0-.2h0c.1,0,.1-.1.1-.2s.1-.1.1-.2.2-.1.2-.3v-.1c.1-.1.1-.2.2-.3s.1-.2.2-.3.2-.3.4-.3.3-.1.5-.1.2-.1.3-.1.2-.1.3-.1a.35.35,0,0,1,.2-.1h0l.1-.1v-.1h-.4a.1.1,0,0,1,.1-.1c.1,0,.1-.1.2-.1a.76.76,0,0,0,.4-.2c.1,0,.1-.1.2-.1s.2-.1.4-.2l.1-.1c-.1-.4-.1-.4.1-.5h0m-3.3,2.4h0m-1.4.5h0c-.1.1-.1.2-.2.3h0v-.1l.2-.2h0m-.3.5h0m.6.7h0m-.5,0Zm-.3-.4a.1.1,0,0,1-.1.1c-.1.1-.1.1-.1.2h-.1c.1-.2.1-.3.3-.3-.1-.1,0-.1,0,0h0m-.3.5h0m.7,1Zm-.1.5Zm-.2.5h0m-3.2-3.5h0m3.1,3.9h0l-.1.1v-.1s0-.1.1,0h0m-1.7-7c0,.1,0,.1-.1.1a.52.52,0,0,0-.2.4l-.1.1a.1.1,0,0,0-.1.1c0,.1-.1.2-.2.4s-.1.2-.2.3a.1.1,0,0,1-.1.1,1.61,1.61,0,0,0-.4.7l-.1.1-.1.1c-.1.3-.3.5-.4.8V45c0,.1-.1.2-.2.3a.37.37,0,0,0-.1.3v.1l-.2.6v.1c0,.1-.2.1-.1.2v.2c0,.2-.1.3-.1.5l-.1.1s-.1.1,0,.1,0,.2-.1.3-.1.1,0,.1V48a.37.37,0,0,1-.1.3.37.37,0,0,0-.1.3.6.6,0,0,1-.1.4h-.1v-.2a2.2,2.2,0,0,0,.1-.8c0-.1.1-.3.1-.4v-.1a.76.76,0,0,1,.1-.4v-.5c0-.1.1-.2,0-.3v-.1c.1-.2.2-.5.3-.7a1.42,1.42,0,0,0,.2-.6c0-.1.1-.2.2-.4h0c.1-.1.1-.1.1-.2s.1-.1.2-.2a.35.35,0,0,1,.1-.2c0-.1,0-.1.1-.2s.2-.3.3-.4.1-.1.1-.2v-.3l.2-.2c.1-.1.1-.1.1-.2a.35.35,0,0,1,.1-.2c.1-.1.1-.2.2-.3s.1-.2.2-.3h.1a.1.1,0,0,1-.1.1v.2h.1c.2-.1.3-.2.5-.2h0m1.2,6.8Zm-2.9-3.2h0m-.3.8h0m3.1,3.6h0m-1.4-1.1c0,.1-.1.1-.2.1v-.1c.1,0,.1-.1.2,0h0m-.3-6.2h0c-.1,0-.1,0-.1.1l.1-.1h0m-.5.8h0m1.9,4.7h-.1c0,.1-.1.2,0,.3h0a.37.37,0,0,0,.1-.3m-.3-.1Zm-4.7-8Zm-.1.1h0c0,.1,0,.1-.1.1h0c.1.1.1.1.1-.1Zm-.2.4Zm.1,0h0c-.1.1-.1.2-.2.3h.1c0-.1.1-.2.1-.3m-.2.5h0m-.1.5v-.2h0c0,.1-.1.2,0,.2h0m1.9-2.5c0-.1.1-.2,0-.2-.2-.2-.4-.2-.8-.1h-.1c-.1,0-.2,0-.2.1a.37.37,0,0,1-.1.3,1.42,1.42,0,0,0-.2.6v.1l.1-.1c.1-.1.1-.1.1-.2h0v-.1c0-.1.1-.2.1-.3h0v.3a1.69,1.69,0,0,0-.2.5c-.1.3-.2.5-.3.8v.1c.1.1,0,.2-.1.3V41c.1.2,0,.4-.1.7h0c-.1.6-.3,1-.4,1.7l-.6,2.1-.3.9a1.42,1.42,0,0,1-.2.6l-.1.1V47c.1-.3.1-.7.2-1,.1-.5.3-1,.4-1.6l.3-1.5a6.6,6.6,0,0,1,.4-1.1.37.37,0,0,1,.1-.3v-.1l-.1.1v.1a2.39,2.39,0,0,0-.3.7c-.3.9-.6,2-.9,3.1-.1.3-.2.7-.3,1l-.1.1h0c0-.2-.1-.3-.1-.5-.1-.4-.2-.9-.3-1.4-.1-.7-.3-1.3-.4-2a.87.87,0,0,0-1.3-.5c-.3.1-.3.2-.3.4a1.13,1.13,0,0,1-.1.8.22.22,0,0,1-.2.2.74.74,0,0,0-.6.6c-.1.6-.3,1.1-.4,1.7,0,.1-.1.3-.1.4a8.33,8.33,0,0,1-.4,1.5c-.2.5-.3,1.1-.5,1.6-.1.2,0,.3.1.4s.3.1.3.2a.4.4,0,0,0,.4.2c.2.1.3,0,.4-.2v-.1a8.33,8.33,0,0,0,.4-1.5.1.1,0,0,1,.1-.1c.1-.3.3-.7.4-1a1.49,1.49,0,0,1,.3-.7,4.42,4.42,0,0,1,.5-1.5.1.1,0,0,1,.1-.1l.1.1a.31.31,0,0,1,.1.2c.2,0,.2.1.3.1s.2.1-.1.2a.1.1,0,0,0-.1.1,2.2,2.2,0,0,0,.1.8c0,.2.1.2.3.1h.2l-.1.1a.55.55,0,0,0-.3.5,5.16,5.16,0,0,1,.2,1.1,3.4,3.4,0,0,1,.2,1.4c0,.1.1.2.2.3a1.53,1.53,0,0,1,.7.5.75.75,0,0,0,.5.1c.2,0,.2-.2.3-.3s.1-.5.2-.7c.1-.6.2-1.1.3-1.6s.2-.9.3-1.3.3-1,.4-1.6l.3-1.2a2.92,2.92,0,0,0,.2-.9,1.08,1.08,0,0,1,.1-.6c.1-.2.1-.3.2-.5.1-.4,0-.5.1-.8,0,0,.1-.1,0-.1s0-.1,0-.2l.1-.1v-.2c0-.1.1-.2.2-.3s.2-.2.3-.3a1.64,1.64,0,0,1,.1-1m-.7.5-.1.1-.1-.1h.2m0,.3h0m-.3.6Zm-.1.4h0c-.1.1-.1,0,0,0h0m-.4,1h0m0,.4Zm-.1.8h-.1c-.1,0-.1.1-.2.1a.31.31,0,0,0-.2.1.77.77,0,0,1,.2-.3.14.14,0,0,1,.2,0c.1,0,.1,0,.1.1m-.9,3Zm-3-2Zm.5.5a.37.37,0,0,1-.3.1h-.1c.1-.1.2-.1.2-.2s.1.1.2.1m.4,1.6Zm.2.9Zm.1.4c0,.1-.1.1,0,0h0m.3.9a.1.1,0,0,0-.1.1.1.1,0,0,1-.1-.1l.1-.1a.1.1,0,0,0,.1.1m-4.7-5.2h0v-.5a.22.22,0,0,0-.2-.2.35.35,0,0,1-.2-.1c-.1-.1-.2-.1-.4-.1h-.1c-.2.1-.2.1-.3.3v.1c.1.1,0,.2,0,.4a1.42,1.42,0,0,0-.2.6c0,.3-.2.5-.2.8v.1l-.3.9a6.47,6.47,0,0,0-.4,1.3v.1a.37.37,0,0,0-.1.3V47c-.1.3-.1.6-.2.8a1.42,1.42,0,0,1-.2.6,1.27,1.27,0,0,0-.1.6c0,.1.1.2.2.3s.2,0,.2-.1.1-.1.1-.2c.2-.3.5-.5.7-.8a.1.1,0,0,1,.1-.1,3.55,3.55,0,0,0,.4-.9v-.1a5.36,5.36,0,0,1,.5-1.1c0-.1.1-.3.1-.4s.1-.2.1-.3,0-.1.1-.2.1-.2.1-.3a.9.9,0,0,0,.1-.5c0-.2.1-.4.1-.6v-.2a1.27,1.27,0,0,1,.1-.6h0m-2.5.3c.1-.1.1-.2-.1-.3v-.1c.1-.1.1-.1,0-.2s-.1-.1-.1-.2,0-.2-.1-.2-.2-.2-.2-.4l-.1-.1c-.1,0-.1-.1-.1-.2s0-.3-.2-.4l-.2-.2c-.1-.1-.1-.1-.2-.1s-.3-.2-.5-.3-.5-.2-.8-.3-.6-.1-.9-.2a7.57,7.57,0,0,0-1.5.1l-.9.3a4.05,4.05,0,0,0-.9.5c-.1.1-.2.2-.3.2a.52.52,0,0,0-.2.4c0,.1,0,.3.2.3s.3,0,.4-.1a.76.76,0,0,1,.4-.2,1.45,1.45,0,0,1,.7-.2,6.12,6.12,0,0,1,1.2-.5,4.25,4.25,0,0,1,1.1-.2,1.48,1.48,0,0,1,.7.1c.1.1.3.1.3.2l.1.1a1,1,0,0,1,.4.5.76.76,0,0,1,.2.4c0,.1,0,.1.1.2a.9.9,0,0,0,.1.5c0,.2-.1.3-.1.5s-.1.2-.2.3a4.49,4.49,0,0,1-1.1,1.3c-.2.2-.4.3-.6.5a4.13,4.13,0,0,1-1.1.7c-.1,0-.1,0-.2.1l.1-.1v-.4c0-.2.1-.3.2-.5s.2-.5.3-.7a4.05,4.05,0,0,1,.5-.9.52.52,0,0,0,.2-.4c.1-.2.1-.4.3-.5s.1-.1,0-.2-.1-.1-.1-.2,0-.3-.1-.4a1.42,1.42,0,0,0-.6-.2.66.66,0,0,0-.7.2,1.38,1.38,0,0,0-.3.4l-.6,1.2c-.2.4-.4.8-.6,1.3a.37.37,0,0,1-.1.3V45c-.1.2-.2.3-.2.5s-.1.4-.2.5v.1a1.45,1.45,0,0,0-.2.7,1.88,1.88,0,0,0-.2.8c-.1.2-.1.4-.2.6a4.33,4.33,0,0,1-.1.5v.1h.1a.1.1,0,0,0,.1-.1.37.37,0,0,0,.1-.3c0-.1.1-.3.1-.4a.31.31,0,0,1,.1-.2h.1s.1.1,0,.1a.14.14,0,0,0,0,.2v.1a.37.37,0,0,0-.1.3,1.85,1.85,0,0,1-.2.7c0,.1-.1.2-.1.3V50c-.1.3,0,.6-.1.9V51h.1c.2-.1.2-.3.1-.5a.37.37,0,0,1,.1-.3c.1,0,.1-.1,0-.1s-.1-.1,0-.1.2-.3.3-.4a.9.9,0,0,0,.1-.5.22.22,0,0,1,.2-.2h.1V49c0,.1-.1.2-.1.3s0,.1.1.1a.35.35,0,0,0,.2-.1c.1-.1.1-.1.1-.2h0a.1.1,0,0,1-.1-.1c0-.1-.1-.1-.1,0s-.2.1-.3.1h-.1V49c.1-.1.3-.1.4-.2s.1,0,.2-.1.2-.1,0-.1v-.1c0-.1.1-.2.2-.3a.55.55,0,0,0,.3-.5c0-.2.2-.3.4-.4s.1,0,.2-.1.4-.1.6-.3h.1a2.19,2.19,0,0,0,.5-.3c.1-.1.2-.1.2-.2a1.61,1.61,0,0,0,.7-.4c.1-.1.2-.1.2-.2s.3-.2.4-.3l.7-.7c.3-.2.4-.6.7-.8.1,0,0-.1.1-.2v-.1c0-.1.1-.1.1-.2a.6.6,0,0,0,.1-.4c.4.2.4.1.4.1m-1.2.6a.1.1,0,0,1-.1.1c0,.1-.1.1-.1.2a.52.52,0,0,1-.2.4c-.1.3-.5.5-.7.7l-.2.2s-.1.1,0,.1h0c-.2.1-.3.3-.5.4H166a.1.1,0,0,0-.1-.1c0-.1-.1-.1,0-.2a.1.1,0,0,0,.1-.1,6,6,0,0,0,.8-.8c.2-.3.5-.5.6-.9.3.1.3,0,.5,0-.1-.1,0-.1,0,0h0M166.4,46h0m-2.1-2.2-.1.1c-.1.1-.2.2-.2.3s-.2.5-.3.7-.2.3-.3.5h-.1c0-.1-.1-.1-.1-.2v-.1c.2-.1.2-.3.3-.5s.1-.3.2-.5.1-.2.2-.4c.2.1.2,0,.4.1h0m-1,2-.1.1v-.1c.1-.1.1-.2.2-.2h0a.31.31,0,0,0-.1.2m-.1.3-.1.1-.1.1h0v-.1a.31.31,0,0,1,.2-.1h0m-.1.5-.1.1h-.2a.1.1,0,0,1,.1-.1c0-.1.1-.1.2,0-.1-.1,0-.1,0,0m-.3.3v.2l-.1.1h0v-.1c0-.1,0-.1.1-.2-.1-.1,0-.1,0,0,0-.1.1,0,0,0m.1.4c-.1.1-.1.3-.2.4s-.1.1-.2.1h-.1v-.1l.1-.1c.1,0,.1-.1.1-.2a.22.22,0,0,1,.3-.1h0m.3,1h0m-.1.4h0c-.1,0,0-.1,0,0Zm-.6-.7-.1.1V48s0-.1.1,0h0m-.6,1.9c-.1-.1,0-.2,0-.3a.37.37,0,0,1,.1-.3.1.1,0,0,0-.1-.1l-.1.1c0,.2-.1.4-.1.7a.1.1,0,0,0,.1.1c-.1,0,0-.1.1-.2h0m.8.7h0c-.2-.1-.3,0-.3.1l.1.1Zm-.9-.3c0-.1-.1-.1,0,0h0m.1,1.8c.1-.1,0-.2,0-.4s0-.1-.1-.2,0-.4,0-.5v-.5a.1.1,0,0,0-.1.1v.1a.9.9,0,0,1-.1.5v1l.1.1.2-.2m-1.5-9.6h0l-.1.1h0a.1.1,0,0,0,.1-.1Zm-.3.3h0m-.3,1.7h0m0,.3Zm.3.7Zm-.5.2c.1-.2,0-.4,0-.5h-.1c-.1.1-.2.1-.2.2v.3c0,.1,0,.1-.1,0s-.1,0-.1.1.2.2.2.2h.1c.1,0,.1,0,.1-.1S159.5,45.7,159.6,45.7Zm-.4.8h0c-.1,0-.1,0-.1.1h0c.1,0,.1,0,.1-.1m-.3.1h0c-.1.1-.1.1-.1.2v.1h0c0-.2.1-.2.1-.3m.1.5a.1.1,0,0,0-.2,0v.2h.1a.31.31,0,0,0,.1-.2h0m-.3,0h0m.2.6h0c-.1-.1-.1,0,0,0h0m3.3-6.5c0-.2.1-.4,0-.6a.32.32,0,0,0-.3-.3c-.1,0-.2-.1-.3,0h-.2c-.2,0-.3.1-.4.1h-.1c0-.1-.1,0-.1,0s-.3.2-.4.3,0,.1,0,.1.1.1,0,.1l-.1.1c0-.1-.1-.1-.2-.1l-.1.1a1.38,1.38,0,0,0-.3.4c-.2.2-.4.5-.6.7a10.54,10.54,0,0,0-.7,1.1c-.1.1-.1.2-.2.3a5.94,5.94,0,0,0-.4.8c-.1.3-.3.5-.4.8-.1.1-.1.3-.2.4l-.3.6-.1.1h-.1v-.1a.9.9,0,0,0-.1-.5v-.1a.9.9,0,0,0,.1-.5.9.9,0,0,1,.1-.5v-.6c0-.1-.1-.3-.1-.4s0-.1-.1-.2a.52.52,0,0,0-.2-.4c-.1-.1-.1-.1-.2-.1h-.3a.6.6,0,0,0-.4.1v-.3c-.1.1-.1.1-.2.1a.31.31,0,0,0-.2.1.1.1,0,0,1-.1.1c-.1.1-.1.1-.2.1h0c-.2-.1-.2-.1-.5,0a.78.78,0,0,0-.4.4c0,.1-.1.1-.1.2s-.1.2-.2.3,0,.1-.1.2a.35.35,0,0,1-.1.2c0,.1,0,.1-.1.2a.37.37,0,0,0-.1.3v.1c0,.1-.1.1-.1.2s.1,0,.1.1h0v.1c-.1,0-.1.1-.2.2a.1.1,0,0,1-.1.1c-.1.1-.1.1-.1.2s.1,0,.1,0v.1l-.1.1c-.1.1-.2.1-.1.2l.1.1h-.2s.1,0,0,.1h-.2l-.1.1c0,.1-.1.2-.1.3h.2v.1a.22.22,0,0,1-.2.2l-.1.1c-.1.1,0,.2.1.2h0l-.1.1c-.1,0-.1,0-.1.1s-.1.1-.1.2v.1a.37.37,0,0,1-.1.3c0,.1,0,.1.1.1h.1l-.1.1h0a.1.1,0,0,0-.1.1,1.42,1.42,0,0,1-.2.6v.2c0,.1,0,.1.1.1a.1.1,0,0,1,.1.1s.1.1.1,0h.3a.37.37,0,0,0,.3-.1.1.1,0,0,0,.1-.1c.1,0,.1-.1.2-.2s.1-.1.1-.2.1-.4.1-.6a.37.37,0,0,0,.1-.3.1.1,0,0,1,.1-.1l.3-.6c0-.1.1-.2.1-.3s.1-.2.1-.3.1-.2.2-.3a4.88,4.88,0,0,0,.3-.7v-.3a4.88,4.88,0,0,0,.3-.7c0-.1.1-.2,0-.3v-.2l.2-.2v.3a.19.19,0,0,1,0,.3v.8c0,.1,0,.2.1.2s.1,0,0,.1-.1.1-.1.2v.4c.1.1.1.2.1.4h0a1.7,1.7,0,0,0,.1.7c0,.2.1.4.1.6a.32.32,0,0,0,.3.3c.1,0,.2.1.3.1s.1.1.2.1.2.1.3.1.3-.1.3-.2a.37.37,0,0,1,.1-.3.1.1,0,0,1,.1-.1v-.1c.1-.1.1-.3.2-.5v-.1a.37.37,0,0,0,.1-.3v-.1c.1,0,.1-.1.1-.2v-.2c.1-.1.1-.2.2-.3s.1-.1.1-.2a.1.1,0,0,1,.1-.1.35.35,0,0,1,.1-.2.37.37,0,0,1,.1-.3c.1-.1.1-.1,0-.2s0-.2.1-.2h.1c.1,0,.1-.1.1-.2v-.2c.1-.1.1-.1,0-.2s0-.1.1-.2h.2a.37.37,0,0,0,.1-.3c0-.1,0-.1-.1-.1h0a.22.22,0,0,0,.2-.2.1.1,0,0,1,.1-.1.1.1,0,0,0,.1-.1.35.35,0,0,1,.1-.2v-.1c0-.1.1-.1.1-.2h.1c.1-.1.1-.2.2-.3a.1.1,0,0,1,.1-.1c.1,0,.1,0,.1-.1v-.1c.1,0,.1-.1.2-.2a.1.1,0,0,1,.1-.1l.1-.1c.1-.1.1-.1.2-.1s0,.1,0,.1v.2h-.1a.1.1,0,0,0-.1.1v.3c-.1.1-.2.2-.3.2s-.2.1-.3.3v.1h.1a.1.1,0,0,0,.1-.1h.1v.1c0,.1-.1.2-.1.3s-.1.2-.1.3-.1.1-.1,0a.1.1,0,0,1-.1-.1c0-.1-.1,0-.2,0a2828450.43,2828450.43,0,0,1-.2.2h-.1c0,.1-.1.2.1.2v.1h.1c.1,0,.1-.1.1-.2v-.1h.2a.37.37,0,0,0,.3.1V44l-.1.1a.1.1,0,0,0-.1.1c-.1.1-.1.3-.2.4h0a1.42,1.42,0,0,1-.2.6v.2c.1.1.1.1,0,.1a.1.1,0,0,1-.1.1v.2h0l.1-.1a.35.35,0,0,0,.2-.1h.1a.1.1,0,0,1,.1.1c0,.1-.1.3-.1.4v.1h-.1v-.1l-.1-.1a.1.1,0,0,0-.1.1.1.1,0,0,1-.1.1h-.1c-.1.1-.1.1-.1.2s-.1.1-.1.2v.1c-.1.2,0,.3-.1.5v.1a.35.35,0,0,1-.1.2c0,.1-.1.2-.1.3a.1.1,0,0,0,.2,0v-.1c.1-.2.2-.2.4-.1h.1c0,.1-.1.3-.1.4a.1.1,0,0,1-.1.1h-.1c-.1,0-.1.1,0,.2s.1.1.1.2,0,.1-.1.2-.1.1,0,.2V49c-.1,0-.1.1-.1.2v.1a.73.73,0,0,1-.2.6v.3c0,.1-.1.2,0,.3v.1a.37.37,0,0,1-.3.1h0c.1-.1.1-.1.1-.2v-.3a.37.37,0,0,0,.1-.3v-.1c.1,0,.1-.1.1-.2v-.1c0-.1.1-.2.2-.3l.2-.2v-.1c0-.1-.1-.1-.1-.2v-.1h.3a.1.1,0,1,0,0-.2h0v-.1l.1-.1v-.1h-.1a.55.55,0,0,0-.3.5c0,.2,0,.3-.2.4s0,.1,0,.1h.1a.22.22,0,0,0-.2.2c0,.2-.1.3-.1.5s-.1.2-.1.1,0-.1,0-.2,0-.1.1-.2a.6.6,0,0,0,.1-.4c0-.1,0-.1-.1,0s-.1.1-.1,0h-.1c0,.1-.1.2-.1.3v.2c0,.1-.1.1-.1.2s-.1.3-.1.4,0,.1.1.1a.1.1,0,0,1,.1.1v.2c-.1.1-.1.2-.2.3a.19.19,0,0,0,0,.3c.1.1.1.1.2.1s.2,0,.2.1.1.1.2.1h.1l.1-.1h0v.1c-.1.1-.1.1,0,.2h.2c.1,0,.2-.2.2-.3v-.1c.1-.1.1-.3.2-.4v-.1a3.18,3.18,0,0,1,.3-.9v-.1c0-.1.1-.2.1-.3a2.92,2.92,0,0,0,.2-.9c0-.1.1-.1.1-.2s.1-.2.1-.4a.37.37,0,0,1,.1-.3.1.1,0,0,1,.1-.1c0-.3.2-.5.3-.8a.1.1,0,0,1,.1-.1.35.35,0,0,0,.1-.2c0-.2.1-.4.1-.6v-.1c.1-.2.2-.3.2-.5h0c.1-.1.1-.2.1-.4l.3-.6a.35.35,0,0,1,.1-.2.6.6,0,0,1,.1-.4.76.76,0,0,1,.2-.5,2.61,2.61,0,0,1,.3-.8v-.1a5.34,5.34,0,0,1,.4-1.1m-2-.2a.1.1,0,0,1-.1.1h0l.1-.1m.5,1.5Zm-.9-.8h0m-.2,0h0m1.4,1.7h-.2a.1.1,0,0,1,.1-.1c0-.1,0,0,.1.1h0m-.2.5a.1.1,0,0,1-.1.1h0l.1-.1h0m-.2.3Zm.2.2h0m-.2.1h0c0,.1,0,.1-.1.1s-.1.1,0,.1,0,.1-.1.1a.1.1,0,0,1-.1-.1v-.1c0-.1.1-.1.1-.2,0,.1.1.1.2.1h0m-.2.5h-.2a.1.1,0,0,1-.1-.1s.1-.1.1,0a.31.31,0,0,1,.2.1h0m-1-2.8c-.1.1-.1.2-.2.2s-.1,0-.1.1v.2c-.1.1-.2.3-.3.4h0c0,.1-.1.2-.1.3s-.1.1-.1.2l-.1.1a.37.37,0,0,0-.1.3v.1c-.2.3-.3.6-.5.9,0,.1-.1.1-.1.2v.1a.52.52,0,0,0-.2.4c-.1.1-.1.1-.1.2h-.1v-.1c0-.1,0-.1.1-.2s.1-.1.1-.2a.37.37,0,0,1,.1-.3V45c0-.1,0-.1.1-.1a.1.1,0,0,1,.1-.1v-.1c0-.1.1-.1.1-.2s.1,0,.1-.1,0-.1.1-.1.2-.2.2-.3v-.1a.1.1,0,0,1,.1-.1c.1,0,.1-.1.1-.2a.78.78,0,0,1,.4-.4s.1,0,0-.1-.1-.1,0-.1,0-.1.1-.2a.1.1,0,0,0,.1-.1c0-.1.1-.1.1-.2a.27.27,0,0,1,.3-.3Zm-1,1.9Zm1.7,2v.2c0,.1-.1.1-.2.1h-.1c-.1,0-.1-.1,0-.1l.2-.2h.1m-.1.6h0c-.2.1-.2.1-.3.1s-.1,0-.1-.1a.1.1,0,0,1,.1-.1h.1l.2.1c-.1-.1,0-.1,0,0m-.1.2h0l-.1.1a.22.22,0,0,0-.2-.2h.2c0,.1,0,.1.1.1m-2.8-.9a.52.52,0,0,1-.2.4h0v-.1c.1,0,.1-.2.2-.3h0m1.4,3.6a.31.31,0,0,0-.1.2.14.14,0,0,0,0,.2v.2h0v-.1a.19.19,0,0,1,0-.3v-.2c-.1.1-.1,0,.1,0h0M153.2,45Zm5.6,2.9h0c0-.2-.1-.2-.2-.1a.37.37,0,0,0-.1.3.37.37,0,0,1-.1.3v.1a.1.1,0,0,0,.1.1c.1,0,.1,0,.1-.1s0-.2.1-.2c0-.2.1-.3.1-.4m-6.5-5.2c.1-.3,0-.5-.3-.5a1.7,1.7,0,0,0-.7.1h-.1v-.2h-.1c-.1,0-.1.1-.2.1s-.2,0-.2.1c-.2.3-.4.7-.6,1l-1.2,2.1c-.3.4-.6.9-.9,1.3l-.9,1.2c0,.1-.1.1-.2.1v-.3c.1-.3.3-.6.4-.9a2.27,2.27,0,0,1,.6-1.2c.1,0,.1-.1.1-.2a.37.37,0,0,1,.1-.3c.3-.2.2-.5.5-.8.2-.1.2-.4.3-.6s0-.5-.3-.5l-.1-.1a.52.52,0,0,0-.4-.2.6.6,0,0,0-.4.1,2.65,2.65,0,0,0-.5.6,14.17,14.17,0,0,0-.8,1.8,13.35,13.35,0,0,0-.7,1.8v.1l.1-.1v-.1c.1-.2.2-.3.3-.5s.2-.5.3-.7h0a.37.37,0,0,0,.1-.3c0-.1.1-.2.2-.1s.1,0,.1.2-.2.2-.1.3-.2.5-.2.7-.4.3-.2.5a.1.1,0,0,0-.1.1l-.1.1a1.27,1.27,0,0,1-.1.6,4.12,4.12,0,0,0-.3.8l-.1.1c-.1-.1-.2-.1-.2-.2s0-.4.1-.6a1.27,1.27,0,0,0,.1-.6v-.2c-.1.1-.2.1-.3.2v.1a4.33,4.33,0,0,1-.1.5c-.1.4-.1.8.5.9h0a1.08,1.08,0,0,0,.8.2.76.76,0,0,0,.5-.2,2.65,2.65,0,0,0,.6-.5c.2-.2.5-.3.5-.6v-.1c.1-.1.1-.2.2-.4s.1-.4.4-.4a.35.35,0,0,0,.1-.2c-.1-.1,0-.1.1-.1s.3-.4.2-.5h0l-.1-.1c0-.1.1-.1.1-.2h0V46l.1-.1c.1-.1.1-.2.2-.2a.1.1,0,0,0,.1-.1l.1-.1h-.3c.1-.1.1-.2.2-.2s.4-.2.4-.3a.1.1,0,0,1,.1-.1l.1.1v.2l-.3.9c-.1.4-.2.7-.3,1a.35.35,0,0,1-.1.2c0,.3-.1.6-.1.9s-.2.4-.1.5-.1.4-.1.6a.22.22,0,0,1-.3-.1v.1h0a4.35,4.35,0,0,0,.7.4c.1.1.3,0,.5,0s.2-.1.3-.1v-.1c0-.1-.2-.1,0-.3V49c.1-.2.2-.4.1-.5s0-.2,0-.3,0-.3.1-.4.1-.3.2-.5.1-.2,0-.2,0-.2,0-.3.2-.2.2-.3a.31.31,0,0,0,.1-.2.45.45,0,0,1,0-.5c0-.1.1-.1.2-.2l.1-.1c-.1-.1,0-.1,0-.2s0-.2.1-.3v-.3a.35.35,0,0,1,.1-.2c0-.1.1-.1.2-.2h-.1v-.1c.1-.2,0-.4.3-.6v-.1c.1-.2.1-.3.2-.5s.1-.2.2-.3c-.1.4-.1.2,0,0m-1.4,1.4Zm-.4,0h0m.6.7Zm-.5-.4h-.1s0-.1.1,0h0m-.3-.1Zm.9,1.1ZM149.9,44a.1.1,0,0,1-.1.1c0-.1,0-.1.1-.1h0m1.2,1.3h0m-.3-.4-.1.1a.1.1,0,0,1-.1.1.1.1,0,0,0-.1-.1v-.1c.1,0,.1-.2.3,0h0m-.5-.3h0m0,.3h0c0-.1,0-.2.1-.2l.1.1Zm.8.6-.1.1h-.3v-.1h.4m-1.3-1.3Zm0,.2Zm.6-.7c-.3.4-.5.9-.8,1.4-.1.1-.1.3-.3.2s0-.2.1-.3.1-.3.2-.4l.1-.1c.2-.1.2-.2.2-.3v-.1c.1-.2.2-.3.3-.5l.2.1Zm.2,1.6Zm.4.4h0m-1.3-1.4Zm1.1,1h0c-.2.1-.2.2-.3.3q0-.15.3-.3h0m-.8-.5Zm.3.2Zm-.6-.5h-.2c.1-.1.1-.1.2,0-.1-.1,0-.1,0,0m.5.8h-.1c.1,0,.1-.1.1,0Zm-.1-.2Zm.6.9Zm-.8-1Zm-.3-.4h0m1,1.1-.2.2-.1-.1a.37.37,0,0,1,.3-.1h0m.1.5Zm-.3-.3Zm-.6-.6Zm.8,1.1Zm-.2-.4h0c0,.2-.1.3-.1.4l-.1.1h-.1v-.1a.35.35,0,0,1,.1-.2l.2-.2h0m.4.5a.37.37,0,0,1-.1.3l-.2.1-.1-.2c.2-.1.3-.2.4-.2h0m-1.4-1Zm-.1-.1Zm.8,1.3h0l-.1-.1c.1,0,.1,0,.1.1.1-.1.1-.1.2,0Zm.7.5h-.3a.1.1,0,0,0-.1.1l.1.1h0c-.1.1-.2.1-.2.2v-.2a.1.1,0,0,1,.1-.1l.1-.1h.3c-.1-.1,0-.1,0,0m-1.4-1.6a1,1,0,0,1-.4.5.31.31,0,0,0-.2.1c0-.1,0-.1.1-.1s.1-.2.2-.3,0-.3.3-.2h0m.8,1.4c0,.1-.1.2-.1.3l-.1.1v-.1a.37.37,0,0,1,.1-.3s0-.1.1,0h0m.3.8Zm-.3,0h0l.2-.2h0Zm.2,0h0c-.1.1-.1,0-.1,0Zm-.4-.3Zm.3.6Zm-.5-.2h0c.1-.1.1-.2.2-.2l.1.1Zm.4.3ZM149,47Zm.9,1Zm.2.5h0a.1.1,0,0,1,.1-.1h.1Zm-1.5-1.9-.2.2v-.1c.1,0,.1-.1.2-.1h0m-1.7-1.4h0l.1-.2h0Zm3.1,3.6h0l.1-.1Zm-.3-.2h0a.35.35,0,0,1,.1-.2l.1.1Zm.1.2h0m.2.3c-.1,0-.1.1-.2.1h0c.1-.1.1-.1.2-.1Zm-3.1-3.7c0,.1-.2.2-.2.4a.1.1,0,0,1-.2,0c.1-.2.3-.3.4-.4h0m3.3,3.9a.35.35,0,0,0-.1.2v-.1l.1-.1Zm-.6,0Zm0,.1Zm-3.7-2.5Zm.7.9Zm.8-6.8h-.2a.37.37,0,0,0-.3.1,1.42,1.42,0,0,0-.6.2,6.37,6.37,0,0,1-.7.2c-.3.1-.5.1-.8.2s-.4.1-.6.1a1.42,1.42,0,0,0-.6.2h-.2c-.1,0-.1-.1-.2-.1h-.1c-.1.2-.3.2-.4.3a.37.37,0,0,0-.3.1,4.33,4.33,0,0,0-.5.1.75.75,0,0,0-.5.1h-.2a.6.6,0,0,0-.4.1.76.76,0,0,0-.4.2.19.19,0,0,0,0,.3l.2.2h.7c.1.1.1.1.2.1s.1,0,.2.1h.2a6.37,6.37,0,0,0,.7-.2h.2c.1,0,.1,0,.1.1-.1.3-.1.5-.2.8v.2a.37.37,0,0,1-.1.3.6.6,0,0,0-.1.4.1.1,0,0,1-.1.1c-.1.2-.1.5-.2.7s-.1.6-.2.8v.1c-.1.3-.1.5-.2.8,0,.1-.1.1-.1.2l-.6.3a.22.22,0,0,0-.2.2,1.38,1.38,0,0,1-.4.3h0c-.1.1-.1.1-.2.1s-.2.1-.3.2l-.3.3-.3.3c-.1.1-.2.2-.3.2s-.1.1-.2.1l-.3.3c-.1.1-.2.2-.3.2v.1c0,.1,0,.1-.1.1s-.3.3-.4.4l-.1.1c0,.1,0,.1-.1.2s-.1.3,0,.4,0,.1.1.2a1.33,1.33,0,0,0,.3.5l.1.1c.1.2.2.2.4.3h.5a.75.75,0,0,0,.5-.1h.2s0,.1.1,0v-.2a.1.1,0,0,0-.1-.1c.1-.1.1,0,.2,0a.35.35,0,0,0,.2-.1l.1-.1c.1,0,.1,0,.2-.1h.1a.31.31,0,0,1,.2-.1h.2c.1-.1.1-.1.2-.1a.22.22,0,0,0,.2-.2l.1-.1h0c-.1,0-.1.1-.2.1h-.1l.1-.1v-.3c.1-.1.2-.1.3-.2a.1.1,0,0,1,.1.1l-.1.1v.1h.1l.1-.1c.1-.1.1-.1.1-.2s.1-.1,0-.1h0v-.1h.1a.22.22,0,0,0,.2-.2.1.1,0,0,0,.1-.1v-.2c0-.1.1-.1.2-.2s.2-.2.1-.3v-.1l.1-.1c0-.1,0-.1.1-.2a.35.35,0,0,0,.1-.2c0-.1.1-.1.1-.2a1.42,1.42,0,0,0,.2-.6,1.42,1.42,0,0,1,.2-.6c0-.1.1-.3.1-.4a2.24,2.24,0,0,1,.3-1h0c0-.2.1-.4.1-.6v-.1a1.85,1.85,0,0,0,.2-.7c0-.1,0-.1.1-.2v-.1c0-.1.1-.2.1-.3s.1-.1.1-.2a.6.6,0,0,1,.1-.4c.1-.1.2-.3.1-.4v-.7c0-.1,0-.1.1-.1s.1,0,.2-.1a1.42,1.42,0,0,1,.6-.2.76.76,0,0,0,.5-.2c.1,0,.1,0,.1-.1h0a.76.76,0,0,1,.4-.2c.1,0,.1,0,.1-.1a.1.1,0,0,1,.1-.1.1.1,0,0,0,.1-.1,1.79,1.79,0,0,1,.7-.5h0m-4.6,3.9h0m-.4,1.1h-.2v-.1h0c.2,0,.2,0,.2.1h0m0,.4h0c-.1.1-.2.1-.2,0a.19.19,0,0,1,0-.3s.1-.1.1,0a.1.1,0,0,1,.1.1v.2m-.1.2v.2a.1.1,0,0,0-.1.1l-.1-.1c0-.1,0-.1.1-.1s0-.2.1-.1h0m-.1.7h0a.31.31,0,0,1-.2.1.1.1,0,0,1-.1-.1.37.37,0,0,1,.1-.3h0c0-.1.1-.1.1,0s.1.1.1.3h0m-.1,1.8h0m-.2-.6a2828450.43,2828450.43,0,0,1-.2.2v.2c0,.1,0,.1-.1.2a.35.35,0,0,1-.1.2c0,.1-.1.2-.2.3h0v-.4a.37.37,0,0,0,.1-.3c0-.1,0-.1.1-.2s.1-.3.2-.4a.1.1,0,0,1,.1-.1c0-.1.1,0,.1,0v.3m0,.9Zm-1.3-.4h0c-.1,0-.1-.1,0,0-.1-.1,0-.1,0,0Zm-.1.1h0c-.1,0-.1-.1,0,0h0m.7.9c-.1.2-.2.3-.3.5l-.1.1-.1.1v-.2c.1-.1.1-.3.2-.4l.1-.1c.2-.1.2-.1.2,0,.1-.1.1,0,0,0m.1-1.6-.2.2s-.1.1,0,.1a.6.6,0,0,1-.1.4.1.1,0,0,1-.1.1l-.1.1c-.1.1-.1.1-.1.3s0,.1-.1.2-.4.5-.6.7a.1.1,0,0,0-.1.1l-.6.6c-.1.1-.2.1-.3.2a.19.19,0,0,1-.3,0c0-.1-.1-.1-.2,0h-.2v-.1l.1-.1c.2,0,.3-.2.4-.3l.1-.1c.1,0,.1,0,.1-.1s0-.1.1-.1a.1.1,0,0,0,.1-.1.22.22,0,0,1,.2-.2c.1-.1.2-.1.2-.2s.1-.1.1-.2h.1c.1-.1.2-.1.2-.3.1,0,.2-.1.3-.1.1-.2.2-.2.3-.3l.1-.1V49c-.1,0-.1,0-.2-.1.1,0,.1-.1.2-.1a6.12,6.12,0,0,1,.6-.4h0m-.7,3.1h0m-.2,0h0c0-.1.1-.1,0,0Zm-.1.3h0c0-.1.1-.1,0,0,.1-.1.1,0,0,0Zm0-.2c-.1.1-.2.2-.3.2h0c0-.1.2-.2.3-.2h0m-.6-.2a.22.22,0,0,1-.2.2l-.2.2a314299,314299,0,0,0-.2.2h-.2c-.1,0-.1.1-.2.1h-.1v-.2h.1c.1-.1.2-.1.3-.2s.2-.2.3-.2.2-.2.3-.2l.1.1h0m-5.8-7.7a.19.19,0,0,0,0-.3c0-.1-.1-.1-.1-.2a.35.35,0,0,0-.1-.2l-.1-.1c-.1-.1-.1-.3-.3-.3h0c0-.1,0-.2-.1-.2s-.1-.1-.2-.1-.2-.2-.3-.2-.3-.1-.5-.2-.3-.2-.5-.2-.2-.1-.4-.1a.35.35,0,0,0-.2-.1c-.3-.1-.5-.1-.8-.2h-1.2c-.2,0-.5.1-.7.1a2.35,2.35,0,0,0-.8.2c-.1,0-.2.1-.3.1a4.4,4.4,0,0,0-1,.2l-.9.3c-.2.1-.4.1-.6.3s-.2.3,0,.4a.3.3,0,0,0,.4,0c.2,0,.4-.1.6,0a1.45,1.45,0,0,0,.7-.2c.1-.1.2-.1.4-.2a.37.37,0,0,0,.3-.1,1.48,1.48,0,0,1,.7-.1c.1,0,.1,0,.1.1s0,.1-.1.1-.1.3-.2.4-.1.2-.1.3-.1.1-.1.2a4.18,4.18,0,0,1-.4,1v.2h.2l-.1.1h0c-.1,0-.2.1-.3.2a.37.37,0,0,1-.1.3c-.1.1-.1.1-.1.2s-.1.1-.1.2v.1a.52.52,0,0,1-.2.4.37.37,0,0,0-.1.3v.1l-.3.6-.3.6-.1.1c-.1,0-.2.2-.4.2h-.1a.37.37,0,0,0-.3.1h-.2c0-.1-.1,0-.1,0a.31.31,0,0,0-.1.2c0,.1.1.3.2.3s.2.1.3.2l.2.2v.1a1.42,1.42,0,0,1-.2.6c-.1.2-.1.4-.2.6-.1.4-.3.8-.4,1.2,0,.1,0,.2-.1.2-.1.2.1.4.2.5h.2a.37.37,0,0,0,.3.1c.1,0,.1,0,.2-.1a.31.31,0,0,1,.2-.1s.1,0,0,.1v.1h.1l.1-.1a.22.22,0,0,1,.2-.2.1.1,0,0,0,.1-.1c0-.1,0-.1.1-.2s.1-.1,0-.1v-.1c.1-.1,0-.2,0-.3s.2-.1.2-.2a.1.1,0,0,1,.1-.1h0a.37.37,0,0,0,.1-.3c0-.1,0-.1.1-.2s.2-.1.1-.2,0-.2.1-.2.1-.2.1-.4l-.1-.1s-.2,0-.1-.1a.1.1,0,0,0,.1-.1h.1a.31.31,0,0,0,.2.1c.1-.1.1-.1.2,0s.1.2.3.1h.1c.1,0,.1,0,.2.1s.1.1.2.1h.3a.37.37,0,0,0,.3.1c.2,0,.3.1.5.2h-.2a.1.1,0,0,0,.1.1c.1,0,.2.1.3,0s.4.1.6.1.1,0,.1.1,0,.1.1.1.1,0,.2.1.1.1.1.2V51a.89.89,0,0,0,.5.8l.1.1c.2,0,.3,0,.4.1h.1v-.1c-.1-.1-.2-.1-.3-.2v-.1h.1c.2,0,.3,0,.4-.1s.3-.2.4-.3a1.38,1.38,0,0,0,.3-.4c0-.3,0-.4-.3-.4h-.3c-.1-.1-.2-.1-.4-.2s-.2-.1-.3-.1-.2,0-.2-.1c-.2-.1-.3-.2-.5-.1h-.2c-.1-.1-.1-.1-.2-.1h-.2c-.1-.1-.3-.1-.4-.2s-.3-.1-.5-.2a.9.9,0,0,0-.5-.1c-.1,0-.3,0-.3-.1l-.1-.1c-.2-.1-.4-.1-.6-.2a.35.35,0,0,1-.2-.1c-.1-.1,0-.2,0-.3v-.1c0-.1,0-.2.1-.2s.1-.1,0-.2a.1.1,0,0,0-.1-.1v-.1c.2,0,.2-.2.3-.3v-.1s-.1,0,0-.1a.1.1,0,0,0,.1-.1v-.1h0c-.1-.1-.1-.1,0-.1a5.9,5.9,0,0,0,.8-.4c.1-.1.2-.1.3-.3a.31.31,0,0,0,.2-.1h0a.76.76,0,0,0,.4-.2l.1-.1c0-.1,0-.1.1-.1s.1-.1.2-.1l.2-.2c.1,0,.1,0,.2-.1l-.1.1v.1h.2c.1-.1.3-.2.4-.3a.1.1,0,0,0,.1-.1.76.76,0,0,1,.4-.2h.1v.1a.1.1,0,0,1-.1.1,2.18,2.18,0,0,1-.5.4h-.3c-.1.1-.1.2-.2.2a.22.22,0,0,0-.2.2c-.1.1-.2.2-.3.2a4.35,4.35,0,0,0-.7.4.76.76,0,0,0-.4.2l-.6.3-.1.1c0,.2-.1.3,0,.5v.1c-.1,0-.1.1-.2.1h0c.1,0,.2-.1.3-.1s.3-.2.5-.2.3-.1.4-.2.1-.1.2-.1.2-.1.3-.1.2-.1.2-.2.2-.2.3-.2a.1.1,0,0,0,.1-.1c0-.1,0-.1.1-.1h.1c.1,0,.1,0,.2-.1l.3-.3c.1-.1.3-.1.3-.3h.1c.1,0,.1-.1.2-.1l.2-.2c.1-.1.3-.2.4-.3a.37.37,0,0,1,.3-.1c.1,0,.1,0,.2-.1V45a.1.1,0,0,1,.1-.1.78.78,0,0,0,.4-.4c0-.1.1-.2.2-.3l.1-.1c.1-.1.2-.1.2-.2s.1-.1.1-.2.1-.1.1-.2c.5.3.5.2.5.2m-2,1a.1.1,0,0,1-.1.1h0c0-.1,0-.1.1-.1Zm.5-.2c-.1.1-.1.1-.1.2l-.1.1-.3.3-.3.3h0c0-.1.1-.2.1-.3V45c.1,0,.1-.1.2-.2s.3-.1.5-.3h0m.2-1.4c-.1.2-.1.3-.2.4s-.4.5-.6.7c0,0-.1.1,0,.1s0,.2-.1.2a2.19,2.19,0,0,1-.5.3,2.65,2.65,0,0,0-.6.5l-.1.1a2.51,2.51,0,0,1-.7.4c-.2.1-.4.3-.6.4l-.1.1c-.3.1-.5.3-.8.4h-.1v-.1h.1c.1,0,.2,0,.2-.1a1.42,1.42,0,0,0,.2-.6c0-.2.1-.3.1-.5v-.1a.37.37,0,0,1,.1-.3v-.2a.1.1,0,0,0,.1-.1l.1-.1c.1-.1.1-.3.2-.5a.1.1,0,0,1,.1-.1,5.58,5.58,0,0,0,.5-.8c.1-.1.1-.3.2-.3l.1-.1a.37.37,0,0,1,.1-.3,1.09,1.09,0,0,0,.1-.5c0-.1,0-.1.1-.1h.4a4.3,4.3,0,0,1,1.2.2,1.2,1.2,0,0,1,.7.7c-.2.2-.2.3-.2.3m-1.4,2.2c0,.1-.1.1,0,0-.1.1-.1.1-.2.1s0-.1.2-.1h0m-.4.2c-.1.1-.1.1-.2.1h0a.35.35,0,0,0,.2-.1h0m-.1.8c0,.1-.2.1-.2.1h0c-.1,0,.1-.1.2-.1h0m-2.3-2.4a.1.1,0,0,0-.1.1h0c0-.1,0-.1.1-.1h0m2.3,2.7ZM128,43.9h0c-.1,0-.1-.1,0,0h0m-.2.3h0V44h.1Zm.4.4a.35.35,0,0,1-.2.1v-.1c0-.1,0-.1.1-.2l.1-.1v.3m-.5-.1h0c-.1,0-.1-.1,0,0Zm.3.4h0c-.2.2-.1.3-.3.3a.35.35,0,0,1,.1-.2c.1-.1.1-.1.2-.1Zm1.8,2.1c-.1.1-.1.2-.2.2a.1.1,0,0,1-.1-.1V47h.3m-.5.4Zm0-.2h0a.31.31,0,0,1-.2.1h0l.2-.1h0m-1.6-2.6h0c-.1.1-.2.2-.1.3V45c-.2.3-.2.5-.4.8l-.1.1c-.1,0,0-.1,0-.1a.6.6,0,0,0,.1-.4c.1-.2.1-.3.2-.5s.1-.1,0-.2l.1-.1h.2m.1.8h0a.52.52,0,0,0-.2.4c0,.1-.1.3-.2.3h0c-.1-.2-.1-.2,0-.5a.35.35,0,0,0,.1-.2s.2-.1.3,0h0m1.3,2h0l-.1.1c-.1,0,0-.1.1-.1h0m2,2.9h0m-2.4-2.6a.22.22,0,0,1-.2.2c-.1,0-.1,0-.1-.1s.2-.2.3-.1h0m-.4.1Zm-.8-1.5c-.1.1-.1.1,0,.2v.1a.1.1,0,0,0-.1.1c-.1.1-.1.1-.1.2v.2l-.1.1-.2.2c-.1,0-.2,0-.1-.1s.1-.3.2-.5.2-.1.2-.2.1-.2.2-.3c-.1-.1,0-.1,0,0h0m3.7,5.3h0c-.1.1-.1,0-.1,0v-.1c0,.1,0,0,.1.1h0M127,46.2a.52.52,0,0,1-.2.4.37.37,0,0,0-.1.3c-.1.2-.1.3-.2.5h-.1c0-.1,0-.1.1-.1a.37.37,0,0,0,.1-.3c0-.3.2-.5.2-.7h0c.1-.2.1-.2.2-.1Zm-.1,1.7a.52.52,0,0,1-.4.2h0l.1-.1c.1,0,.2-.1.3-.1h0m-.6.4h0c-.1,0-.1-.1,0,0h0m-.5.1h0c-.1.1-.1.1-.2.1h0c0-.1,0-.1.2-.1h0m.7,1.2h0m-.6-.2h0c-.1.1-.1.2,0,.2v.1c-.1,0-.1,0-.2.1,0-.1,0-.2.2-.4-.1.1-.1,0,0,0-.1-.1,0-.1,0,0h0m.5,1.2Zm-.1-.9c0,.1-.1.1-.1.2s-.1.1,0,.2v.1a.76.76,0,0,1-.2.5c-.1.1-.1.3-.2.4l-.1.1a.1.1,0,0,0-.1-.1.37.37,0,0,0,.1-.3l.1-.1c.1,0,.1-.1.1-.2a.6.6,0,0,1,.1-.4c.1-.1.1-.1.1-.2v-.3c.1-.1.1-.1.2-.1a.14.14,0,0,1,0,.2m-.7.4c0,.1-.1.3-.1.4h-.1v-.1c.1-.1.1-.3.2-.3v-.2c.1.1.1.1,0,.2m.6.9h0c-.1,0-.1-.1,0,0-.1-.1,0-.1,0,0m0,.2h0c-.1.1-.1,0,0,0h0m-.8-.4Zm.7,1h0c-.1,0,0-.1,0,0h0m-.4-.4h0c-.2.1-.2,0-.2,0s0-.1.2,0h0m-.4-.3h0m.1.6Zm.1.2Zm.1.3h-.2v-.1c.1-.1.2-.1.2.1h0m-.6-6a2.2,2.2,0,0,0,.1-.8,1.27,1.27,0,0,1-.1-.6v-.1a4.87,4.87,0,0,0-.4-1.1c0-.1,0-.1-.1-.2a1.16,1.16,0,0,0-.5-.7l-.1-.1a3.92,3.92,0,0,0-1.4-.8c-.3-.1-.7-.1-1-.2h-1.1a1,1,0,0,0-.7.2h-.1c-.2,0-.2.1-.3.2l-.1.1c-.2.2-.4.5-.6.7l-.9,1.2c0,.1-.1.1-.1.2a3,3,0,0,1-.4.8c0,.1-.1.1-.1.2s-.1.3-.2.5-.1.2-.1.3-.1.1-.1.2l-.3.6V47a.1.1,0,0,0,.1-.1l.1-.1a1.61,1.61,0,0,1,.4-.7,1.49,1.49,0,0,0,.3-.7c0-.1.1-.1.1-.2s.1-.1.1-.2h.1c0-.1.1-.1.1-.2s0-.2.1-.1a1.38,1.38,0,0,0,.3-.4c0-.1.1-.1.2-.1a.37.37,0,0,0,.3-.1h.1v-.2c.1,0,.2-.1.3-.2s.2-.2.2-.3h0c.1,0,.1-.1.2,0h.1l.3-.3c.1-.2.3-.2.4-.4a.37.37,0,0,1,.3-.1h.2a.76.76,0,0,1,.4-.2c.1,0,.2-.1.3-.2h.9a1,1,0,0,1,.7.4,3,3,0,0,1,.5.7c0,.1,0,.1.1.1l.1.1c.1,0,.1,0,.1.1s.1.3.1.4v.1c-.1,0,0,.1,0,.1s.1.3.1.4a1.7,1.7,0,0,1,.1.7v.6a.1.1,0,0,0,.1-.1V44.4c0-.2.1-.4-.1-.6v-.1c0-.1,0-.2.1-.2a.35.35,0,0,1,.1.2v.4a1.45,1.45,0,0,1,.2.7v.3a.37.37,0,0,1-.1.3V46c-.1.1-.1.3-.2.4s-.1.3-.2.4v.1c-.1.1-.1.3-.2.3l-.1.1c-.1.3-.3.5-.4.8s-.3.5-.5.8c-.1.1-.2.3-.4.4a1.21,1.21,0,0,1-.5.5l-.2.2a2.65,2.65,0,0,1-.5.6l-.2.2c-.1.1-.2.1-.3.2s-.1.1-.2.1-.2.1-.3.2-.1,0-.2.1-.1.1-.2.1h-.1c-.1,0-.3,0-.3-.1V51a9,9,0,0,1,.3-1.6c0-.1.1-.2.2-.4s.1-.2.1-.4.1-.3.2-.4.1-.2.2-.3.1-.1.1-.2v-.1c0-.1.1-.1.1-.2v-.2a.1.1,0,0,1,.1-.1V47c.1-.1.1-.2.2-.3s.1-.1.1-.2v-.1l.1-.1.2-.2c.1-.1.1-.2.2-.3s.1-.3.3-.4h0c.1-.1.1-.2.2-.3s.2-.3,0-.5-.1-.1-.1-.2-.1-.2-.3-.2a2,2,0,0,0-.8.1.78.78,0,0,0-.4.4l-.1.1a3.51,3.51,0,0,1-.5.8h0a.52.52,0,0,1-.2.4.1.1,0,0,1-.1.1c-.2.4-.5.9-.7,1.4v.2c0,.1,0,.1-.1.2s-.1.1-.1.2v.1a1.88,1.88,0,0,0-.2.8c0,.1,0,.2-.1.2a.44.44,0,0,0-.1.5v.8a1.35,1.35,0,0,0,.5,1.2l.3.3.4.4a.37.37,0,0,0,.3.1h.2a.85.85,0,0,0,.7,0l.6-.3c.1-.1.3-.1.4-.2v-.1h-.1c.1-.1.2-.1.3-.2s.4-.3.6-.3v-.3c0-.1,0-.1.1-.1s.1-.1.2-.1.3-.1.4-.3l.1-.1c0-.2.1-.2.2-.3l.1-.1a2.65,2.65,0,0,1,.5-.6c.1-.1.3-.2.3-.4h0c.2-.1.2-.2.3-.4a.35.35,0,0,1,.1-.2c.1,0,.1-.1.1-.2s.1-.1.1-.2.1-.1.1-.2.1-.3.2-.5v-.1a.19.19,0,0,1,0-.3v-.1a.9.9,0,0,1,.1-.5c-.3-.1-.3-.2-.3-.2m-1.1-2.9Zm1,2h0m-.3,1.8c-.1.1-.1.2-.2.3h-.1a.9.9,0,0,1,.1-.5h.1c.1.1.1.1.1.2Zm-4.5-4.8Zm3.9,5h0c-.1,0-.1-.1,0,0h0m-.2.3h0m-4.3-4.7Zm4.6,5.2c-.1.1-.1.2-.3.3h0c.1-.1.1-.2.2-.3-.1-.1,0-.1.1,0-.1-.1-.1,0,0,0Zm-4.8-4.9Zm-.2.2-.2.2a.14.14,0,0,1,0-.2s0-.1.2,0h0m4.1,5h0m-4.3-4.8c-.1,0-.1.1,0,0h0m4.4,5.5ZM118.5,44Zm4.4,5-.2.2h0c0-.1,0-.1.1-.1-.1-.1,0-.1.1-.1h0m-.3,1.2Zm-5.9-4h0m-.2.3h0c-.1,0-.1.1,0,0h0c0,.2.1.1,0,0m-.2,1.1c0-.1.1-.1,0,0h0c-.1,0-.1.1,0,0h0M118,44h0c0-.2,0-.3-.1-.3a.1.1,0,0,0-.1-.1c-.1,0,0-.1,0-.1v-.1a.35.35,0,0,0-.1-.2.31.31,0,0,0-.2-.1.35.35,0,0,1-.2-.1c-.1-.1-.3-.1-.4-.2h0c-.2,0-.3-.1-.5-.1s-.2-.1-.3,0h-.7a.37.37,0,0,0-.3.1H115c-.3,0-.6.1-.9.1h0c-.1,0-.1,0-.2-.1a.1.1,0,0,0-.1-.1.55.55,0,0,0-.5.2.35.35,0,0,1-.2.1,1.85,1.85,0,0,1-.7.2h-.1c-.2,0-.3.1-.5.1h-.6c-.1,0-.1.1-.2.2v.2a2.65,2.65,0,0,0,.5.6.1.1,0,0,0,.1.1.61.61,0,0,0,.6.1h.1c.1.1.2,0,.4-.1h.2v.2c-.1.1-.1.3-.2.4a6.89,6.89,0,0,1-.3.8V46a1.06,1.06,0,0,1-.2.5c-.1.2-.1.4-.2.6,0,0-.1.1,0,.1s0,.2-.1.2-.1.1-.2.1-.2.3-.2.5,0,.2,0,.4a.37.37,0,0,0-.1.3,1.42,1.42,0,0,0-.2.6c-.1.4-.3.8-.4,1.3-.1.2-.1.4-.2.6a3.09,3.09,0,0,0-.2.8v.5s0,.1.1,0a.1.1,0,0,0,.1-.1v-.3a.6.6,0,0,1,.1-.4v-.2c0-.1.1-.1.1-.2a.6.6,0,0,1,.1-.4l.1-.1c.1-.1.1-.3.2-.4a1.42,1.42,0,0,1,.2-.6c0-.1.1-.2.1-.3a.6.6,0,0,1,.1-.4.75.75,0,0,0,.1-.5v-.1a.37.37,0,0,0,.1-.3.1.1,0,0,1,.1-.1h.1s.1.1,0,.1-.1.3-.2.4a1.42,1.42,0,0,0-.2.6.37.37,0,0,1-.1.3l-.3.9v.1c0,.2-.1.3-.1.4s-.1.2-.1.4v.1c-.1.1-.1.3-.2.5h0v.2a.37.37,0,0,0-.1.3h0c.1-.1.1-.2.1-.4s0-.1.1-.1h.1c.1.1.2,0,.3-.1s.1-.2.2-.3v-.1c0-.1.1-.1.1-.2a.52.52,0,0,0,.2-.4.35.35,0,0,1,.1-.2.76.76,0,0,0,.2-.5v-.2c.1,0,.1-.1.1-.2v-.1c.1-.1.1-.1.1-.2v-.1c.1,0,0-.1.1-.2s.1-.1.1-.2.1-.3.2-.3a.1.1,0,0,0,.1-.1c0-.1,0-.2.1-.2s.1,0,.2-.1a1.27,1.27,0,0,0,.6-.1h1.6a1.63,1.63,0,0,1,.7,0h1.2c.1,0,.1-.1.1-.2v-.2c0-.1-.1-.2-.1-.3s0-.2-.1-.2-.2-.2-.3-.3,0-.1-.1-.1-.4.1-.6.2-.2.1-.3,0h-.5v-.1c0-.1.1-.1.2-.2v-.3l-.1-.1h-.1c-.2,0-.3.1-.5.1h-.1c-.1,0-.3.1-.4.1s-.2.1-.3.1h-.2a.14.14,0,0,1,0-.2c.1-.1.2-.3.3-.4l.1-.1c.1-.1.1-.1,0-.2s-.1-.1-.1-.2l.1-.1c0-.1.1-.3.1-.4s.2-.3.2-.5v-.1c0-.1.1-.2.1-.3s.1-.3.3-.4.2-.1.3-.1h.5a.9.9,0,0,0,.5-.1h0c.1-.1.1,0,.2,0h.1c.1,0,.1.1.2,0h.9v.1c-.1.1-.2.1-.2.2h0l-.1.1c-.1.1-.1.1-.2.1a.35.35,0,0,0-.2.1c-.1,0-.1.2-.1.2h.1a.19.19,0,0,1,.3,0h.1a.37.37,0,0,0,.3-.1c.1,0,.1,0,.1-.2s.1-.2.1-.3a.1.1,0,0,0,.1-.1h.1v.1l-.1.1h0s.1,0,.1.2h.2c.1,0,.2-.1.3-.1h.2c-.8.4-.7.2-.7.1m-.9-.7h-.4l.1-.1c.1-.1.1-.1.1,0s.1,0,.2.1h0m.5.9Zm-1.9-.8Zm1.1-.5h-.9a.37.37,0,0,0-.3.1h-.1v.1h.3l.1-.1v-.1h.1c.1-.1.1,0,.1.1h.3c-.1.1-.1.1-.2.1s-.2,0-.4,0-.1.1-.2,0h-.4v-.2c.1-.1.1-.1.1-.2v-.1h-2a.9.9,0,0,0,.5-.1h1.7a.31.31,0,0,1,.2.1h0a2.39,2.39,0,0,1,1.1.3h0m-1.4.3h0c-.1,0-.1.1,0,0a.77.77,0,0,1-.3.1h0c.1,0,.1,0,.3-.1h0m-.5,0Zm-.2,0h0c0-.1.1,0,0,0Zm0,.1h0m-1.9-.1h0m-.1,1.6h0m-.1.3a.6.6,0,0,1-.1.4l-.1.1v.1a.37.37,0,0,1-.1.3c0,.1-.1.3-.1.4s-.1.2-.1.3v.1c-.1.1-.1.2-.1.4s-.1.1-.1.2-.1.1-.2.1a.37.37,0,0,1,.1-.3,1.42,1.42,0,0,0,.2-.6c0-.1.1-.2.1-.3l.1-.2a.14.14,0,0,0,0-.2.1.1,0,0,1,.1-.1.37.37,0,0,0,.1-.3c.1-.1.1-.2.2-.3v-.1m-1.1,3.8Zm-.2.5Zm-.1.3h0m-.4,1.1Zm.1.8h0c-.1,0-.1-.1,0,0h0m-.2.3Zm-.1-.2h0c-.1.1-.1,0,0,0h0M106,42.3Zm-.1.2Zm-.2.3Zm.1.1h0c-.1.1-.1.2-.2.3h.1a.37.37,0,0,0,.1-.3m-.1.5h0m-.2.5v-.2h0v.2h0m2-2.5c0-.1.1-.2,0-.2-.2-.2-.4-.2-.8-.1h-.1c-.1,0-.2,0-.2.1a.37.37,0,0,1-.1.3,1.42,1.42,0,0,0-.2.6v.1l.1-.1c.1-.1.1-.1.1-.2h0v-.1c0-.1.1-.2.1-.3h0v.3a1.69,1.69,0,0,0-.2.5c-.1.3-.2.5-.3.8v.1c.1.1,0,.2-.1.3v.1c.1.2,0,.4-.1.7h0c-.1.6-.3,1-.4,1.7l-.6,2.1a2.92,2.92,0,0,0-.2.9,1.42,1.42,0,0,1-.2.6l-.1.1v-.1c.1-.3.1-.7.2-1,.1-.5.3-1,.4-1.6l.3-1.5a6.6,6.6,0,0,1,.4-1.1c0-.1.1-.2.1-.3V44l-.1.1v.1a2.39,2.39,0,0,0-.3.7c-.3.9-.6,2-.9,3.1-.1.3-.2.7-.3,1l-.1.1h0c0-.2-.1-.3-.1-.5-.1-.4-.2-.9-.3-1.4-.1-.7-.3-1.3-.4-2a.87.87,0,0,0-1.3-.5c-.3.1-.3.2-.3.4a1.13,1.13,0,0,1-.1.8.22.22,0,0,1-.2.2.74.74,0,0,0-.6.6c-.1.6-.3,1.1-.4,1.7,0,.1-.1.3-.1.4a8.33,8.33,0,0,1-.4,1.5c-.2.5-.3,1.1-.5,1.6-.1.2,0,.3.1.4s.3.1.3.2a.4.4,0,0,0,.4.2c.2.1.3,0,.4-.2v-.1a8.33,8.33,0,0,0,.4-1.5.1.1,0,0,1,.1-.1c.1-.3.3-.7.4-1a1.49,1.49,0,0,1,.3-.7,4.42,4.42,0,0,1,.5-1.5.1.1,0,0,1,.1-.1l.1.1a.31.31,0,0,1,.1.2c.2,0,.2.1.3.1s.2.1-.1.2a.1.1,0,0,0-.1.1,2.2,2.2,0,0,0,.1.8c0,.2.1.2.3.1h.2l-.1.1a.55.55,0,0,0-.3.5,5,5,0,0,1,.2,1.2,3.4,3.4,0,0,1,.2,1.4c0,.1.1.2.2.3a1.53,1.53,0,0,1,.7.5.75.75,0,0,0,.5.1c.2,0,.2-.2.3-.3s.1-.5.2-.7c.1-.6.2-1.1.3-1.6s.2-.9.3-1.3.3-1,.4-1.6l.3-1.2a2.92,2.92,0,0,0,.2-.9,1.08,1.08,0,0,1,.1-.6c.1-.2.1-.3.2-.5.1-.4,0-.5.1-.8,0,0,.1-.1,0-.1s0-.1.1-.2l.1-.1v-.2c0-.1.1-.2.2-.3s.2-.2.3-.3a.8.8,0,0,1-.1-1.1m-.7.5h0c-.1-.1,0-.1,0,0m-.1.3h0m-.3.5Zm-.1.5h0m-.3,1h0m0,.4Zm-.1.7h0c-.2,0-.2.1-.3.1h-.2a.77.77,0,0,1,.2-.3.14.14,0,0,1,.2,0,.31.31,0,0,1,.1.2m-1,3Zm-3-2Zm.5.5a.37.37,0,0,1-.3.1H102c.1-.1.2-.1.2-.2.1.1.1.1.2.1m.4,1.7Zm.2.8Zm.1.5h0m.3.8c-.1,0-.1.1,0,0-.1.1-.2.1-.2,0h.2m-4.5-3.5a2.2,2.2,0,0,0,.1-.8c0-.2-.1-.4-.1-.6v-.1a4.87,4.87,0,0,0-.4-1.1c0-.1,0-.1-.1-.2a1.16,1.16,0,0,0-.5-.7l-.1-.1a3.92,3.92,0,0,0-1.4-.8c-.3-.1-.7-.1-1-.2H94.3a1,1,0,0,0-.7.2h-.1c-.2,0-.2.1-.3.2l-.1.1c-.2.2-.4.5-.6.7l-.9,1.2c0,.1-.1.1-.1.2a3,3,0,0,1-.4.8c0,.1-.1.1-.1.2s-.1.3-.2.5-.1.2-.1.3-.1.1-.1.2l-.3.6v.2a.1.1,0,0,0,.1-.1l.1-.1a1.61,1.61,0,0,1,.4-.7,1.49,1.49,0,0,0,.3-.7c0-.1.1-.1.1-.2s.1-.1.1-.2h.1c0-.1.1-.1.1-.2s0-.2.1-.1a1.38,1.38,0,0,0,.3-.4c0-.1.1-.1.2-.1a.37.37,0,0,0,.3-.1h.1v-.2c.1,0,.2-.1.3-.2s.1-.2.2-.3h0c.1,0,.1-.1.2,0h.1l.3-.3c.1-.2.3-.2.4-.4a.37.37,0,0,1,.3-.1h.2a.76.76,0,0,1,.4-.2c.1,0,.2-.1.3-.2h.9a1,1,0,0,1,.7.4,3,3,0,0,1,.5.7c0,.1,0,.1.1.1l.1.1c.1,0,.1,0,.1.1s.1.3.1.4V45c-.1,0,0,.1,0,.1s.1.3.1.4a1.7,1.7,0,0,1,.1.7v.6a.1.1,0,0,0,.1-.1V45.3c0-.2.1-.4-.1-.6v-.1c0-.1,0-.2.1-.2a.35.35,0,0,1,.1.2V45a1.45,1.45,0,0,1,.2.7V46a.37.37,0,0,1-.1.3v.6c-.1.1-.1.3-.2.4s-.1.3-.2.4v.1c-.1.1-.1.3-.2.3l-.1.1c-.1.3-.3.5-.4.8s-.3.5-.5.8c-.1.1-.2.3-.4.4a1.21,1.21,0,0,1-.5.5c-.1.1-.1.1-.1.2a2.65,2.65,0,0,1-.5.6l-.2.2c-.1.1-.2.1-.3.2s-.1.1-.2.1-.2.1-.3.2-.1,0-.2.1-.1.1-.2,0h-.1c-.1,0-.3,0-.3-.1v-.4a9,9,0,0,1,.3-1.6c0-.1.1-.2.2-.4s.1-.2.1-.4.1-.3.2-.4.1-.2.2-.3.1-.1.1-.2v-.1c0-.1.1-.1.1-.2V48a.1.1,0,0,1,.1-.1v-.1c.1-.1.1-.2.2-.3s.1-.1.1-.2v-.1l.1-.1.2-.2c.1-.1.1-.2.2-.3s.1-.3.3-.4h0c.1-.1.1-.2.2-.3s.2-.3,0-.5-.1-.1-.1-.2-.1-.2-.3-.2a2,2,0,0,0-.8.1.78.78,0,0,0-.4.4l-.1.1a3.51,3.51,0,0,1-.5.8h0a.52.52,0,0,1-.2.4.1.1,0,0,1-.1.1c-.2.4-.5.9-.7,1.3v.2c0,.1,0,.1-.1.2s-.1.1-.1.2v.1a1.88,1.88,0,0,0-.2.8c0,.1,0,.2-.1.2s-.2.3-.1.5v.8a1.35,1.35,0,0,0,.5,1.2l.3.3.4.4a.37.37,0,0,0,.3.1h.2a.85.85,0,0,0,.7,0l.6-.3c.1-.1.3-.1.4-.2v-.1h-.1c.1-.1.2-.1.3-.2s.4-.3.6-.3v-.3c0-.1,0-.1.1-.1s.1-.1.2-.1.3-.1.4-.3l.1-.1c0-.2.1-.2.2-.3l.1-.1a2.65,2.65,0,0,1,.5-.6c.1-.1.3-.2.3-.4h0c.2-.1.2-.2.3-.4s0-.2.1-.2.1-.1.1-.2.1-.1.1-.2.1-.1.1-.2.1-.3.2-.5V48a.19.19,0,0,1,0-.3v-.1a.9.9,0,0,1,.1-.5c-.5.1-.5,0-.4,0m-1.2-2.9Zm1,2h0m-.2,1.9c-.1.1-.1.2-.2.3h-.1a.9.9,0,0,1,.1-.5h.1c.1,0,.1,0,.1.2Zm-4.6-4.9Zm3.9,5h0m-.2.3h0c0-.1.1,0,0,0m-4.3-4.7ZM97.9,49c-.1.1-.1.2-.3.3h0c.1-.1.1-.2.2-.3s0-.1.1,0Zm-4.8-4.9Zm-.2.2-.2.2a.14.14,0,0,1,0-.2h.2m4.1,5h0m-4.3-4.7h0M97.1,50Zm-4.8-5.1Zm4.4,5-.2.2h0c0-.1,0-.1.1-.1s0-.1.1-.1h0m-.3,1.3Zm-5.9-4.1h0m-.1.3h0c-.1,0-.1.1,0,0h0m-.2,1.1h0c-.1,0-.1.1,0,0h0c-.1.1-.1,0,0,0m.6-2.8h0v-.5a.22.22,0,0,0-.2-.2.35.35,0,0,1-.2-.1c-.1-.1-.2-.1-.4-.1h-.1c-.2.1-.2.1-.3.3v.1c.1.1,0,.2,0,.4a1.42,1.42,0,0,0-.2.6c0,.3-.2.5-.2.8v.1l-.3.9a6.47,6.47,0,0,0-.4,1.3v.1a.37.37,0,0,0-.1.3v.1c-.1.3-.1.6-.2.8a1.42,1.42,0,0,1-.2.6,1.27,1.27,0,0,0-.1.6c0,.1.1.2.2.3s.2,0,.2-.1.1-.1.1-.2c.2-.3.5-.5.7-.8a.1.1,0,0,1,.1-.1,3.55,3.55,0,0,0,.4-.9v-.1a5.36,5.36,0,0,1,.5-1.1c0-.1.1-.3.1-.4s.1-.2.1-.3,0-.1.1-.2l.1-.3a.9.9,0,0,0,.1-.5c0-.2.1-.4.1-.6v-.2a.47.47,0,0,1,.1-.6h0m-3.9,3.8a.37.37,0,0,0-.1-.3l-.1-.1c-.1,0-.2,0-.2-.1a.22.22,0,0,0-.2-.2v-.1a2.38,2.38,0,0,0-1.2-.3c-.9,0-1.9.4-2.9.5a2.39,2.39,0,0,1-.9.2c-.3,0-.6.2-.8.2s-.2-.2-.2-.4c.1-.5.3-.6.4-1l.1-.1c.1-.1.3-.2.4-.4a.1.1,0,0,0,.1-.1c.1-.1.1-.1.1-.2.2-.2.4-.2.6-.4s.1-.1.2-.1h0c.2-.1.4-.3.6-.4H83l.1-.1c.1,0,.1-.1.2-.1a6.71,6.71,0,0,1,2.3-1v.1a3.45,3.45,0,0,0-.8.9c-.2.1-.2.3-.4.4v.1c0,.1.1.4.2.4h0c0,.1.4.4.4.4h.5c.1,0,.1-.2.3-.3a9.34,9.34,0,0,0,1.3-1.5v-.1c.1-.8-1.3-1.4-2-1.4H85c-.2,0-.5.2-.8.2h0a12.9,12.9,0,0,0-1.6.9,1.38,1.38,0,0,0-.4.3c-.2,0-.3.3-.5.3a7.05,7.05,0,0,1-.9.7c-.2.3-.7.7-.9,1-.1.1-.1.1-.1.2v.1H80c0,.1-.1.1-.1.2-.3.1-.3.1-.3.4a1.28,1.28,0,0,0,.2,1.2c.1,0,.5.7.7.8s.4.2.6.3h1.2c.4,0,1.2-.4,1.5-.4.1,0,.3-.1.4-.1a.37.37,0,0,0,.3-.1h0c.2,0,.3-.1.4-.1s.3-.1.5-.1v.1l-.1.1-.1.1v.1h0a5.3,5.3,0,0,0-1.2,1c-.1,0-.4.3-.4.3s.1.1,0,.1-.1,0-.1,0h-.1c-.1,0-.1,0-.1.1s-.3,0-.3.2a.1.1,0,0,1-.1.1c-.1,0-.2,0-.2.1-.2.1-.4.3-.6.4l-.1.1h0c-.1.1-.2.1-.3.2h0v.1a.35.35,0,0,1-.2.1h0c-.1,0-.2.1-.3.1A.31.31,0,0,1,81,53l-.2.1h0a.37.37,0,0,1-.3.1h0c.1,0,.1-.1.2-.1h0c-.1,0-.8.2-.8.2h-.4c.6-.1.7-.2,1.2-.3.1,0,.2-.1.3-.1h0a13.39,13.39,0,0,1,1.2-.6c.1-.1.2-.2.3-.2h0a6.42,6.42,0,0,1-2,.8h-.1V53h0a.37.37,0,0,0-.3.1h0c-.1,0-.3-.1-.4,0h-.1v.1h-.2a6.37,6.37,0,0,0-.7-.2h-.1c0,.3.4.6.7.6.1,0,.2,0,.2.1s.1,0,.1.1.1.1.2.1H80c.1,0,.5-.1.6,0l.1.1h.2c.1,0,.1-.1.2-.1s.1-.1.3-.1h0c0,.1,0,.1.1.1s.1,0,.2-.1h-.2l.1-.1h.5a.37.37,0,0,1,.3-.1v-.1h0l.1-.1.1-.1h-.1l.2-.1V53h.2v.1h-.1a.1.1,0,0,1-.1.1.1.1,0,0,0,.1.1c0,.1,0,.1-.1.2h.2l.1-.1a.35.35,0,0,1,.2-.1h0c.2,0,.4-.2.6-.3v-.1l-.1-.2h0s.1.1.1,0-.1-.1.1-.2H84v-.1h-.1l.1-.1h0c0,.1.1.1.1.2H84v.1l-.1.1v.1a.1.1,0,0,0,.1.1s.4-.4.5-.4h.1l.2-.1v-.1h-.1c.2,0,.4,0,.5-.2a.35.35,0,0,1,.2-.1h0l.1-.1v-.1a.1.1,0,0,0-.1-.1v-.1h.4l.5-.5a.78.78,0,0,0,.4-.4,6.8,6.8,0,0,0,.2-1.2m-2.1-2.8h0v0Zm-1.6-1.8ZM83,45Zm2.6,3.9h-.2c0-.1,0-.1.2,0Zm.5,1.1Zm-.1-.2Zm0,.1Zm.1.2Zm0,0Zm-3.2-5c-.1,0-.1.1-.2.1s-.1,0-.1.1h0l-.1.1c-.1.1-.2.1-.3.2l-.2.1h-.1l-.2.2a.1.1,0,0,0-.1.1c-.1.1-.2.2-.3.2h-.1c0-.1.1-.1.2-.2l.2-.2a4.13,4.13,0,0,1,1.1-.7Zm3.3,5.4ZM85.5,49a5.85,5.85,0,0,1-1.3.2.37.37,0,0,1,.3-.1h.1l-.1-.1h.1a1.06,1.06,0,0,1,.5-.2.1.1,0,0,1,.1.1h.1V49Zm.3,1.4Zm-.6-.5Zm-.8-.9Zm1,.8c-.1.4-.2.4-.5.7h0c.1-.1.1-.3.2-.5.1,0,.1-.1.2-.1l.1-.1Zm.1.9Zm-1.3-1.4Zm-2.9-3a.37.37,0,0,0-.3.1l-.1.1h-.1l.2-.2h.3Zm4,4.9Zm-.3-.1Zm-.1-.1Zm.2.3Zm-4.3-4.9h0m0,.3c-.1,0-.1,0-.2.1v-.1c.1-.1.1-.2.2-.2h0v.2m3.8,4.5Zm0,.3a.35.35,0,0,1-.2.1h0v-.1Zm0,.2Zm-.7-.7Zm-3.4-4.2h0c0,.1-.3.3-.3.4s-.1.1-.2.1a1.21,1.21,0,0,1,.5-.5Zm2.9,4.5Zm.1.1Zm0,0h0l-.2.1h0c.1-.1.1-.1.2-.1h0m.2.5Zm-.2-.1Zm.2.3Zm-4-4.4Zm3.8,4.1h0m.1.3Zm-.6-.4Zm.7.5h0c-.1.1-.2.1-.2.2l-.1.1a.1.1,0,0,0-.1-.1h0v-.1h.1l.1-.1v-.1h-.2l.1-.1v-.1l-.4.2h.2c.2,0,.3-.1.3.1,0,0,0,.1.2,0Zm-.8-.5a.31.31,0,0,0-.2.1h0l.2-.1Zm.4.7Zm-.6-.5Zm0,.1Zm.3.5Zm-.6-.4Zm.1.3Zm-.1.1Zm.1.1Zm-.6-.3h0l.2-.1h0Zm.3.6Zm-.3-.2Zm.2.2Zm-.4,0h0l-.2-.1-.1.1h-.2c.2,0,.2-.1.3-.1s.1,0,.1.2Zm-.4.1Zm-.2-.2Zm.1.2Zm-.3,0Zm-.1-.1Zm0,.2Zm-.3-.3Zm.1.4Zm0-.1Zm-.2.1Zm-.3-.3Zm-1.2-.4Zm-.4-2.7a.37.37,0,0,0-.1-.3l-.1-.1c-.1,0-.2,0-.2-.1a.22.22,0,0,0-.2-.2V49a2.38,2.38,0,0,0-1.2-.3,16,16,0,0,0-2.7.4,2.39,2.39,0,0,1-.9.2c-.3,0-.6.2-.8.2s-.2-.2-.2-.4c.1-.5.3-.6.4-1l.1-.1c.1-.1.3-.2.4-.4a.1.1,0,0,0,.1-.1c.1-.1.1-.1.1-.2.2-.2.4-.2.6-.4s.1-.1.2-.1h0c.2-.1.4-.3.6-.4h.2l.1-.1c.1,0,.1-.1.2-.1a6.71,6.71,0,0,1,2.3-1v.1a3.45,3.45,0,0,0-.8.9c-.2.1-.2.3-.4.4v.1c0,.1.1.4.2.4h0c0,.1.4.4.4.4h.5c.1,0,.1-.2.3-.3a9.34,9.34,0,0,0,1.3-1.5v-.1c.1-.8-1.3-1.4-2-1.4h-.1c-.2,0-.5.2-.8.2h0a12.9,12.9,0,0,0-1.6.9,1.38,1.38,0,0,0-.4.3c-.2,0-.3.3-.5.3a7.05,7.05,0,0,1-.9.7c-.2.3-.7.7-.9,1-.1.1-.1.1-.1.2v.1h.2c0,.1-.1.1-.1.2-.3.1-.3.1-.3.4a1.28,1.28,0,0,0,.2,1.2c.1,0,.5.7.7.8s.4.2.6.3h1.2c.4,0,1.2-.4,1.5-.4.1,0,.3-.1.4-.1a.37.37,0,0,0,.3-.1h0c.2,0,.3-.1.4-.1s.3-.1.5-.1v.1l-.1.1-.1.1v.1h0a5.3,5.3,0,0,0-1.2,1c-.1,0-.4.3-.4.3s.1.1,0,.1-.1,0-.1,0h-.1c-.1,0-.1,0-.1.1s-.3,0-.3.2a.1.1,0,0,1-.1.1c-.1,0-.2,0-.2.1-.2.1-.4.3-.6.4l-.1.1h0c-.1.1-.2.1-.3.2h0v.1a.35.35,0,0,1-.2.1h0c-.1,0-.2.1-.3.1a.31.31,0,0,1-.2-.1l-.2.1h0a.37.37,0,0,1-.3.1h0c.1,0,.1-.1.2-.1h0c-.1,0-.8.2-.8.2h-.4c.6-.1.7-.2,1.2-.3.1,0,.2-.1.3-.1h0a13.39,13.39,0,0,1,1.2-.6c.1-.1.2-.2.3-.2h0a6.42,6.42,0,0,1-2,.8h-.1v.1h0a.37.37,0,0,0-.3.1h0c-.1,0-.3-.1-.4,0h-.1v.1h-.2a6.37,6.37,0,0,0-.7-.2h-.1c0,.3.4.6.7.6.1,0,.2,0,.2.1s.1,0,.1.1.1.1.2.1h.2c.1,0,.5-.1.6,0l.1.1h.2c.1,0,.1-.1.2-.1s.1-.1.3-.1h0c0,.1,0,.1.1.1s.1,0,.2-.1h-.2l.1-.1h.5a.37.37,0,0,1,.3-.1v-.1h-.1L74,53h.2l.1-.1.1-.1h-.1l.2-.1v-.2h.2v.1h-.1a.1.1,0,0,1-.1.1.1.1,0,0,0,.1.1c0,.1,0,.1-.1.2h.2l.1-.1a.35.35,0,0,1,.2-.1h0c.2,0,.4-.2.6-.3v-.1l-.1-.2h0s.1.1.1,0-.1-.1.1-.2h.1v-.1h-.1l.1-.1h0c0,.1.1.1.1.2h-.1v.1l-.1.1v.1a.1.1,0,0,0,.1.1s.4-.4.5-.4h.1l.2-.1v-.1h-.1c.2,0,.4,0,.5-.2a.35.35,0,0,1,.2-.1h0l.1-.1v-.1a.1.1,0,0,0-.1-.1v-.1h.4l.5-.5a.78.78,0,0,0,.4-.4v-.4M76.4,47h0v0Zm-1.6-1.8Zm-.2.1Zm2.6,3.9H77c0-.1,0-.1.2,0Zm.5,1.1Zm-.1-.2Zm0,.1Zm.1.2Zm0,0Zm-3.2-5c-.1,0-.1.1-.2.1s-.1,0-.1.1h0l-.1.1c-.1.1-.2.1-.3.2l-.2.1h-.1l-.2.2a.1.1,0,0,0-.1.1c-.1.1-.2.2-.3.2h-.1c0-.1.1-.1.2-.2l.2-.2a4.13,4.13,0,0,1,1.1-.7Zm3.2,5.4Zm-.6-1.5a5.85,5.85,0,0,1-1.3.2.37.37,0,0,1,.3-.1h.1l-.1-.1h.1a1.06,1.06,0,0,1,.5-.2.1.1,0,0,1,.1.1h.1v.1Zm.3,1.4Zm-.6-.5Zm-.8-.9Zm1,.8c-.1.4-.2.4-.5.7h0c.1-.1.1-.3.2-.5.1,0,.1-.1.2-.1l.1-.1Zm.1.9Zm-1.3-1.4Zm-3-3a.37.37,0,0,0-.3.1l-.1.1h-.1l.2-.2h.3Zm4.1,4.9Zm-.3-.1Zm-.1-.1Zm.1.3Zm-4.2-4.9h0m-.1.3c-.1,0-.1,0-.2.1V47c.1-.1.1-.2.2-.2h0V47m3.9,4.5Zm0,.2a.35.35,0,0,1-.2.1h0v-.1Zm-.1.3Zm-.6-.7Zm-3.4-4.2h0c0,.1-.3.3-.3.4s-.1.1-.2.1a1.21,1.21,0,0,1,.5-.5ZM75,51.6Zm.1.1Zm0,0h0l-.2.1h0c0-.1.1-.1.2-.1h0m.2.5Zm-.2-.1Zm.2.3Zm-4-4.4ZM75,52.1h0c-.1.1,0,.1,0,0m.2.3Zm-.6-.4Zm.7.5h0c-.1.1-.2.1-.2.2l-.1.1a.1.1,0,0,0-.1-.1h0v-.1H75l.1-.1v-.1h-.2l.1-.1v-.1l-.3.1h.2c.2,0,.3-.1.3.1a.1.1,0,0,0,.1.1Zm-.8-.5a.31.31,0,0,0-.2.1h0l.2-.1Zm.4.7Zm-.6-.5Zm-.1.1Zm.4.5Zm-.6-.4Zm.1.3Zm-.2.1Zm.2.1Zm-.6-.3h0l.2-.1h0Zm.3.6Zm-.3-.2Zm.2.2Zm-.4,0h0l-.2-.1-.1.1h-.2c.2,0,.2-.1.3-.1s.1,0,.1.2Zm-.4.1Zm-.3-.2Zm.2.2Zm-.3,0Zm-.1-.1Zm0,.2Zm-.3-.3Zm.1.4Zm-.1-.1Zm-.1.1Zm-.3-.3Zm-1.2-.4ZM69,46.3h0c-.1-.1-.1-.1-.2-.1h-.1c0,.1,0,.1.1.1s.1.1.2,0h0m-.2-.1h0c-.1-.1-.1,0,0,0-.1,0-.1.1,0,0h0c-.1.1-.1,0,0,0m-.5-.6h0c-.1,0-.1-.1,0,0h0c-.2-.1-.3,0-.3.1v.1c-.1.1-.1.2-.2.4h0a.1.1,0,0,1,.1-.1.35.35,0,0,1,.1-.2v-.1a.1.1,0,0,1,.1-.1c.1-.1.1-.1.2-.1h0m.3,1.6Zm-1-.6h0m1,2.1h0c-.1-.1-.1,0,0,0-.1,0-.1,0-.2.1s-.1.1,0,.1h.1c.1-.1.1-.1.1-.2m-.4.1h0m0,.3Zm.1.2h0c-.2,0-.2,0-.2.1h0l.2-.1h0m.2.9h0m-1.8-1.3h0c0-.1-.1-.1,0,0h0m2.8,4.7v-.3c-.1-.1-.1-.1-.1-.2v-.3a.37.37,0,0,0-.1-.3v-.2c0-.1-.1-.1,0-.2s-.1-.3,0-.5h0c0-.1-.1-.3,0-.4h0v-1h0v-.8c0-.1.1-.1.1-.2s0-.2,0-.3h0a.1.1,0,0,1-.1-.1l.1-.1h0v-.1l.1-.1v-.1c0-.1-.1-.2,0-.2s0-.1,0-.1l.1-.1c0-.1,0-.1.1-.2a.14.14,0,0,0,0-.2v-.1l.1-.1c0-.1.1-.2.1-.3V47c0-.1,0-.1.1-.2v-.2c.1-.1.1-.1.1-.2a.6.6,0,0,1,.1-.4c0-.1.1-.2,0-.2h0v-.2c.1-.1,0-.2,0-.3h0c-.1,0-.1,0,0-.1s.1-.1.1-.2v-.1c.1-.1,0-.2,0-.3v-.1a.45.45,0,0,0,0-.5v-.3a.6.6,0,0,0-.1-.4.1.1,0,0,0-.1-.1h0c0-.1,0-.1-.1-.1h-.1V43h0a.37.37,0,0,0-.3.1.31.31,0,0,1-.2.1h0l.1-.1V43h-.1c-.1,0-.2.1-.3.2l-.1.1c0,.1-.1.2-.1.3v.1c-.1.1-.1.3-.2.4l-.3.6a2.19,2.19,0,0,1-.3.5l-.3.6v.1h.1c.1-.1.1-.1.1-.2s0-.1.1-.2.1-.2.2-.3h0c.1-.1.1-.3.2-.4s.1-.1.1-.2.1-.2.2-.3v-.1c0-.1.1-.2.2-.3s.1-.1.1-.2.1,0,.1.1,0,.3-.1.4l-.1.1c0,.1,0,.1-.1.1l-.1.1h0c-.1,0-.1.1-.1.2a.37.37,0,0,0-.1.3h0l-.2.2h.1a.1.1,0,0,0,.1.1V45c.1,0,.1-.1.2-.1s.1,0,0-.1-.1-.1,0-.1v-.1c0-.1.1-.2.2-.3h0v1.5h0c0,.1,0,.1.1.1h.1c0,.1.1.1.2.1s.1,0,.1.1v.1c0,.1,0,0-.1,0H69v.1s.1.1.1,0,.1,0,.2-.1h.1v.1h-.1c0,.1-.1.1-.1.2h-.1v.2s0,.1.1,0h0a.37.37,0,0,0,.3-.1h0a.1.1,0,0,1,.1.1l-.1.1h-.2v.1a.1.1,0,0,1-.1.1h-.1v.1c0,.1-.1.1-.1.2v.1h.1v-.3c0-.1,0-.1.1-.1s.1,0,.2-.1,0-.1.1,0a.1.1,0,0,1,0,.2c0,.1-.1,0-.1,0a.1.1,0,0,0-.1.1s-.1,0,0,.1h.2c.1,0,.1,0,.1-.1h.1c-.1.1-.1.1,0,.1v.1c0,.1-.1.2-.2.3h-.1v-.1h0a.1.1,0,0,1,.1-.1h-.1v.1h-.2a.1.1,0,0,0-.1-.1c-.1,0,0,0,0,.1v.2h.2v.1l-.1.1h0a.1.1,0,0,0-.1.1h0V48h0a.1.1,0,0,0,.1.1h.1a.1.1,0,0,0,.1-.1l-.1-.1h0a.1.1,0,0,1,.1.1h0v.2a.1.1,0,0,1-.1.1h-.4c0,.1,0,.1.1.1h.1a.14.14,0,0,1,.2,0h0c-.1,0-.1.1,0,.2s0,.1-.1.1a.1.1,0,0,0-.1.1H69c-.1,0-.1.1-.1.2h.3c.1,0,.1,0,0,.1s-.1.1-.1.2H69c0,.1,0,.1-.1.2h0v.1h0l-.1-.1h-.1a.14.14,0,0,0,0,.2c0,.1.1,0,.2,0H69c0,.1,0,.1.1,0h0c.1,0,.1,0,.1.1V50a.1.1,0,0,1-.2,0v-.1h0V50a.1.1,0,0,1-.1.1h-.1c0,.1,0,0,.1,0H69v.1h0c-.1.1-.1.1-.2,0h-.4c-.3,0-.6-.1-.8-.1h-1a.1.1,0,0,0,.1-.1c0-.1,0-.1.1-.1a.52.52,0,0,0,.2-.4c.1,0,0-.1,0-.2h0l-.1.1c0,.1-.1.1-.1.2h-.1v-.1c0-.1.2-.2.1-.3v-.1H67c0-.1.1-.1.1-.2v-.2a.37.37,0,0,0,.1-.3c0-.1.1-.2.2-.3h0a.1.1,0,0,1,.1-.1.1.1,0,0,0,.1-.1v-.2c0-.1,0-.1.1-.2s.1-.2.2-.3,0-.1.1-.2v-.1c0-.1.1-.1.1-.2a.1.1,0,0,1,.1-.1v-.2a.1.1,0,0,0-.1-.1H68a.1.1,0,0,0-.1-.1V46c.1-.2.1-.4.3-.5h0v-.1h-.1c0,.1-.1.1-.1.2a.1.1,0,0,1-.1.1h-.1l-.1-.1-.1-.1h-.1a.14.14,0,0,0-.2,0,.35.35,0,0,0-.2.1l-.1.1c0,.1-.1.2-.2.3l-.1.1c-.1.2-.2.3-.3.5a.14.14,0,0,0,0,.2c0,.1-.1.2-.1.3l-.1.1v.2h-.1c-.1.1-.1.2-.2.3H66v.1l-.1.1v-.1h-.1V48h0v.1a.1.1,0,0,1-.1.1h0a.1.1,0,0,1-.1.1h-.1v.2h-.1a.1.1,0,0,0-.1.1h.1c-.1,0-.1,0-.1.1v.1h-.1v.1a.1.1,0,0,1-.1.1.1.1,0,0,0-.1.1.1.1,0,0,1-.1.1v.2h0c-.1,0,0,.1-.1.1s-.1.1-.1,0h0v.2s.1,0,0,.1a.1.1,0,0,0-.1.1h0v.2h-.1a.1.1,0,0,1-.1.1v.1a.1.1,0,0,1,.1.1h-.2v.3h0a.1.1,0,0,0-.1.1h0c.1,0,0,.1,0,.1h-.1s-.1,0,0,.1v.1h0s.1,0,0,.1a.1.1,0,0,0-.1.1c0,.1,0,0-.1,0h-.1c0,.1-.1.1,0,.2v.1c-.1,0-.1.1-.1.2s0,.1-.1.1a.1.1,0,0,0-.1.1c-.1.1-.1.2-.2.4v.1a.37.37,0,0,1-.1.3c0,.1-.1.2-.1.3v.2c0,.1-.1.2-.1.3s-.1.1-.1.2v.1c.1,0,.1.1.1.2s.1.1.2.1a.1.1,0,0,1,.1.1c0,.1,0,.1.1.1h.1c.1.1.2.2.3.2h0c.1,0,.1,0,.1-.1v-.1c0-.1,0-.1.1-.2s.1-.1.1-.2l.1-.1.1-.1v-.1c.1-.1.1-.2.2-.3s.1-.1.1-.2.1-.1.1-.2.1-.1,0-.2h0c.1,0,.1-.1,0-.1v-.1a.1.1,0,0,0,.1-.1v-.1c.1,0,.1-.1.1-.2V52H65c.1,0,.1,0,.2-.1h-.1a.1.1,0,0,0-.1-.1h0l.1-.1h0v.1h.1v-.1h-.1v-.1h.1c0,.1.1.1.1,0a.1.1,0,0,0,.1-.1v-.1c.1-.1.1-.1.1-.2h-.1a.1.1,0,0,1-.1.1c-.1,0-.1-.1-.2,0h0v-.1h0c.1,0,.1,0,.1-.1h.1v.1h-.1v.1h.1a.1.1,0,0,1,.1-.1h.1c.1-.1.1-.1.2,0h.6a.37.37,0,0,0,.3-.1c.1,0,.1,0,.2-.1H67a.35.35,0,0,0,.2-.1c.1,0,.3-.1.4-.1s.2-.1.3-.1h.2a.1.1,0,0,0,.1.1c.1,0,0-.1,0-.1v-.1h0v.3c0,.1,0,.1-.1.1s-.1.1-.1.2h0v-.1h0c0,.1.1.2,0,.3s.1.2-.1.3v.5c0,.1.1.2,0,.3h0a.9.9,0,0,0,.1.5c0,.1.1.1.2.2a.35.35,0,0,1,.2.1h0c.1,0,.1.1.2.2a.22.22,0,0,0,.2.2.1.1,0,0,1,.1.1c.1,0,.1,0,.1-.1s0-.1-.1-.1l-.1-.1h.1c.1,0,.1,0,.1-.1a.1.1,0,0,1,.1-.1c.4.4.4.4.4.3m-.7-10h0m0,.1Zm.1,1.5h0c-.1,0-.1-.1,0,0h0m0,.2Zm.6,1.4h0m0,.3Zm0,.2h0c0,.1-.1.1,0,0h0m-.5-.5h0m.1.6Zm.3.6h0c-.2,0-.1-.1,0,0-.1-.1-.1,0,0,0m-.2.1h0m.1.2h0m-.3-.1Zm.3.5c0,.1,0,.1-.1.2h0c0-.1,0-.2.1-.2h0c-.1-.1,0-.1,0,0ZM67.4,47h0v0m1.5,1.9Zm.3.2h0c0,.1-.1.1,0,0h0c-.1.1-.1,0-.2,0h.2c-.1,0-.1-.1,0,0m-.5,0h0m.4.6h0m0,.4Zm-.5-.3h0a.31.31,0,0,1-.2.1l.2-.1h0l-.2-.1.1-.1h.1c0,.1.1.2,0,.2m.3.7ZM66,47.3Zm2.5,3h0m.4.7Zm-3.1-3.3h0c0,.1-.1.1,0,0h0m.7,1h0c-.1.1-.1.2,0,0h0c-.1-.1,0-.1,0,0Zm2,2.7h0m-2.1-2.5h0m2.1,2.8Zm.6.6h0m-.6-.3Zm-2.3-2.8c0,.1-.1.1-.1.2H66v-.1a.31.31,0,0,0,.2-.1Zm-.9-.6h0m3.1,3.8h0M66,49.6h0c-.1.1-.1.1-.2.1h0s0-.1.2-.1m0,.6h0c-.1.1-.1,0-.2,0h0c0-.1.2-.1.2,0h0m-.3-.1Zm-.6-.4h0m.7.8a.22.22,0,0,1-.2.2h0a.1.1,0,0,1,.1-.1c0-.1,0-.2.1-.1h0m-.3-.1h0m-.9-.5h0c-.1.1-.1,0,0,0h0m.2.5h0l-.2.1h0c.1,0,.1-.1.2-.1-.1-.1,0-.1,0,0h0m.5.9c0,.1,0,.1-.1.2s-.1.1-.1,0h0c.1-.1.1-.2.2-.2Zm-.7-.5Zm0,.2h0c0,.1-.1,0,0,0h0m.2.5h0m-.3-.5c0,.1-.1.1,0,0h0m.7,1h0m-.5-.5Zm-.6-.6h0m1,1.1h0m-.8-.6Zm-.1.2c0,.1,0,.2-.1.2l-.1.1h-.1v-.1c.1,0,.2-.1.3-.2h0m.5,1.1h0l-.1.2h0c0-.1,0-.2.1-.2h0c0-.1.1,0,0,0m-.3.2h0m0,.3Zm-1-.9h0c-.1-.1,0-.1,0,0h0M64,52c-.1,0-.1.1,0,0-.1,0-.1.1,0,0-.1.1-.1.1-.1.2s-.1.1-.1.2v.1c-.1,0-.1.1-.1.2a.1.1,0,0,1-.1.1c-.1,0-.1.1-.1.2s-.1.2-.1.3a.1.1,0,0,1-.1.1,1.42,1.42,0,0,1,.2-.6c.1-.1.1-.3.2-.4v-.2c0-.1.1-.1.1-.2H64m.2,1.5Zm-.9-.9Zm3.3-3.4h0m-.2.2Zm.1.4h0c-.1-.1-.1,0,0,0h0m-.2.3Zm-.2.3h0m-1,2.1Zm-1.2-1.3Zm-.2,0Zm.4-4.4c.1-.1.1-.2-.1-.3v-.1c.1-.1.1-.1,0-.2s-.1-.1-.1-.2a.14.14,0,0,0,0-.2c0-.1-.2-.2-.2-.4l-.1-.1c-.1,0-.1-.1-.1-.2s0-.3-.2-.4l-.2-.2c-.1-.1-.1-.1-.2-.1s-.3-.2-.5-.3-.5-.2-.8-.3-.6-.1-.9-.2a7.57,7.57,0,0,0-1.5.1l-.9.3a4.05,4.05,0,0,0-.9.5c-.1.1-.2.2-.3.2a.52.52,0,0,0-.2.4c0,.1,0,.3.2.3s.3,0,.4-.1a.76.76,0,0,1,.4-.2,1.45,1.45,0,0,1,.7-.2,6.12,6.12,0,0,1,1.2-.5,4.25,4.25,0,0,1,1.1-.2,1.48,1.48,0,0,1,.7.1c.1.1.3.1.3.2l.1.1a1,1,0,0,1,.4.5.76.76,0,0,1,.2.4c0,.1,0,.1.1.2a.9.9,0,0,0,.1.5c0,.2-.1.3-.1.5s-.1.2-.2.3a4.49,4.49,0,0,1-1.1,1.3c-.2.2-.4.3-.6.5a4.13,4.13,0,0,1-1.1.7c-.1,0-.1,0-.2.1l.1-.1v-.4c0-.2.1-.3.2-.5s.2-.5.3-.7a4.05,4.05,0,0,1,.5-.9.52.52,0,0,0,.2-.4c.1-.2.1-.4.3-.5s.1-.1,0-.2-.1-.1-.1-.2,0-.3-.1-.4a1.42,1.42,0,0,0-.6-.2.66.66,0,0,0-.7.2,1.38,1.38,0,0,0-.3.4l-.6,1.2c-.2.4-.4.8-.6,1.3a.37.37,0,0,1-.1.3v.1c-.1.2-.2.3-.2.5s-.1.4-.2.5v.1a1.45,1.45,0,0,0-.2.7,1.88,1.88,0,0,0-.2.8c-.1.6-.2.8-.2,1a4.33,4.33,0,0,1-.1.5v.1H57a.1.1,0,0,0,.1-.1.37.37,0,0,0,.1-.3c0-.1.1-.3.1-.4a.31.31,0,0,1,.1-.2h.1s.1.1,0,.1a.14.14,0,0,0,0,.2v.1a.37.37,0,0,0-.1.3,1.85,1.85,0,0,1-.2.7c0,.1-.1.2-.1.3V54c-.1.3,0,.6-.1.9V55h.1c.2-.1.2-.3.1-.5a.37.37,0,0,1,.1-.3c.1,0,.1-.1,0-.1s-.1-.1,0-.1.2-.3.3-.4a.9.9,0,0,0,.1-.5.22.22,0,0,1,.2-.2H58V53c0,.1-.1.2-.1.3s0,.1.1.1a.35.35,0,0,0,.2-.1c.1-.1.1-.1.1-.2h0a.1.1,0,0,1-.1-.1c0-.1-.1-.1-.1,0s-.2.1-.3.1h-.1V53c.1-.1.3-.1.4-.2s.1,0,.2-.1.2-.1,0-.1v-.1c0-.1.1-.2.2-.3a.55.55,0,0,0,.3-.5c0-.2.2-.3.4-.4s.1,0,.2-.1.4-.1.6-.3h.1a2.19,2.19,0,0,0,.5-.3c.1-.1.2-.1.2-.2a1.61,1.61,0,0,0,.7-.4c.1-.1.2-.1.2-.2s.3-.2.4-.3l.7-.7c.3-.2.4-.6.7-.8.1,0,0-.1.1-.2v-.1c0-.1.1-.1.1-.2a.6.6,0,0,0,.1-.4c.3-.2.3-.2.3-.3m-1.2.7h0c-.1.2-.2.2-.2.3a.52.52,0,0,1-.2.4c-.1.3-.5.5-.7.7l-.2.2s-.1.1,0,.1h0c-.2.1-.3.3-.5.4H61a.1.1,0,0,0-.1-.1c0-.1-.1-.1,0-.2a.1.1,0,0,0,.1-.1,6,6,0,0,0,.8-.8c.2-.3.5-.5.6-.9h.5m-1.5,2.1h0c0,.1-.1.1,0,0h0m-2.2-2.2h0a.55.55,0,0,0-.2.5c-.1.2-.2.5-.3.7s-.2.3-.3.5h-.1c0-.1-.1-.1-.1-.2v-.1c.2-.1.2-.3.3-.5s.1-.3.2-.5.1-.2.2-.4h.3m-.9,2.1a.35.35,0,0,1-.2.1v-.1c.1-.1.1-.2.2-.2h0v.2m-.1.3h0L58,50h0v-.1c.1-.1.1-.1.2-.1h0m-.1.4h0c-.2.1-.2.1-.3.1a.1.1,0,0,1,.1-.1h.2m-.3.4v.2l-.1.1h0v-.1c0-.1,0-.1.1-.2h0m0,.3c-.1.1-.1.3-.2.4s-.1.1-.2.1h-.1v-.1l.1-.1c.1,0,.1-.1.1-.2s.2-.1.3-.1h0m.4,1.1h0m-.1.3Zm-.6-.7h0m-.6,2c-.1-.1,0-.2,0-.3A.37.37,0,0,1,57,53a.1.1,0,0,0-.1-.1l-.1.1c0,.2-.1.4-.1.7a.1.1,0,0,0,.1.1c-.1-.1,0-.1.1-.2h0m.8.7h0c-.2-.1-.3,0-.3.1l.1.1Zm-1-.4h0c-.1.1,0,.1,0,0h0m.1,1.9c.1-.1,0-.2,0-.4s0-.1-.1-.2,0-.4,0-.5v-.5a.1.1,0,0,0-.1.1v.1a.9.9,0,0,1-.1.5v1l.1.1.2-.2" transform="translate(0 -0.08)"/></g></svg>